<?xml version="1.0" encoding="UTF-8"?><svg id="Layer_2" xmlns="http://www.w3.org/2000/svg" viewBox="0 0 343.61 343.61"><defs><style>.cls-1{opacity:.1;}.cls-2{fill:#283c31;}.cls-2,.cls-3{stroke-width:0px;}.cls-3{fill:#fff;}</style></defs><g id="Layer_1-2"><circle class="cls-2" cx="171.81" cy="171.81" r="171.81"/><g class="cls-1"><path class="cls-3" d="m263.21,275.66h-37.78l-24.41-30.72c-10.17,11.92-20.51,20.66-31.02,26.21-10.51,5.55-21.82,8.33-33.93,8.33-16.86,0-30.35-4.94-40.47-14.83-10.12-9.88-15.18-22.93-15.18-39.13,0-12.13,3.95-23.23,11.84-33.32,7.89-10.09,21.04-20.69,39.45-31.79-8.24-8.56-14.27-17.04-18.09-25.45-3.83-8.41-5.74-17.25-5.74-26.52,0-15.08,4.79-27.23,14.39-36.45,9.59-9.22,22.23-13.83,37.93-13.83s28.36,4.43,38,13.3c9.64,8.87,14.46,20.38,14.46,34.54,0,11.72-3.03,22.24-9.08,31.56-6.05,9.32-15.82,18.52-29.28,27.59l29.64,36.38c3.87-4.58,7.63-9.83,11.26-15.74,3.63-5.91,7.24-12.69,10.83-20.33h30.37c-3.68,10.7-8.36,20.92-14.02,30.65-5.67,9.73-12.33,19.03-19.98,27.9l40.83,51.66Zm-79.77-51.97l-34.15-42.95c-14.14,8.97-24.1,16.71-29.86,23.23-5.76,6.52-8.65,13.09-8.65,19.72,0,7.75,2.52,13.96,7.56,18.65,5.04,4.69,11.77,7.03,20.2,7.03,6.2,0,12.83-2.01,19.91-6.04,7.07-4.02,15.4-10.57,24.99-19.64Zm-26.45-78.26c10.46-7.34,17.87-13.99,22.23-19.95,4.36-5.96,6.54-12.35,6.54-19.18s-2.33-12.46-6.97-16.89c-4.65-4.43-10.66-6.65-18.02-6.65-6.97,0-12.84,2.24-17.58,6.73-4.75,4.49-7.12,9.99-7.12,16.51,0,5.1,1.82,11.08,5.45,17.96s8.79,14.04,15.48,21.48Z"/></g><path class="cls-3" d="m62.51,220.76v-23.2c6.25,6.39,12.22,10.99,17.91,13.8,5.69,2.81,11.76,4.22,18.21,4.22,6.84,0,12.24-1.42,16.18-4.26,3.95-2.84,5.92-6.69,5.92-11.56,0-3.98-1.33-7.48-4-10.5-2.66-3.02-9.03-7.37-19.09-13.05-15.59-8.96-25.38-15.91-29.36-20.83-3.98-4.92-5.97-10.78-5.97-17.58,0-9.55,3.8-17.39,11.4-23.51,7.6-6.12,17.38-9.18,29.36-9.18,5.33,0,10.57.69,15.74,2.07,5.16,1.38,10.38,3.5,15.64,6.37v19.95c-6.05-4.34-11.64-7.48-16.78-9.45-5.13-1.96-10.26-2.94-15.39-2.94-6.18,0-11.23,1.36-15.15,4.09-3.91,2.72-5.87,6.23-5.87,10.5,0,6.09,8.12,13.65,24.37,22.68l2.96,1.58c13.22,7.33,21.87,13.79,25.95,19.38,4.08,5.6,6.12,12.52,6.12,20.79,0,9.38-3.82,17.12-11.45,23.25-7.63,6.12-17.4,9.18-29.31,9.18-7.44,0-14.15-.94-20.13-2.81-5.99-1.88-11.74-4.86-17.27-8.96Z"/><path class="cls-3" d="m153.22,230.34l59.8-122.96h14.41l60.59,122.96h-20.43l-17.76-36.21h-58.81l-17.56,36.21h-20.23Zm45.49-52.03h43.02l-21.81-44.3-21.22,44.3Z"/></g></svg>