<?xml version="1.0" encoding="utf-8"?>
<!-- Generator: Adobe Illustrator 28.0.0, SVG Export Plug-In . SVG Version: 6.00 Build 0)  -->
<svg version="1.1" id="Layer_1" xmlns="http://www.w3.org/2000/svg" xmlns:xlink="http://www.w3.org/1999/xlink" x="0px" y="0px"
	 viewBox="0 0 119 24" style="enable-background:new 0 0 119 24;" xml:space="preserve">
<style type="text/css">
	.st0{opacity:0.2;}
	.st1{fill:#2757D8;}
</style>
<g class="st0">
	<path d="M70.8,9.4c-2.1,0.2-2.5,0.8-3.4,2.4c-0.9,1.4-1.6,2.7-2.7,4.5c1.3,1.5,4,4.8,4.9,6.7l-0.3,0.3c-1.6-0.2-3.3-0.9-3.7-1.4
		c-0.4-0.5-1.5-2-2.5-3.2c-2.1,3.2-4.1,4.4-6.3,4.4c-3.8,0-5.9-3.1-5.9-6c0-3.1,2.1-4.6,4.5-6.5c-1.4-1.5-2.3-3-2.2-4.7
		c0-3,2.3-5.2,4.9-5.2c2.5,0,4.5,1.9,4.5,4.6c0,1.2-0.7,2.3-1.3,2.9c-0.6,0.5-1.3,1.3-2.4,2.1c0.8,0.8,2.9,2.8,4.9,5.2
		c0.8-1.3,1.2-2.2,1.7-3.7c0.7-1.7,0.4-2-1.7-2.3V8.5h6.9V9.4z M62.4,17.9c-1.7-2.1-3.5-4.1-6.1-6.5c-1.9,1.5-2.7,3.2-2.7,4.9
		c0,3.3,2.2,4.7,4.2,4.7C59.8,20.9,61.4,19.4,62.4,17.9z M55.5,5.1c0,1.6,0.9,2.9,2.8,4.5c1.3-1.1,2.2-2.4,2.2-4.3
		c0-1.7-0.9-3.4-2.6-3.4C56.7,1.8,55.5,3,55.5,5.1z"/>
</g>
<g>
	<path class="st1" d="M55.1,8.2c-0.4-1.2-0.8-2.4-2.6-2.4c-1.5,0-2.2,1.1-2.2,2.1c0,1.4,1,2.1,2.6,2.9c1.5,0.7,3.6,1.7,3.6,3.9
		c0,2.1-2,3.7-4.6,3.7c-0.7,0-1.3-0.1-1.8-0.2c-0.5-0.1-0.9-0.3-1.2-0.4c-0.2-0.5-0.4-1.8-0.6-2.9l0.7-0.1c0.3,1.1,1.2,3,3.3,3
		c1.5,0,2.5-0.9,2.5-2.3c0-1.4-1.1-2.1-2.6-2.9c-1.4-0.7-3.5-1.7-3.5-3.9c0-1.9,1.6-3.5,4.3-3.5c1.1,0,1.9,0.3,2.6,0.4
		c0.1,0.7,0.2,1.5,0.4,2.6L55.1,8.2z"/>
	<path class="st1" d="M63.9,18.2v-0.6c1.3-0.1,1.4-0.3,1.2-1c-0.2-0.6-0.6-1.7-1-2.8h-4.2c-0.2,0.6-0.5,1.5-0.8,2.3
		c-0.4,1.2-0.2,1.3,1.3,1.5v0.6h-4.4v-0.6c1.2-0.1,1.5-0.3,2.2-2l4-10.2l0.8-0.2c1.1,2.9,2.7,7.5,3.8,10.5c0.6,1.6,0.9,1.8,2.2,1.9
		v0.6H63.9z M62,7.9L62,7.9c-0.7,1.7-1.2,3.3-1.8,4.9h3.5L62,7.9z"/>
</g>
</svg>
