<?xml version="1.0" encoding="utf-8"?>
<!-- Generator: Adobe Illustrator 28.0.0, SVG Export Plug-In . SVG Version: 6.00 Build 0)  -->
<svg version="1.1" id="Layer_1" xmlns="http://www.w3.org/2000/svg" xmlns:xlink="http://www.w3.org/1999/xlink" x="0px" y="0px"
	 viewBox="0 0 15 15" style="enable-background:new 0 0 15 15;" xml:space="preserve">
<style type="text/css">
	.st0{fill:#FFFFFF;}
</style>
<path class="st0" d="M10.9,9.6c-0.3-0.3-1-0.7-1.3-0.9c-0.4-0.2-0.5-0.2-0.8,0C8.6,8.9,8.5,9,8.2,9C7.9,8.9,7.4,8.6,6.9,8.1
	C6.4,7.6,6.1,7,6,6.8C5.9,6.5,6.1,6.4,6.3,6.2c0.2-0.3,0.2-0.4,0-0.8C6.1,5,5.7,4.4,5.4,4.1C5.1,3.8,5.1,3.8,4.9,3.9
	C4.8,4,4.6,4.1,4.5,4.2C4.2,4.3,4,4.5,3.9,4.7C3.8,5,3.8,5.5,4.3,6.5c0.6,1,1,1.5,1.8,2.4c0.8,0.8,1.4,1.3,2.4,1.8
	c1.1,0.6,1.6,0.5,1.8,0.4c0.2-0.1,0.4-0.3,0.6-0.5c0.1-0.1,0.2-0.3,0.2-0.5C11.2,9.9,11.2,9.9,10.9,9.6z"/>
</svg>
