<?xml version="1.0" encoding="utf-8"?>
<!-- Generator: Adobe Illustrator 28.0.0, SVG Export Plug-In . SVG Version: 6.00 Build 0)  -->
<svg version="1.1" id="Layer_1" xmlns="http://www.w3.org/2000/svg" xmlns:xlink="http://www.w3.org/1999/xlink" x="0px" y="0px"
	 viewBox="0 0 30 40" style="enable-background:new 0 0 30 40;" xml:space="preserve">
<style type="text/css">
	.st0{fill:#FFFFFF;}
</style>
<path class="st0" d="M18.2,17.4c0,1.8-1.4,3.3-3.2,3.3s-3.2-1.5-3.2-3.3S13.2,14,15,14S18.2,15.5,18.2,17.4z M15,19.4
	c1.1,0,1.9-0.9,1.9-2c0-1.1-0.9-2-1.9-2s-1.9,0.9-1.9,2C13.1,18.5,13.9,19.4,15,19.4z M22.7,17.4c0,3.6-4.7,10.1-6.8,12.8
	c-0.5,0.6-1.4,0.6-1.9,0C12,27.5,7.3,21,7.3,17.4c0-4.4,3.5-8,7.7-8C19.3,9.3,22.7,12.9,22.7,17.4z M15,10.7c-3.5,0-6.4,3-6.4,6.7
	c0,0.7,0.2,1.5,0.7,2.6c0.4,1.1,1.1,2.3,1.7,3.4c1.4,2.3,3,4.5,4,5.8c1-1.3,2.6-3.5,4-5.8c0.7-1.2,1.3-2.3,1.7-3.4
	c0.4-1.1,0.7-2,0.7-2.6C21.4,13.7,18.5,10.7,15,10.7z"/>
</svg>
