<?xml version="1.0" encoding="utf-8"?>
<!-- Generator: Adobe Illustrator 28.0.0, SVG Export Plug-In . SVG Version: 6.00 Build 0)  -->
<svg version="1.1" id="Layer_1" xmlns="http://www.w3.org/2000/svg" xmlns:xlink="http://www.w3.org/1999/xlink" x="0px" y="0px"
	 viewBox="0 0 40 30" style="enable-background:new 0 0 40 30;" xml:space="preserve">
<style type="text/css">
	.st0{fill:#384593;}
</style>
<path class="st0" d="M0,5c0-2.8,2.2-5,5-5h30c2.8,0,5,2.2,5,5v20c0,2.8-2.2,5-5,5H5c-2.8,0-5-2.2-5-5V5z M2.5,5v3.1l15.3,11.2
	c1.3,1,3.1,1,4.4,0L37.5,8.1V5c0-1.4-1.1-2.5-2.5-2.5H4.9C3.6,2.5,2.4,3.6,2.5,5L2.5,5z M2.5,11.2V25c0,1.4,1.1,2.5,2.5,2.5h30
	c1.4,0,2.5-1.1,2.5-2.5V11.2L23.7,21.3c-2.2,1.6-5.2,1.6-7.4,0L2.5,11.2z"/>
</svg>
