<?xml version="1.0" encoding="utf-8"?>
<!-- Generator: Adobe Illustrator 28.0.0, SVG Export Plug-In . SVG Version: 6.00 Build 0)  -->
<svg version="1.1" id="Layer_1" xmlns="http://www.w3.org/2000/svg" xmlns:xlink="http://www.w3.org/1999/xlink" x="0px" y="0px"
	 viewBox="0 0 40 40" style="enable-background:new 0 0 40 40;" xml:space="preserve">
<style type="text/css">
	.st0{fill:#384593;}
</style>
<path class="st0" d="M37.9,25.8l-8-3.4c-1.4-0.6-3.1-0.2-4.1,1l-2.6,3.2c-4.1-2.2-7.5-5.7-9.8-9.8l3.2-2.7c1.2-1,1.6-2.7,1-4.1
	l-3.4-8c-0.7-1.6-2.4-2.4-4-2L2.7,1.7C1.1,2.2,0,3.6,0,5.2C0,24.4,15.6,40,34.8,40c1.7,0,3.1-1.1,3.5-2.7l1.7-7.4
	C40.3,28.2,39.4,26.5,37.9,25.8z M35.8,36.7c-0.1,0.5-0.5,0.8-1,0.8C17,37.5,2.5,23,2.5,5.2c0-0.5,0.3-0.9,0.8-1l7.4-1.7
	c0.1,0,0.2,0,0.2,0c0.4,0,0.8,0.2,1,0.6l3.4,7.9c0.2,0.4,0.1,0.9-0.3,1.2L11,15.5c-0.4,0.4-0.6,1-0.3,1.5c2.6,5.3,7,9.6,12.3,12.3
	c0.5,0.3,1.2,0.1,1.5-0.3l3.2-3.9c0.3-0.4,0.8-0.5,1.2-0.3l7.9,3.4c0.5,0.2,0.7,0.7,0.6,1.2L35.8,36.7z M38.8,0h-10
	c-0.7,0-1.2,0.6-1.2,1.3c0,0.7,0.6,1.3,1.2,1.3h7L22.9,15.4c-0.5,0.5-0.5,1.3,0,1.8c0.2,0.2,0.6,0.4,0.9,0.4s0.6-0.1,0.9-0.4
	L37.5,4.3v7c0,0.7,0.6,1.2,1.2,1.2s1.2-0.6,1.2-1.2v-10C40,0.6,39.4,0,38.8,0z"/>
</svg>
