<?xml version="1.0" encoding="utf-8"?>
<!-- Generator: Adobe Illustrator 28.0.0, SVG Export Plug-In . SVG Version: 6.00 Build 0)  -->
<svg version="1.1" id="Layer_1" xmlns="http://www.w3.org/2000/svg" xmlns:xlink="http://www.w3.org/1999/xlink" x="0px" y="0px"
	 viewBox="0 0 275 205" style="enable-background:new 0 0 275 205;" xml:space="preserve">
<style type="text/css">
	.st0{fill:#E6EBF0;}
	.st1{fill:#C6D0DB;}
	.st2{fill:#AAB6C2;}
	.st3{fill-rule:evenodd;clip-rule:evenodd;fill:#313F8F;}
	.st4{fill-rule:evenodd;clip-rule:evenodd;}
	.st5{fill-rule:evenodd;clip-rule:evenodd;fill:#AAB6C2;}
	.st6{fill:#FFFFFF;}
	.st7{fill:#7977C6;}
	.st8{fill:#835F59;}
	.st9{opacity:0.4;fill:#FFFFFF;enable-background:new    ;}
	.st10{fill-rule:evenodd;clip-rule:evenodd;fill:#FFFFFF;}
	.st11{fill:#313F8F;}
	.st12{opacity:0.3;enable-background:new    ;}
	.st13{fill:#FD3D53;}
	.st14{font-family:'Arial-Black';}
	.st15{font-size:10.4912px;}
</style>
<path class="st0" d="M101.8,15.2c24,4.8,36.3,32,75.1,56.2c38.7,24.2,30.1,118.8-31,103.4c-58.3-14.7-61.1-13.5-99.2-12.2
	C-1.2,164.3,25.7,0.3,101.8,15.2z"/>
<path class="st0" d="M167.1,55.1c-11.4-8.9-20.7-24.6-15.4-39.7C157,0.3,168,28.4,177,37.8C189.8,51.3,190.7,74,167.1,55.1z"/>
<path d="M194.3,177.7H27.5v-1.1h166.8V177.7z"/>
<path class="st1" d="M61.5,64.3v-6.2h10.4V28.2h2.8v29.9h11.2v6.2h6v125.2H48.7V64.3H61.5z"/>
<path class="st2" d="M48.7,64.3h6v112.6h-6V64.3z"/>
<path class="st1" d="M70.3,94.1h43.1v95.4H70.3V94.1z"/>
<path class="st2" d="M70.3,94.1h6v95.4h-6V94.1z"/>
<path class="st2" d="M101.2,98.2h6.2v2.6h-6.2V98.2z"/>
<path class="st2" d="M90.8,98.2H97v2.6h-6.2V98.2z"/>
<path class="st2" d="M101.2,107.6h6.2v2.6h-6.2V107.6z"/>
<path class="st2" d="M90.8,107.6H97v2.6h-6.2V107.6z"/>
<path class="st2" d="M80.4,107.6h6.1v2.6h-6.1V107.6z"/>
<path class="st2" d="M101.2,116.9h6.2v2.6h-6.2V116.9z"/>
<path class="st2" d="M80.4,116.9h6.1v2.6h-6.1V116.9z"/>
<path class="st2" d="M90.8,121.6H97v2.6h-6.2V121.6z"/>
<path class="st2" d="M101.2,126.2h6.2v2.6h-6.2V126.2z"/>
<path class="st2" d="M90.8,130.9H97v2.6h-6.2V130.9z"/>
<path class="st2" d="M101.2,135.6h6.2v2.6h-6.2V135.6z"/>
<path class="st2" d="M80.4,135.6h6.1v2.6h-6.1V135.6z"/>
<path class="st2" d="M101.2,144.2h6.2v2.6h-6.2V144.2z"/>
<path class="st2" d="M90.8,144.2H97v2.6h-6.2V144.2z"/>
<path class="st2" d="M101.2,153.6h6.2v2.6h-6.2V153.6z"/>
<path class="st2" d="M90.8,153.6H97v2.6h-6.2V153.6z"/>
<path class="st2" d="M80.4,153.6h6.1v2.6h-6.1V153.6z"/>
<path class="st2" d="M101.2,162.9h6.2v2.6h-6.2V162.9z"/>
<path class="st2" d="M80.4,162.9h6.1v2.6h-6.1V162.9z"/>
<path class="st2" d="M90.8,167.6H97v2.6h-6.2V167.6z"/>
<path class="st2" d="M80.4,167.6h6.1v2.6h-6.1V167.6z"/>
<path class="st2" d="M101.2,172.2h6.2v2.6h-6.2V172.2z"/>
<path class="st2" d="M90.8,176.9H97v2.6h-6.2V176.9z"/>
<path class="st2" d="M101.2,181.6h6.2v2.6h-6.2V181.6z"/>
<path class="st2" d="M80.4,181.6h6.1v2.6h-6.1V181.6z"/>
<path class="st1" d="M173.4,94.1h43.1v95.4h-43.1V94.1z"/>
<path class="st2" d="M173.4,94.1h6v95.4h-6V94.1z"/>
<path class="st1" d="M112.2,48.8h57.8v140.7h-57.8V48.8z"/>
<path class="st2" d="M112.2,48.8h6v140.7h-6V48.8z"/>
<path class="st2" d="M154.9,55.5h9v3.8h-9V55.5z"/>
<path class="st2" d="M139.7,55.5h9v3.8h-9V55.5z"/>
<path class="st2" d="M154.9,69.1h9v3.8h-9V69.1z"/>
<path class="st2" d="M139.7,69.1h9v3.8h-9V69.1z"/>
<path class="st2" d="M124.5,69.1h9.1v3.8h-9.1V69.1z"/>
<path class="st2" d="M154.9,82.8h9v3.7h-9V82.8z"/>
<path class="st2" d="M124.5,82.8h9.1v3.7h-9.1V82.8z"/>
<path class="st2" d="M139.7,89.7h9v3.7h-9V89.7z"/>
<path class="st2" d="M154.9,96.4h9v3.8h-9V96.4z"/>
<path class="st2" d="M139.7,103.3h9v3.8h-9V103.3z"/>
<path class="st2" d="M154.9,110.1h9v3.7h-9V110.1z"/>
<path class="st2" d="M124.5,110.1h9.1v3.7h-9.1V110.1z"/>
<path class="st2" d="M154.9,122.7h9v3.8h-9V122.7z"/>
<path class="st2" d="M139.7,122.7h9v3.8h-9V122.7z"/>
<path class="st2" d="M154.9,136.4h9v3.7h-9V136.4z"/>
<path class="st2" d="M139.7,136.4h9v3.7h-9V136.4z"/>
<path class="st2" d="M124.5,136.4h9.1v3.7h-9.1V136.4z"/>
<path class="st2" d="M154.9,150h9v3.8h-9V150z"/>
<path class="st2" d="M124.5,150h9.1v3.8h-9.1V150z"/>
<path class="st2" d="M139.7,156.9h9v3.7h-9V156.9z"/>
<path class="st2" d="M124.5,156.9h9.1v3.7h-9.1V156.9z"/>
<path class="st2" d="M154.9,163.7h9v3.7h-9V163.7z"/>
<path class="st2" d="M139.7,170.5h9v3.8h-9V170.5z"/>
<path class="st2" d="M154.9,177.3h9v3.8h-9V177.3z"/>
<path class="st2" d="M124.5,177.3h9.1v3.8h-9.1V177.3z"/>
<path class="st1" d="M203.2,59.3h56.6v130.2h-56.6V59.3z"/>
<path class="st2" d="M203.2,59.3h5.8v130.2h-5.8V59.3z"/>
<path class="st2" d="M245,65.5h8.9V69H245V65.5z"/>
<path class="st2" d="M230.1,65.5h8.9V69h-8.9V65.5z"/>
<path class="st2" d="M245,78.2h8.9v3.5H245V78.2z"/>
<path class="st2" d="M230.1,78.2h8.9v3.5h-8.9V78.2z"/>
<path class="st2" d="M215.2,78.2h8.9v3.5h-8.9V78.2z"/>
<path class="st2" d="M245,90.8h8.9v3.5H245V90.8z"/>
<path class="st2" d="M215.2,90.8h8.9v3.5h-8.9V90.8z"/>
<path class="st2" d="M230.1,97.1h8.9v3.5h-8.9V97.1z"/>
<path class="st2" d="M245,103.4h8.9v3.5H245V103.4z"/>
<path class="st2" d="M230.1,109.7h8.9v3.5h-8.9V109.7z"/>
<path class="st2" d="M245,116h8.9v3.5H245V116z"/>
<path class="st2" d="M215.2,116h8.9v3.5h-8.9V116z"/>
<path class="st2" d="M245,127.7h8.9v3.5H245V127.7z"/>
<path class="st2" d="M230.1,127.7h8.9v3.5h-8.9V127.7z"/>
<path class="st2" d="M245,140.3h8.9v3.5H245V140.3z"/>
<path class="st2" d="M230.1,140.3h8.9v3.5h-8.9V140.3z"/>
<path class="st2" d="M215.2,140.3h8.9v3.5h-8.9V140.3z"/>
<path class="st2" d="M245,153h8.9v3.5H245V153z"/>
<path class="st2" d="M215.2,153h8.9v3.5h-8.9V153z"/>
<path class="st2" d="M230.1,159.3h8.9v3.5h-8.9V159.3z"/>
<path class="st2" d="M215.2,159.3h8.9v3.5h-8.9V159.3z"/>
<path class="st2" d="M245,165.6h8.9v3.5H245V165.6z"/>
<path class="st2" d="M230.1,171.9h8.9v3.5h-8.9V171.9z"/>
<path class="st2" d="M245,178.2h8.9v3.5H245V178.2z"/>
<path class="st2" d="M215.2,178.2h8.9v3.5h-8.9V178.2z"/>
<path class="st1" d="M20,100.6h36.5v88.9H20V100.6z"/>
<path class="st2" d="M20,100.6h3.7v88.9H20V100.6z"/>
<path class="st2" d="M46.9,104.9h5.7v2.4h-5.7V104.9z"/>
<path class="st2" d="M37.3,104.9H43v2.4h-5.7V104.9z"/>
<path class="st2" d="M46.9,113.5h5.7v2.4h-5.7V113.5z"/>
<path class="st2" d="M37.3,113.5H43v2.4h-5.7V113.5z"/>
<path class="st2" d="M27.7,113.5h5.7v2.4h-5.7V113.5z"/>
<path class="st2" d="M46.9,122.1h5.7v2.4h-5.7V122.1z"/>
<path class="st2" d="M27.7,122.1h5.7v2.4h-5.7V122.1z"/>
<path class="st2" d="M37.3,126.5H43v2.3h-5.7V126.5z"/>
<path class="st2" d="M46.9,130.8h5.7v2.3h-5.7V130.8z"/>
<path class="st2" d="M37.3,135.1H43v2.3h-5.7V135.1z"/>
<path class="st2" d="M46.9,139.4h5.7v2.3h-5.7V139.4z"/>
<path class="st2" d="M27.7,139.4h5.7v2.3h-5.7V139.4z"/>
<path class="st2" d="M46.9,147.4h5.7v2.3h-5.7V147.4z"/>
<path class="st2" d="M37.3,147.4H43v2.3h-5.7V147.4z"/>
<path class="st2" d="M46.9,156h5.7v2.3h-5.7V156z"/>
<path class="st2" d="M37.3,156H43v2.3h-5.7V156z"/>
<path class="st2" d="M27.7,156h5.7v2.3h-5.7V156z"/>
<path class="st2" d="M46.9,164.6h5.7v2.3h-5.7V164.6z"/>
<path class="st2" d="M27.7,164.6h5.7v2.3h-5.7V164.6z"/>
<path class="st2" d="M37.3,168.9H43v2.4h-5.7V168.9z"/>
<path class="st2" d="M27.7,168.9h5.7v2.4h-5.7V168.9z"/>
<path class="st2" d="M46.9,173.2h5.7v2.3h-5.7V173.2z"/>
<path class="st2" d="M37.3,177.5H43v2.4h-5.7V177.5z"/>
<path class="st2" d="M46.9,181.8h5.7v2.3h-5.7V181.8z"/>
<path class="st2" d="M27.7,181.8h5.7v2.3h-5.7V181.8z"/>
<path class="st3" d="M178.3,58.7c-0.8,1.5-1.9,3-3.1,4.2l1.6,3.4l-5.1,3.1l-2.2-3.1c-1.7,0.6-3.4,0.9-5.2,0.8l-1.2,3.5l-5.7-1.4
	l0.6-3.8c-1.6-0.7-3.1-1.9-4.2-3.1l-3.4,1.7l-3.1-5.2l3.1-2.2c-0.6-1.7-0.8-3.4-0.8-5.2l-3.5-1.3l1.5-5.7l3.7,0.6
	c0.8-1.6,1.9-3,3.1-4.2l-1.7-3.4l5.1-3.1l2.3,3.1c1.6-0.6,3.4-0.8,5.2-0.7l1.2-3.6l5.8,1.4l-0.6,3.7c1.5,0.8,3,1.9,4.2,3.1l3.4-1.7
	l3.1,5.1l-3.1,2.3c0.6,1.6,0.9,3.4,0.8,5.2l3.5,1.2l-1.4,5.8L178.3,58.7z M175.2,54.5c1.4-5.7-2.1-11.6-7.9-13
	c-5.8-1.4-11.6,2.1-13,7.9c-1.4,5.8,2.1,11.6,7.9,13C168,63.7,173.8,60.3,175.2,54.5z"/>
<path class="st4" d="M86.2,55.9c-0.6,1.3-1.5,2.5-2.5,3.5l1.3,2.7l-4.1,2.5l-1.8-2.5c-1.4,0.5-2.7,0.6-4.2,0.6l-1,2.9l-4.7-1.1
	l0.5-3.1c-1.3-0.6-2.4-1.5-3.4-2.5l-2.7,1.4l-2.5-4.2l2.4-1.8c-0.4-1.4-0.6-2.7-0.6-4.2l-2.9-1l1.2-4.8l3,0.5
	c0.6-1.3,1.5-2.4,2.6-3.4l-1.4-2.7l4.1-2.5l1.8,2.4c1.4-0.4,2.8-0.6,4.3-0.6l1-2.9l4.7,1.1l-0.5,3.1c1.3,0.6,2.4,1.5,3.5,2.5
	l2.7-1.4l2.5,4.1l-2.5,1.9c0.4,1.3,0.6,2.7,0.6,4.2l2.9,1l-1.2,4.7L86.2,55.9z M83.7,52.5c1.1-4.7-1.7-9.4-6.4-10.6
	c-4.7-1.1-9.4,1.7-10.6,6.4c-1.1,4.7,1.8,9.4,6.4,10.6C77.8,60.1,82.5,57.2,83.7,52.5z"/>
<path class="st5" d="M100.7,29.5c-0.4,0.8-0.9,1.5-1.4,2l0.8,1.6l-2.5,1.5l-1-1.4c-0.8,0.3-1.6,0.4-2.5,0.3l-0.6,1.8l-2.7-0.7
	l0.2-1.8c-0.8-0.4-1.4-0.9-2-1.5l-1.6,0.8l-1.4-2.4l1.4-1c-0.3-0.8-0.4-1.6-0.4-2.5l-1.7-0.6l0.6-2.8l1.9,0.3c0.4-0.8,0.9-1.4,1.4-2
	l-0.8-1.6l2.4-1.5l1.1,1.4c0.8-0.3,1.6-0.4,2.4-0.3l0.6-1.7l2.7,0.6l-0.2,1.8c0.8,0.4,1.4,0.9,2,1.5l1.6-0.8l1.4,2.4l-1.4,1
	c0.3,0.8,0.4,1.6,0.4,2.5l1.7,0.6l-0.7,2.8L100.7,29.5z M99.2,27.5c0.6-2.7-1-5.6-3.8-6.3c-2.7-0.6-5.6,1-6.3,3.8
	c-0.6,2.8,1,5.6,3.8,6.3C95.8,31.9,98.5,30.2,99.2,27.5z"/>
<path class="st2" d="M78,49.1h81.6c3.2,0.1,5.8,2.7,5.8,5.8l-0.1,116.3c0,3.2-2.6,5.8-5.8,5.8l-81.6-0.1c-3.2,0-5.8-2.6-5.8-5.7
	l0.1-116.3C72.2,51.7,74.8,49.1,78,49.1z"/>
<path class="st6" d="M80.1,173.9c-1.1,0-2.2-0.4-3-1.2c-0.8-0.8-1.2-1.9-1.2-3L76,56.2c0-2.3,1.9-4.2,4.2-4.2l77.3,0.1
	c2.3,0,4.2,1.9,4.2,4.2l-0.1,113.5c0,2.3-1.9,4.2-4.2,4.2L80.1,173.9z"/>
<path class="st4" d="M80.1,51.9h77.3c2.4,0,4.4,2,4.4,4.4l-0.1,113.5c0,2.4-2,4.3-4.4,4.3H80.1c-2.4,0-4.4-2-4.4-4.4l0.1-113.5
	C75.7,53.8,77.7,51.9,80.1,51.9z M80.1,52.3c-2.3,0-4,1.8-4,3.9L76,169.7c0,2.2,1.8,4,4,4h77.3c2.3,0,4-1.8,4-3.9l0.1-113.5
	c0-2.2-1.9-4-4-4H80.1z"/>
<path class="st3" d="M105.8,41.5h3.6c0.5,0,0.9-0.4,0.8-0.9c0-0.2,0-0.3,0-0.5c0-5.2,4.7-9.2,9.9-8.2c3.9,0.7,6.8,4.3,6.8,8.2
	c-0.1,0.2-0.1,0.3-0.1,0.5c0,0.5,0.4,0.9,0.9,0.9h3.6c1.4,0,2.5,0.9,2.9,2.2l3.1,10.3c0.4,1.4-0.6,2.7-1.9,2.7h-33.7
	c-1.4,0-2.4-1.4-2-2.7l3.1-10.3C103.3,42.4,104.5,41.5,105.8,41.5z M122.9,40.1c0-2.5-2-4.4-4.5-4.3c-2.3,0.1-4.2,2.1-4,4.4
	c0,0.4,0.1,0.8,0.2,1.2c0.6,1.7,2.3,2.9,4.1,2.9c1.9,0,3.5-1.2,4-2.9C122.8,41.1,122.9,40.6,122.9,40.1z"/>
<path d="M153.9,92.5l-0.1,1.4H97.7v-1.4H153.9z"/>
<path d="M127.1,95.6v1.4H97.7v-1.4H127.1z"/>
<path d="M89.9,99.7H88v-6.7c-0.7,0.6-1.5,1.1-2.5,1.4v-1.6c0.5-0.2,1.1-0.5,1.7-0.9c0.5-0.4,0.9-0.9,1.2-1.4h1.5V99.7z"/>
<path d="M141.1,114.3l-0.1,1.5H97.7v-1.5H141.1z"/>
<path d="M147.2,117.5v1.4H97.7v-1.4H147.2z"/>
<path d="M92,119.6v1.7h-6.7c0.1-0.6,0.3-1.2,0.6-1.8c0.3-0.5,1-1.3,2.1-2.3c0.9-0.7,1.4-1.2,1.6-1.4c0.3-0.4,0.4-0.8,0.4-1.1
	s-0.1-0.7-0.3-0.9c-0.3-0.2-0.6-0.3-1-0.3c-0.4,0-0.8,0.1-1,0.3c-0.2,0.2-0.3,0.6-0.4,1.1l-1.9-0.2c0.1-1,0.5-1.7,1.1-2.1
	c0.6-0.4,1.3-0.6,2.2-0.6c1,0,1.8,0.2,2.3,0.7c0.6,0.5,0.9,1.1,0.9,1.9c0,0.4-0.1,0.8-0.2,1.1c-0.2,0.4-0.4,0.8-0.8,1.2
	c-0.2,0.3-0.6,0.7-1.2,1.2c-0.6,0.5-1,0.8-1.2,1c-0.2,0.2-0.3,0.3-0.3,0.5H92z"/>
<path d="M153.9,136.9l-0.1,1.5H97.7v-1.5H153.9z"/>
<path d="M148.5,140.1v1.4H97.7v-1.4H148.5z"/>
<path d="M85.5,140.3l1.9-0.2c0.1,0.4,0.2,0.8,0.5,1c0.3,0.2,0.6,0.3,1,0.3c0.4,0,0.7-0.1,1-0.4c0.3-0.3,0.4-0.6,0.4-1.1
	c0-0.4-0.1-0.8-0.4-1c-0.2-0.3-0.5-0.4-0.9-0.4c-0.3,0-0.6,0.1-0.9,0.2l0.2-1.5c0.5,0,0.9-0.1,1.2-0.3c0.3-0.2,0.4-0.5,0.4-0.9
	c0-0.3-0.1-0.6-0.2-0.7c-0.2-0.2-0.5-0.2-0.8-0.2c-0.3,0-0.6,0.1-0.9,0.3c-0.2,0.2-0.3,0.5-0.4,0.9l-1.8-0.3c0.1-0.5,0.3-1,0.6-1.3
	c0.3-0.3,0.6-0.6,1-0.8c0.4-0.2,0.9-0.2,1.4-0.2c1,0,1.7,0.3,2.3,0.8c0.5,0.4,0.7,0.9,0.7,1.5c0,0.8-0.5,1.5-1.4,1.9
	c0.6,0.1,1,0.3,1.4,0.7c0.4,0.4,0.6,0.9,0.6,1.4c0,0.8-0.3,1.5-1,2.1c-0.6,0.5-1.5,0.8-2.4,0.8c-0.9,0-1.7-0.2-2.3-0.7
	C85.9,141.7,85.6,141.1,85.5,140.3z"/>
<path d="M116.2,157.4l-0.1,1.5H97.7v-1.5H116.2z"/>
<path d="M127.1,160.6v1.4H97.7v-1.4H127.1z"/>
<path class="st4" d="M89.1,164.3v-1.9h-4V161l4.3-5.9h1.6v5.9h1.3v1.5h-1.3v1.9H89.1z M89.1,161v-3.1l-2.3,3.1H89.1z"/>
<path d="M93.6,99.7h-1.7v-1.5h1.7V99.7z"/>
<path d="M95.1,121.3h-1.8v-1.4h1.8V121.3z"/>
<path d="M95.1,142.8h-1.8v-1.5h1.8V142.8z"/>
<path d="M95.1,164.3h-1.8v-1.4h1.8V164.3z"/>
<path d="M175.4,152.7h0.8l1.1,24.2h-0.8L175.4,152.7z"/>
<path class="st4" d="M158.6,151.3c0-1.7,10.8-1.8,14.1-1.8s14.1,0.1,14.1,1.8c0,1.6-10.8,1.8-14.1,1.8S158.6,152.9,158.6,151.3z
	 M172.7,150.3c-7.3,0-12,0.6-13.1,1c1.1,0.4,5.9,1,13.1,1c7.2,0,12-0.6,13.1-1C184.7,150.8,180,150.3,172.7,150.3z"/>
<path class="st7" d="M186.1,138.7c0.6,1.6,1,3.5,1,5.3c0,8-6.4,14.3-14.3,14.3c-7.9,0-14.3-6.4-14.3-14.3c0-1.9,0.3-3.7,1-5.3H186.1
	z"/>
<path d="M172.7,136.6c7.4,0,13.4,1,13.4,2.2c0,1.1-6,2.1-13.4,2.1c-7.3,0-13.3-1-13.3-2.1C159.4,137.5,165.4,136.6,172.7,136.6z"/>
<path class="st8" d="M172.7,137.1c6.7,0,12,0.7,12,1.6c0,0.8-5.3,1.5-12,1.5c-6.6,0-12-0.7-12-1.5
	C160.7,137.8,166.1,137.1,172.7,137.1z"/>
<path class="st9" d="M160.7,143.6c0-1.1,1.7-1.1,1.7,0c-0.1,2.6,0.2,5.1,2.1,7c0.7,0.8-0.5,1.9-1.2,1.2
	C161.1,149.5,160.6,146.5,160.7,143.6z"/>
<path d="M158.6,151.3h0.8c0-0.1-0.1-0.2-0.1-0.2c0.5,0.5,5.4,1.1,13.4,1.1c8,0,12.9-0.6,13.4-1.1c0,0,0,0.1,0,0.2h0.7
	c0,1.6-10.8,1.8-14.1,1.8S158.6,152.9,158.6,151.3z"/>
<path d="M185.8,151.5l0.8-0.1l3,25.3l-0.8,0.1L185.8,151.5z"/>
<path d="M156.5,176.8l2.5-25.2l0.7,0.1l-2.5,25.2L156.5,176.8z"/>
<path d="M169.9,176.8l0.5-24.2h0.8l-0.5,24.2H169.9z"/>
<path class="st6" d="M172.7,140c-0.3,0-0.5,0-0.7,0c-0.6,0-1.2,0-1.7,0c-0.3,0-0.5,0-0.7,0c-0.4,0-0.7,0-1-0.1c-0.2,0-0.4,0-0.6,0
	h-0.1c-5.2-0.3-6.9-1-6.9-1.2c0-0.2,1.6-0.9,6.5-1.2c0.1,0,0.2,0,0.3-0.1c0.1,0,0.2,0,0.4,0c0.4,0,0.8,0,1.2,0l0.7-0.1
	c0.8,0,1.6,0,2.4,0h0.7c1.4,0,2.7,0,3.9,0.1l0.8,0.1c5,0.2,6.7,1,6.7,1.2c0,0.2-2,1-7.9,1.2l-0.7,0.1C174.9,140,173.8,140,172.7,140
	z"/>
<path class="st4" d="M177.1,137.3c0.3,0,0.5,0,0.8,0c4,0.2,6.8,0.8,6.8,1.4s-3.3,1.2-8.1,1.5c-0.2,0-0.5,0-0.7,0
	c-1,0.1-2.1,0.1-3.2,0.1c-0.3,0-0.5,0-0.7,0c-0.6,0-1.2,0-1.7,0c-0.3-0.1-0.5-0.1-0.7-0.1c-0.4,0-0.7,0-1,0c-0.3,0-0.5,0-0.8-0.1
	c-4.1-0.2-7-0.7-7-1.4s2.7-1.2,6.6-1.4c0.3,0,0.5,0,0.8,0c0.4-0.1,0.8-0.1,1.2-0.1c0.2,0,0.5,0,0.7,0c0.8-0.1,1.6-0.1,2.4-0.1h0.7
	C174.5,137.1,175.8,137.2,177.1,137.3z M172.5,137.5c-0.8,0-1.6,0-2.4,0.1c-0.2,0-0.3,0-0.4,0c-0.1,0-0.2,0-0.3,0
	c-0.4,0-0.8,0-1.2,0.1c-0.1,0-0.2,0-0.4,0c-0.1,0-0.2,0-0.3,0c-4.2,0.3-5.8,0.8-6.2,1c0.5,0.2,2.2,0.7,6.6,1
	c0.2,0.1,0.5,0.1,0.7,0.1c0.3,0,0.7,0,1,0c0.3,0,0.5,0,0.7,0.1c0.5,0,1.1,0,1.7,0c0.2,0,0.5,0,0.7,0c1.1,0,2.1,0,3.2-0.1
	c0.1,0,0.2,0,0.4,0c0.1,0,0.2,0,0.3,0c4.7-0.2,7-0.7,7.6-1c-0.4-0.2-2.1-0.8-6.4-1h-0.1h-0.7c-1.2-0.1-2.5-0.2-3.9-0.2H172.5z"/>
<path class="st4" d="M164.5,125.1c1.3,2.6-1.2,5.1-3.6,5.8c-1.5,0.5-3.1,0.6-4.8,0.4c0.7-0.9,1.3-1.8,1.9-2.7c0.7-1,1.4-1.9,2.1-2.7
	c0.4-0.6,1-1.5,0.7-2.3c-0.1-0.5-0.5-1.1-1-1.2c-1.2-0.1-1.9,2.3-2.2,3.2c-0.7,2.3-2,3.9-3.7,5.3c-0.9-0.3-1.7-0.7-2.4-1.2
	c-2.3-1.5-3.9-4-4.4-6.8c-0.1-0.5-0.2-1.2-0.2-2c1.3,0.6,2.6,1.1,4.1,1.3c0.7,0.1,2.1,0.2,2.7-0.3c0.7-0.6-0.2-1.4-0.9-1.5
	c-0.7-0.2-1.5,0-2.3,0.1c-1.2,0.2-2.4-0.1-3.5-0.6c-0.1,0-0.2,0-0.2,0c0-2.7,0.3-6.5,1.9-9.8c1.4,1.6,3.1,2.8,4.8,4.1
	c0.7,0.6,1.5,1.4,2.5,1.5c0.3,0.1,1.1,0.1,1.3-0.4c0.2-0.9-1.9-1.9-2.5-2.2c-1.9-1-5-1.9-5.3-4.3c0-0.1,0-0.1,0-0.1
	c0.9-1.4,2-2.8,3.5-3.8c0.9-0.6,1.8-1,2.7-1.4c0.1,0.9,0.2,3.1,1.1,3.1c0.7-0.1,1-1.4,1-1.9s-0.4-1.1-0.9-1.5c1.6-0.4,3.1-0.3,4.6,0
	c0.6,0.9,1.2,1.9,1.5,2.8c0.4,1.2,0.4,2.3,0.4,3.5c0,0.5,0,1.6,0.5,1.9c0.3,0.2,0.8,0,1-0.3c0.8-1,0-3.1-0.3-4.1
	c-0.3-1-0.6-2.1-1.1-3.1c2.3,1,4.5,2.7,6.3,4.8c-0.2,0.6-0.4,1.3-0.6,1.9c-0.4,0.8-0.9,1.6-1.3,2.4c-0.1,0.1-0.1,0.1-0.1,0.2
	c0,0,0,0-0.1,0.1c0,0,0,0,0,0.1c0,0,0,0,0,0.1c-0.1,0.6,0.1,1.3,0.8,1c0.7-0.2,1.4-1.4,1.8-2.1c0.2-0.5,0.6-1.1,0.9-1.9
	c2,2.7,3.4,5.6,3.8,7.7c0.4,1.8,0.2,3.9-0.8,5.3c-0.8-0.3-1.5-0.8-2-1.4c-0.3-0.5-0.6-1.1-1-1.5c-0.5-0.4-1.3-0.2-1.3,0.5
	c0,1,0.9,1.9,1.5,2.6c0.3,0.4,0.8,0.8,1.4,1.1C170.2,126.1,167.1,125.7,164.5,125.1z M151.9,116.8c0-0.6-0.5-1-1-1.1
	c-0.4-0.1-0.6,0.3-0.6,0.7c0,0.2,0,0.3,0,0.5c0,0.1,0,0.1,0,0.2c0.1,0.2,0.2,0.6,0.5,0.8c0.1,0,0.1,0,0.1,0.1c0.2,0.1,0.2,0.1,0.3,0
	c0.1-0.1,0.1-0.1,0.2-0.1C151.8,117.8,152,117.2,151.9,116.8z M167.1,117.3c-0.3-0.2-0.9-0.2-1.2-0.1c-0.1,0-0.1,0-0.1,0
	c-0.1,0-0.1,0-0.1,0.1c-0.2,0.5-0.1,1,0.3,1.3c0.3,0.3,0.7,0.2,1-0.1C167.3,118.2,167.5,117.6,167.1,117.3z"/>
<path class="st10" d="M185.1,120c-1.5,0-3.6-0.2-5.1-1.7c-1-1.1-1.5-2.6-1.5-4.5v-0.2h-0.2c-0.1,0-0.1,0-0.2,0c-1.4,0.8-2.6,1-3.2,1
	c-0.8,0-1.5-0.2-1.9-0.7c-0.7-0.7-1-1.9-1-3.5c0.2,0.1,0.3,0.2,0.6,0.3l0.2,0.1c0.6,0.2,1.4,0.6,2.2,0.6c0.4,0,0.7-0.1,0.9-0.2
	c0.3-0.2,0.5-0.5,0.5-0.9c0-0.8-0.7-1.6-1.3-2c-0.3-0.2-0.6-0.4-0.9-0.6c-0.6-0.3-1.2-0.6-1.8-1.2c-0.6-0.6-1.3-1.4-2-2.5
	c-0.2-1.4-0.1-2.7,0.2-3.8c0.7-2.8,3.1-4.7,5.1-5.9c-0.2,0.6-0.3,1.3-0.3,2.1l-0.1,0.7c-0.1,1.3-0.2,2.6,0.1,3.9
	c0.2,0.7,1.2,3.6,2.7,3.6c0.1,0,0.1,0,0.2,0c0.4-0.1,0.6-0.2,0.7-0.5c0.3-0.8-0.6-2.2-1.1-3c-0.1-0.1-0.1-0.2-0.2-0.2
	c-1.5-2.4-1.7-5-0.6-7.4c2.7-1.4,5.8-2.5,9.7-3.3c-1,1.4-1.8,2.9-2.3,4.4c-0.2,0.7-0.9,3.1-0.2,4.4c0.2,0.4,0.5,0.6,0.9,0.7
	c0.2,0.1,0.3,0.1,0.4,0.1c0.2,0,0.4-0.1,0.6-0.3c0.6-0.6,0.6-2.3,0.6-3.3c0-0.3,0-0.5,0-0.6c0.2-2.3,1.2-4.2,3.1-6
	c1.5-0.2,3.1-0.5,4.7-0.7c0.4,1.6,0.8,3.1,1.1,4.8c-0.1,0.3-0.2,0.5-0.3,0.8c-0.1,0.2-0.2,0.4-0.3,0.6c-0.2,0.2-0.4,0.6-0.5,0.9
	c-0.1,0.2,0,0.6,0.2,0.8c0.1,0.1,0.3,0.2,0.5,0.2l0.1-0.1c0.4,0,0.6-0.5,0.9-0.8c0.4,2,0.7,3.8,0.9,5.5l0.1,0.6
	c-0.8,1-2,1.8-3.3,2.2c-0.4,0.2-0.9,0.2-1.3,0.3c-0.9,0.2-1.8,0.3-2.6,1c-0.1,0.1-0.1,0.1-0.1,0.2c-0.1,0.1,0,0.2,0.1,0.3
	c0.4,0.4,0.9,0.6,1.5,0.6c1,0,2-0.5,2.7-0.8c1-0.6,2.1-1.3,3.1-2.3c0.2,2.4,0.4,5.1-0.3,7.7c-1.3-0.2-2.6-0.5-3.9-1l-0.1-0.1
	c-0.2,0-0.3,0.2-0.4,0.3c0,0.2,0.1,0.4,0.2,0.5c1.3,0.5,2.6,0.8,3.9,1c-0.1,0.3-0.2,0.6-0.4,1c-0.3,0-0.5,0-0.8,0
	c-1.3,0-2.6-0.3-3.9-1c-1.3-0.7-2.6-1-3.8-1c-0.2,0-0.3,0-0.6,0.1c-0.1,0-0.2,0.1-0.3,0.2c-0.1,0.1-0.1,0.2,0,0.4
	c0.6,1.4,2.6,1.7,3.9,1.9c1.5,0.2,3,0.4,4.8,0.5c-0.9,1.5-2.1,2.8-3.5,3.8c-0.2,0.2-0.3,0.3-0.6,0.4c-0.1,0-0.2,0-0.2,0
	c-2,0-4-1-5.4-1.7l-0.1-0.1c-0.4-0.2-1-0.6-1.5-0.6c-0.4,0-0.6,0.2-0.7,0.7c-0.2,1.3,1,2,2.3,2.3c0.5,0.1,1,0.1,1.5,0.2
	c0.4,0.1,0.8,0.1,1.1,0.2c0.2,0.1,0.4,0.1,0.6,0.1C187.8,119.9,186.5,120,185.1,120z M180.5,114.6c-0.1,0.1-0.1,0.1-0.2,0.2
	c0,0.2,0.1,0.3,0.2,0.3c0.2,0.2,0.3,0.2,0.6,0.2c0.3-0.1,0.5-0.2,0.6-0.3c0.3-0.2,0.6-0.6,0.3-1.1c-0.2-0.2-0.4-0.3-0.6-0.3
	c-0.2,0-0.4,0.1-0.6,0.2C180.7,114.1,180.5,114.4,180.5,114.6z M186.5,105.9c-0.2,0-0.4,0.2-0.4,0.4c-0.1,0.6,0.2,1,0.6,1.3
	c0.2,0.1,0.3,0.1,0.5,0.1c0.3,0,0.6-0.1,0.7-0.3c0.4-0.4,0.2-1-0.2-1.5c-0.2-0.2-0.4-0.2-0.6-0.2
	C186.9,105.7,186.7,105.8,186.5,105.9z M180.6,100.2C180.6,100.3,180.6,100.3,180.6,100.2c0.1,0.7,0.4,1.2,0.8,1.2
	c0.1,0,0.2-0.1,0.3-0.2c0.6-0.2,0.9-1.2,0.9-1.5c0.2-0.8-0.1-1.5-0.6-1.8c-0.2-0.1-0.4-0.2-0.6-0.2c-0.6,0-1,0.3-1,0.9
	C180.3,99.2,180.4,99.7,180.6,100.2z M190.3,95.7c-0.1,0.1-0.1,0.1-0.1,0.2c-0.1,0.7,0.1,1.2,0.6,1.4c0.1,0.1,0.2,0.1,0.4,0.1
	c0.3,0,0.6-0.2,1-0.4c0.4-0.3,0.5-0.7,0.3-1.2c-0.2-0.5-0.6-0.8-1.1-0.8c-0.1,0-0.1,0-0.2,0.1C190.7,95,190.4,95.3,190.3,95.7z"/>
<path class="st4" d="M194.8,88.8c0.4,1.6,0.7,3.2,1,4.8c-0.1,0.3-0.2,0.6-0.3,0.9c-0.2,0.5-0.6,0.9-0.8,1.4
	c-0.1,0.3,0.1,0.8,0.5,0.8c0.5-0.1,0.8-0.8,1-1.2c0.1,0,0.1,0,0.1-0.1c0.4,2,0.8,4,1,6c0,0.3,0,0.5,0.1,0.7c-0.9,1-2.3,1.9-3.5,2.3
	c-1.3,0.4-2.7,0.3-3.8,1.2c-0.1,0.1-0.1,0.2,0,0.2c0.3,0.4,0.8,0.6,1.4,0.6c0.9,0,1.9-0.5,2.6-0.8c1.4-0.6,2.4-1.5,3.4-2.4
	c0.3,2.7,0.4,5.6-0.3,8.2c-1.4-0.2-2.7-0.5-4-1c-0.1,0-0.1,0-0.1,0c-0.2,0-0.2,0.3-0.1,0.4c1.3,0.5,2.7,0.8,4,1c0,0.1,0,0.1,0,0.1
	c-0.2,0.4-0.3,0.9-0.5,1.3c-0.3,0.1-0.6,0.1-1,0.1c-1.4,0-2.7-0.4-3.9-1c-1.2-0.6-2.4-1-3.7-1c-0.2,0-0.3,0-0.5,0
	c-0.2,0-0.2,0.2-0.2,0.3c0.6,1.3,2.6,1.6,3.8,1.9c1.8,0.2,3.5,0.4,5.2,0.4c-0.9,1.7-2.2,3.1-3.7,4.2c-0.2,0.2-0.4,0.3-0.6,0.4
	c-0.1,0.1-0.2,0.1-0.3,0.1c-1.9,0-3.9-0.9-5.5-1.8c-0.3-0.2-1-0.6-1.5-0.6c-0.2,0-0.5,0.1-0.6,0.5c-0.2,1.2,1.2,1.9,2.2,2
	c0.9,0.2,1.8,0.2,2.7,0.4c0.4,0.1,0.9,0.1,1.4,0.2c-1.4,0.5-3.2,0.9-4.9,0.9c-3.5,0-6.8-1.6-6.8-6.4c-0.1,0-1.8,1-3.5,1
	s-3.3-1-3.2-4.8c0.3,0.2,0.6,0.3,0.9,0.4c0.6,0.2,1.5,0.7,2.3,0.7c0.3,0,0.6-0.1,0.8-0.2c1-0.7-0.2-2.1-0.8-2.6
	c-1-0.6-1.9-1-2.7-1.8c-0.8-0.8-1.5-1.7-2.1-2.6c-0.2-1.4-0.2-2.7,0.2-3.9c0.8-2.8,3.1-4.8,5.6-6.2c0.1,0,0.1,0,0.1-0.1
	c-0.2,0.9-0.4,1.7-0.5,2.6c-0.1,1.5-0.3,3.1,0.1,4.6c0.2,1,1.2,3.5,2.5,3.5c0.1,0,0.1,0,0.2-0.1c1.6-0.2-0.4-2.8-0.7-3.3
	c-1.6-2.5-1.8-5.2-0.6-7.7c3.2-1.8,6.8-2.7,10.4-3.5c-1,1.4-1.9,3.1-2.5,4.8c-0.4,1.1-1.2,4.5,0.6,5c0.1,0,0.2,0,0.3,0
	c1.4,0,1-3.3,1-4c0.2-2.5,1.5-4.5,3.2-6.2c1.6-0.2,3.2-0.4,4.8-0.6c0,0,0,0,0.1,0C194.7,88.7,194.8,88.7,194.8,88.8z M189.9,89.8
	c-1.8,1.9-2.7,3.7-3,5.9c0,0.1,0,0.3,0,0.6c0.1,1.4,0.1,2.8-0.6,3.5c-0.3,0.2-0.5,0.3-0.8,0.3c-0.2,0-0.3,0-0.4,0
	c-0.5-0.2-0.8-0.5-1-0.9c-0.7-1.3-0.2-3.6,0.2-4.6c0.4-1.4,1-2.7,2-4.1c-3.7,0.8-6.6,1.9-9.2,3.2c-1.1,2.3-0.9,4.8,0.6,7.2
	c0.1,0.1,0.1,0.1,0.2,0.2c0.7,1,1.5,2.3,1.1,3.1c-0.1,0.2-0.3,0.5-0.8,0.6c-0.1,0.1-0.2,0.1-0.2,0.1c-1.7,0-2.7-3-2.9-3.8
	c-0.3-1.4-0.2-2.7-0.1-4c0-0.2,0-0.4,0-0.6c0.1-0.6,0.1-1.2,0.2-1.7c-1.9,1.2-3.9,3-4.6,5.6c-0.2,1-0.3,2.3-0.2,3.6
	c0.7,1,1.4,1.8,2,2.4c0.5,0.6,1,0.9,1.7,1.2c0.3,0.2,0.6,0.3,0.9,0.6c0.6,0.4,1.4,1.3,1.4,2.1c0,0.5-0.2,0.9-0.6,1.1
	c-0.3,0.2-0.6,0.3-1,0.3c-0.7,0-1.6-0.4-2.2-0.6l-0.2-0.1c-0.1-0.1-0.2-0.1-0.3-0.2c0.1,1.5,0.4,2.5,1,3.1c0.5,0.5,1.1,0.7,1.9,0.7
	c0.6,0,1.7-0.2,3.1-1c0.2,0,0.2-0.1,0.3-0.1h0.4v0.4c-0.1,1.9,0.4,3.3,1.5,4.3c1.4,1.4,3.5,1.7,4.9,1.7c1,0,2.1-0.2,3.1-0.4
	c-0.3-0.1-0.5-0.1-0.8-0.1c-0.5-0.1-1-0.1-1.5-0.2c-1.3-0.2-2.7-1-2.5-2.5c0.2-0.5,0.5-0.8,1-0.8c0.6,0,1.2,0.3,1.6,0.6l0.1,0.1
	c1.4,0.7,3.3,1.7,5.3,1.7c0.1,0,0.1,0,0.2,0c0.2-0.2,0.4-0.3,0.6-0.4c1.3-0.9,2.4-2.1,3.3-3.5c-1.7-0.1-3.2-0.2-4.5-0.4
	c-1.5-0.2-3.5-0.6-4.1-2.1c-0.1-0.2-0.1-0.4,0-0.6c0.1-0.2,0.3-0.3,0.5-0.3c0.2,0,0.4,0,0.6,0c1.3,0,2.6,0.3,3.9,1
	c1.3,0.6,2.6,1,3.8,1c0.2,0,0.4,0,0.6-0.1c0.1-0.2,0.2-0.4,0.3-0.6c-1.3-0.2-2.5-0.5-3.7-0.9c-0.2-0.2-0.4-0.4-0.3-0.7
	c0-0.3,0.2-0.5,0.6-0.5c0.1,0,0.1,0,0.2,0c1.2,0.5,2.4,0.8,3.6,1c0.6-2.3,0.6-4.8,0.3-7c-0.9,0.9-1.9,1.5-2.8,2
	c-0.7,0.3-1.9,0.8-2.8,0.8c-0.7,0-1.3-0.2-1.7-0.7c-0.1-0.1-0.2-0.2-0.2-0.4c0-0.2,0.1-0.3,0.2-0.4c0.8-0.6,1.7-0.8,2.7-1
	c0.4,0,0.8-0.1,1.2-0.2c1.2-0.4,2.4-1.1,3.1-2.1v-0.5c-0.2-1.5-0.5-3.1-0.8-5c-0.2,0.3-0.5,0.5-0.8,0.6c-0.1,0-0.1,0-0.1,0
	c-0.3,0-0.5-0.1-0.6-0.3c-0.2-0.2-0.3-0.6-0.2-1c0.2-0.3,0.3-0.6,0.6-0.9c0.1-0.2,0.2-0.4,0.3-0.6c0.1-0.3,0.2-0.5,0.2-0.8
	c-0.3-1.5-0.6-3.1-1-4.4C192.8,89.4,191.4,89.5,189.9,89.8z M180.1,98.7c0.1-0.6,0.6-1.1,1.2-1.1c0.3,0,0.5,0.1,0.8,0.2
	c0.6,0.4,0.9,1.1,0.7,2c-0.1,0.4-0.3,1.3-1,1.7c-0.1,0.1-0.2,0.1-0.4,0.1c-0.5,0-0.9-0.5-1-1.3C180.1,99.7,180,99.2,180.1,98.7z
	 M187.1,105.5c0.2,0,0.6,0.2,0.7,0.3c0.5,0.5,0.7,1.2,0.2,1.8c-0.2,0.2-0.6,0.4-0.9,0.4c-0.2,0-0.4-0.1-0.6-0.2
	c-0.6-0.2-0.9-0.8-0.8-1.5c0.1-0.2,0.3-0.5,0.6-0.5C186.6,105.6,186.9,105.5,187.1,105.5z M180.7,113.8c0.2-0.2,0.4-0.3,0.7-0.3
	c0.3,0,0.6,0.2,0.8,0.5c0.3,0.6,0.1,1.1-0.3,1.4c-0.2,0.2-0.5,0.3-0.8,0.3c-0.3,0-0.5-0.1-0.6-0.2c-0.2-0.1-0.2-0.3-0.2-0.5
	c0-0.1,0-0.2,0.1-0.3C180.4,114.2,180.4,113.9,180.7,113.8z M191.1,94.7c0.1,0,0.2,0,0.2,0c0.6,0,1.1,0.3,1.4,0.9
	c0.2,0.6,0,1-0.5,1.4c-0.3,0.2-0.6,0.4-1,0.4c-0.2,0-0.3,0-0.5-0.1c-0.6-0.2-0.8-0.8-0.7-1.5c0.1-0.1,0.1-0.2,0.2-0.3
	C190.3,95.2,190.6,94.8,191.1,94.7z M192,96.8c0.7-0.6,0.2-1.6-0.6-1.6c-0.1,0-0.1,0-0.2,0c-0.4,0.1-0.6,0.3-0.7,0.6
	c0,0,0,0.1-0.1,0.2c0,0.4,0,0.9,0.5,1c0.1,0.1,0.2,0.1,0.3,0.1C191.5,97.1,191.7,96.9,192,96.8z M181.6,101.1
	c0.5-0.2,0.7-0.9,0.8-1.4c0.1-0.6,0-1.3-0.6-1.6c-0.2-0.1-0.4-0.2-0.6-0.2c-0.4,0-0.7,0.2-0.8,0.7c-0.1,0.5,0.1,1,0.3,1.5
	c0,0,0,0,0,0.1c0,0.3,0.2,0.9,0.6,0.9C181.5,101.2,181.6,101.2,181.6,101.1z M186.5,106.2c-0.1,0-0.2,0.1-0.2,0.2
	c0,0.5,0.2,0.9,0.6,1.1c0.1,0.1,0.2,0.1,0.4,0.1c0.2,0,0.4-0.1,0.6-0.2c0.3-0.4,0.2-1-0.2-1.2c-0.2-0.2-0.3-0.2-0.5-0.2
	C186.9,105.9,186.7,106,186.5,106.2C186.6,106.2,186.5,106.2,186.5,106.2z M181.6,115c0.2-0.2,0.4-0.5,0.2-0.8
	c-0.2-0.2-0.3-0.3-0.5-0.3c-0.2,0-0.3,0.1-0.4,0.2c-0.2,0.2-0.3,0.5-0.3,0.7c-0.1,0.1-0.2,0.2,0,0.3c0.1,0.1,0.2,0.2,0.4,0.2
	C181.3,115.2,181.5,115.1,181.6,115z"/>
<path class="st10" d="M154.5,143.9c0.6-0.6,1-1.3,1.3-2c0.2-0.7,0.8-2.1-0.2-2.7c-0.1-0.1-0.1-0.1-0.2-0.1c-0.1,0-0.2,0.1-0.3,0.2
	c-0.3,0.5-0.4,1.1-0.5,1.7c0,0.3-0.1,0.5-0.2,0.8c-0.2,0.8-0.6,1.6-1.2,2.2l-0.4-0.1c-1,0-2.2-0.1-3.5-0.2c0.2-0.2,0.4-0.3,0.4-0.6
	c0-0.1,0-0.2-0.1-0.3c-0.1-0.1-0.3-0.2-0.5-0.2c-0.1,0-0.2,0-0.2,0c-0.2,0.1-0.4,0.2-0.6,0.4c-0.1,0.1-0.2,0.1-0.3,0.2
	c-0.2,0.1-0.3,0.1-0.6,0.2c-1-0.1-2-0.2-3.1-0.4c0.1-1,0.1-1.9,0.2-2.9c1.1-1.3,2.3-2,3.8-2.3c0.1,0,0.2,0,0.4,0
	c1-0.1,1.9-0.2,2.3-0.6c0.1-0.1,0.2-0.3,0.1-0.6c-0.2-0.3-0.5-0.7-1.4-0.7c-0.9,0-1.9,0.3-2.3,0.5c-0.9,0.4-1.7,0.9-2.7,1.6
	c0.3-2.5,0.9-4.4,1.7-6.2c0.8-0.4,1.6-0.6,2.4-0.6c0.8,0,1.6,0.2,2.4,0.6c0.1,0.1,0.1,0.1,0.2,0.1c0.4,0.2,1.2,0.6,1.8,0.6
	c0.3,0,0.6-0.2,0.6-0.6c0.1-1.1-2-1.7-2.6-1.8c-0.3,0-0.5,0-0.7,0c-0.6,0-1.3,0.1-1.9,0.2l-0.5,0.1c-0.4,0.1-0.8,0.1-1.2,0.2
	c0.7-1.3,1.8-2.7,3.5-3.3c0.7-0.2,1.5-0.3,2.3-0.3h0.2c0.7,0.4,1.3,0.7,1.8,1.1c0.3,0.3,0.6,0.6,0.8,1c0.2,0.2,0.3,0.3,0.5,0.6
	c0.2,0.3,0.8,0.7,1.4,0.7c0.3,0,0.5-0.1,0.6-0.4c0.4-0.6-0.1-1.4-0.4-1.9c0,0-0.2-0.3-0.2-0.4c0.1,0,0.2,0,0.3,0
	c1.1,0,1.9,0.3,2.2,0.8c0.4,0.6,0.3,1.7-0.2,2.9l-0.1,0.1l0.1,0.2v0.1h0.2c0.2,0,0.3,0,0.6,0c1.3,0,2.3,0.4,3,1.3
	c1,1.4,1,3.3,0.6,4.8c0-0.1,0-0.1,0-0.1c-0.1-0.3-0.1-0.5-0.2-0.7c-0.1-0.3-0.1-0.6-0.2-1c-0.2-0.7-0.6-1.5-1.4-1.5
	c-0.1,0-0.1,0-0.2,0.1c-0.2,0.1-0.4,0.2-0.4,0.3c-0.2,0.4,0.2,0.9,0.4,1.2c0.6,0.9,1.4,2.2,1.5,3.5c-0.1,0.1-0.1,0.2-0.2,0.4
	c-0.6,0.9-1.4,1.7-2.3,2.3c-0.1-1.1-0.3-2.1-0.5-3c-0.2-0.8-0.6-2.1-1.5-2.4h-0.1h-0.1c-0.2,0-0.3,0.2-0.3,0.3
	c0,0.9,0.3,1.8,0.9,2.7c0.6,0.9,0.9,1.9,0.8,2.8c-0.2,0.1-0.3,0.1-0.5,0.2c-0.2-0.8-0.5-1.6-0.8-2.3c-0.1-0.1-0.2-0.2-0.3-0.2
	c-0.2,0-0.3,0.1-0.3,0.2c-0.1,0.1-0.1,0.1,0,0.2c0.4,0.8,0.6,1.5,0.8,2.3c-1.2,0.4-2.6,0.6-4.4,0.6
	C154.8,143.9,154.7,143.9,154.5,143.9z M148.7,139.9c-0.2,0.1-0.5,0.3-0.5,0.6c0,0.2,0.1,0.4,0.2,0.6c0.2,0.2,0.4,0.2,0.6,0.2
	c0.3,0,0.5-0.1,0.6-0.3c0.2-0.3,0.3-0.6,0.2-1c-0.1-0.2-0.3-0.3-0.6-0.3c-0.1,0-0.2,0-0.3,0C148.8,139.8,148.8,139.8,148.7,139.9z
	 M155.3,137c-0.1,0.2-0.2,0.3-0.2,0.4c0,0.2,0.1,0.4,0.2,0.5c0.2,0.2,0.4,0.2,0.6,0.2c0.2,0,0.4-0.1,0.5-0.2
	c0.2-0.2,0.2-0.6,0.1-0.9c-0.2-0.2-0.4-0.4-0.7-0.4c-0.1,0-0.1,0-0.2,0c-0.1,0.1-0.2,0.1-0.2,0.2C155.3,136.9,155.3,136.9,155.3,137
	z M150.6,133.3c-0.1,0-0.2,0-0.3,0.1c-0.3,0.1-0.5,0.2-0.6,0.4c-0.1,0.2,0,0.6,0.2,0.8c0.2,0.2,0.5,0.4,0.9,0.4c0.1,0,0.2,0,0.4-0.1
	c0.2,0,0.8-0.2,1-0.6c0.1-0.2,0.1-0.4,0-0.5c-0.2-0.2-0.6-0.3-0.7-0.3h-0.1C151.1,133.4,150.8,133.3,150.6,133.3z M160.8,132.7
	c-0.2,0.1-0.4,0.2-0.5,0.3c-0.1,0.1-0.2,0.2-0.2,0.4c0.1,0.2,0.2,0.4,0.3,0.5c0.1,0,0.2,0,0.2,0c0.2,0,0.4-0.1,0.6-0.3
	c0.2-0.2,0.2-0.6,0-0.9c-0.1-0.1-0.1-0.1-0.2-0.1S160.8,132.6,160.8,132.7z"/>
<path class="st4" d="M153.3,126.7c0.6,0.3,1.2,0.7,1.8,1.1c0.6,0.5,0.9,1,1.4,1.6c0.2,0.3,0.7,0.6,1.2,0.6c0.2,0,0.3-0.1,0.5-0.2
	c0.3-0.6-0.2-1.4-0.5-1.9c-0.1-0.2-0.1-0.3-0.2-0.5c0.2-0.1,0.4-0.1,0.6-0.1c4.3,0,2.1,4,2.2,4c0.2,0,0.3,0,0.5,0
	c4.3,0,4.6,4.3,3.7,7.2c-0.1-0.3-0.1-0.6-0.2-0.9c-0.2-0.6-0.2-1.1-0.3-1.7c-0.2-0.5-0.6-1.2-1.3-1.2c-0.1,0-0.1,0-0.2,0
	c-0.7,0.2-0.1,1,0.2,1.3c0.6,1,1.4,2.3,1.4,3.6c-0.1,0.1-0.1,0.2-0.2,0.4c-0.6,1-1.5,1.9-2.6,2.6c-0.1-1-0.2-2.2-0.6-3.2
	c-0.2-0.8-0.5-2-1.4-2.3c-0.1,0-0.1,0-0.1,0c-0.1,0-0.2,0.1-0.2,0.2c0,1,0.4,1.9,0.9,2.6c0.6,1,0.9,2,0.9,3.1
	c-0.3,0.2-0.5,0.3-0.8,0.4c-0.1,0-0.1,0-0.1,0c-0.2-0.9-0.5-1.7-0.9-2.5c0-0.1,0-0.1-0.1-0.1c-0.1,0-0.2,0.1-0.2,0.2
	c0.4,0.8,0.7,1.6,0.9,2.5c-1.4,0.6-3.1,0.7-4.6,0.7c-0.3,0-0.6,0-0.9-0.1c0.6-0.6,1.1-1.4,1.5-2.3c0.3-0.7,0.8-1.9,0-2.5
	c-0.1,0-0.1,0-0.1,0c-0.1,0-0.1,0-0.2,0c-0.5,0.7-0.4,1.6-0.6,2.4c-0.2,0.9-0.7,1.8-1.4,2.3c-0.2,0-0.3,0-0.5,0
	c-1.3-0.1-2.7-0.2-4-0.3c0-0.1,0-0.1,0-0.1c0.2-0.1,0.7-0.3,0.8-0.6c0-0.2-0.2-0.3-0.4-0.3c-0.1,0-0.1,0-0.2,0.1
	c-0.3,0.1-0.6,0.4-0.9,0.6c-0.2,0.1-0.4,0.2-0.6,0.2c-1.1-0.2-2.1-0.3-3.2-0.4c-0.1-0.1-0.2-0.2-0.2-0.2c0.1-1,0.2-2,0.2-3.1
	c1-1.2,2.3-2.1,3.9-2.3c0.5-0.1,3,0,2.6-1c-0.2-0.4-0.6-0.6-1.1-0.6c-0.8,0-1.7,0.3-2.2,0.5c-1.1,0.4-2.1,1-3.1,1.8
	c0.3-2.3,0.8-4.6,1.9-6.7c0.8-0.5,1.7-0.7,2.6-0.7c0.9,0,1.7,0.2,2.5,0.6c0.3,0.2,1.2,0.7,1.9,0.7c0.2,0,0.4-0.1,0.4-0.4
	c0.2-0.9-1.7-1.5-2.3-1.5c-0.3-0.1-0.5-0.1-0.7-0.1c-0.8,0-1.5,0.2-2.3,0.2c-0.6,0.1-1.2,0.3-1.7,0.5c0.1,0,0.1,0,0.1-0.1
	c0.8-1.6,2-3.2,3.9-3.8c0.7-0.2,1.5-0.4,2.3-0.4C153.1,126.6,153.2,126.7,153.3,126.7z M150.8,127.5c-1.4,0.5-2.4,1.6-3.1,2.7
	c0.3-0.1,0.5-0.1,0.8-0.2c0.1,0,0.2,0,0.4,0c0.6-0.2,1.3-0.2,1.9-0.2c0.3,0,0.5,0,0.7,0.1c0.8,0.1,2.9,0.7,2.7,1.9
	c0,0.5-0.3,0.8-0.8,0.8c-0.6,0-1.3-0.3-1.9-0.6c-0.1-0.1-0.1-0.1-0.2-0.2c-0.8-0.4-1.6-0.6-2.3-0.6c-0.8,0-1.6,0.2-2.3,0.6
	c-0.7,1.6-1.3,3.4-1.6,5.6c0.8-0.5,1.6-1,2.4-1.3c0.3-0.2,1.4-0.5,2.3-0.5c1,0,1.4,0.5,1.5,0.8c0.2,0.4,0,0.6-0.1,0.8
	c-0.4,0.6-1.4,0.7-2.4,0.8c-0.2,0-0.3,0-0.4,0c-1.4,0.2-2.5,0.9-3.6,2.1c-0.1,0.9-0.2,1.7-0.2,2.7c0.9,0.2,1.9,0.3,2.8,0.4
	c0.2-0.1,0.3-0.1,0.5-0.2c0.1-0.1,0.2-0.1,0.3-0.2c0.2-0.2,0.3-0.3,0.6-0.4c0.1-0.1,0.2-0.1,0.3-0.1c0.2,0,0.5,0.1,0.6,0.2
	c0.2,0.2,0.2,0.3,0.2,0.5c-0.1,0.2-0.1,0.3-0.2,0.4c1,0.2,2.1,0.2,3,0.2h0.2h0.1c0.5-0.5,1-1.3,1.1-2c0.1-0.2,0.1-0.5,0.2-0.7
	c0-0.6,0.1-1.3,0.5-1.9c0.1-0.1,0.3-0.2,0.5-0.2c0.1,0,0.2,0,0.3,0.1c1,0.7,0.5,2.3,0.2,3c-0.2,0.6-0.5,1.2-1,1.8
	c1.7,0,3-0.2,4.1-0.6c-0.2-0.7-0.4-1.4-0.7-2.1c-0.1-0.2-0.1-0.3,0-0.5c0.1-0.2,0.2-0.2,0.5-0.2c0.2,0,0.4,0.2,0.5,0.3
	c0.3,0.7,0.6,1.4,0.7,2.1c0.1,0,0.2,0,0.2-0.1c0-0.9-0.3-1.7-0.8-2.6c-0.6-0.9-1-1.9-1-2.8c0-0.3,0.2-0.6,0.6-0.6
	c0.1,0,0.1,0,0.2,0.1c1.1,0.3,1.4,1.7,1.7,2.5c0.2,0.8,0.4,1.7,0.5,2.7c0.8-0.6,1.4-1.3,1.9-2.1c0.1-0.1,0.1-0.2,0.2-0.2
	c-0.1-1.3-0.8-2.5-1.4-3.3v-0.1c-0.2-0.3-0.6-0.9-0.5-1.4c0.1-0.2,0.2-0.4,0.6-0.5c0.1,0,0.2,0,0.2,0c0.9,0,1.4,0.8,1.6,1.5
	c0.1,0.2,0.2,0.5,0.2,0.7c0.2-1.3-0.1-2.7-0.7-3.5c-0.6-0.9-1.6-1.3-2.9-1.3c-0.2,0-0.3,0-0.5,0l-0.2,0.1l-0.2-0.2
	c-0.1-0.2,0-0.3,0-0.4c0.6-1.1,0.6-2.2,0.2-2.7c-0.3-0.5-1-0.7-2-0.7l0.1,0.1c0.2,0.6,0.8,1.5,0.3,2.3c-0.2,0.2-0.5,0.4-0.8,0.4
	c-0.6,0-1.3-0.5-1.5-0.8c-0.2-0.2-0.3-0.3-0.5-0.6c-0.2-0.3-0.5-0.6-0.8-1c-0.5-0.3-1-0.7-1.7-1.1c-0.1,0-0.1,0-0.2,0
	C152.2,127.1,151.4,127.2,150.8,127.5z M149.7,134.7c-0.2-0.2-0.3-0.6-0.2-1c0.1-0.2,0.3-0.5,0.7-0.6c0.1,0,0.2,0,0.3,0
	c0.3,0,0.5,0.1,0.8,0.2c0.2,0,0.7,0.1,0.9,0.4c0.1,0.2,0.1,0.4,0.1,0.6c-0.2,0.5-0.9,0.7-1.2,0.8c-0.2,0-0.3,0-0.4,0
	C150.2,135.2,149.9,135,149.7,134.7z M155.1,136.7c0.1-0.2,0.2-0.2,0.4-0.2c0.1-0.1,0.1-0.1,0.2-0.1c0.4,0,0.7,0.2,0.9,0.6
	c0.2,0.3,0.2,0.8-0.1,1.1c-0.2,0.1-0.4,0.2-0.6,0.2c-0.2,0-0.5-0.2-0.7-0.3c-0.2-0.2-0.3-0.4-0.3-0.6c0-0.2,0.1-0.3,0.2-0.5
	C155.1,136.8,155.1,136.8,155.1,136.7z M148.8,139.6c0.2-0.1,0.3-0.1,0.4-0.1c0.4,0,0.7,0.2,0.8,0.5c0.2,0.4,0.2,0.8-0.2,1.1
	c-0.2,0.3-0.5,0.5-0.8,0.5c-0.2,0-0.6-0.2-0.7-0.4c-0.2-0.2-0.3-0.5-0.2-0.7c0-0.4,0.2-0.6,0.6-0.8
	C148.7,139.6,148.7,139.6,148.8,139.6z M161,132.4c0.2,0,0.3,0.1,0.4,0.2c0.2,0.3,0.2,0.7,0,1.1c-0.2,0.2-0.5,0.4-0.7,0.4
	c-0.1,0-0.2,0-0.3-0.1c-0.2-0.2-0.4-0.3-0.4-0.6c-0.1-0.2,0-0.5,0.2-0.6c0.2-0.2,0.3-0.3,0.6-0.3C160.8,132.5,160.9,132.4,161,132.4
	z M161.1,133.5c0.2-0.2,0.2-0.5,0-0.6c-0.1,0-0.1,0-0.1,0c-0.1,0-0.1,0-0.2,0.1c-0.2,0-0.3,0.1-0.4,0.2c-0.2,0.2-0.2,0.5,0.1,0.6
	c0.1,0.1,0.1,0.1,0.2,0.1C160.9,133.7,161,133.6,161.1,133.5z M151,134.8c0.3-0.1,0.7-0.2,0.9-0.6c0.2-0.4-0.3-0.5-0.6-0.5
	c-0.1,0-0.1,0-0.1,0c-0.3-0.1-0.5-0.2-0.7-0.2c-0.1,0-0.2,0-0.2,0c-0.5,0.1-0.6,0.6-0.3,0.9c0.2,0.2,0.4,0.3,0.7,0.3
	C150.8,134.8,150.9,134.8,151,134.8z M156.3,137.8c0.2-0.2,0.2-0.4,0.1-0.6c-0.1-0.2-0.3-0.3-0.6-0.3c-0.1,0-0.1,0-0.2,0.1
	c-0.2,0-0.2,0.1-0.1,0.2c-0.2,0.2-0.2,0.5-0.1,0.6c0.2,0.2,0.3,0.2,0.5,0.2S156.2,137.9,156.3,137.8z M149.5,140.9
	c0.2-0.2,0.2-0.5,0.2-0.7c-0.1-0.2-0.3-0.2-0.5-0.2c-0.1,0-0.2,0-0.2,0c-0.1,0.1-0.1,0.1-0.2,0.1c-0.2,0.1-0.3,0.2-0.3,0.5
	c-0.1,0.4,0.2,0.7,0.6,0.7C149.3,141.2,149.4,141.1,149.5,140.9z"/>
<path class="st5" d="M198.1,126.8c-0.2,0.1-0.3,0.2-0.5,0.3c-0.8,0.2-1.6,0.3-2.4,0.3c-1-0.1-1.9-0.4-2.8-0.6
	c-0.6-0.1-2.7,0-2.3,1.4c0.3,0.8,1.6,1,2.5,1c-0.4,0.2-0.9,0.4-1.4,0.6c-1.1,0.6-1.9,1.5-2.7,2.4c-0.7,0.2-1.5,0.5-2.2,0.5
	c-0.6,0-1-0.3-1.6-0.6c-0.5-0.2-1.1-0.2-0.9,0.6c0.2,0.8,1.4,0.9,2,0.9c0.5,0,1,0,1.5-0.1c-0.6,0.6-1.2,0.9-1.9,1
	c-2.2,0.3-3.8-1.5-3.7-3.7c-2.3,1.7-5.1,1-6.9-0.8c-0.8-0.9-1.2-1.9-1.1-3.1c1.2,1.3,3.3,3.1,4.3,1.5c0.5-0.7-0.5-1.3-1-1.5
	c-1-0.6-2.1-0.9-3-1.5c0.3-1.3,0.6-2.6,1.1-3.9c0.5-1.3,1-2.6,1.9-3.6c0.1,1.9,0.2,3.8,0.8,5.6c0.2,0.6,0.6,1.9,1.4,1.2
	c1-1-0.1-2.9-0.5-3.9c-0.6-1.5-0.6-3-0.4-4.5c0.4-0.4,0.9-0.8,1.4-1.2c1.5-1,3.3-1.7,5.1-2c-0.2,0.5-0.4,1-0.6,1.5
	c-0.4,1.1-1,2.7-0.7,4c0.2,0.6,1,1.4,1.5,0.5c0.2-0.5,0-1.3,0.1-1.9c0.2-1.5,1-3.1,1.6-4.4c0.1-0.1,0.1-0.1,0.1-0.1
	c0.3-0.1,0.5-0.1,0.7-0.1c1.4-0.2,3-0.2,4.4,0c-0.8,0.6-1.5,1.6-1.4,2.7c0,0.9,0.6,2,1.6,1.8c1.4-0.4,1.7-2.7,1.4-4.1
	c1,0.2,1.9,0.5,2.7,0.9c1.3,0.6,2.2,1.6,2.7,2.7c-1.1,1.5-2.6,2.4-4.1,3.4c-0.3,0.2-1.5,1-0.8,1.5c0.6,0.5,1.8-0.6,2.3-1
	c1.1-0.9,1.9-2.2,2.8-3.4c0.3,0.8,0.5,1.6,0.6,2.6c0.1,1,0.1,2.3-0.1,3.6c-1.6-0.1-3.3-1.5-4.8-0.2c-0.2,0.1-0.1,0.2,0,0.3
	c0.8,0.6,2.2,0.5,3.1,0.6c0.5,0.1,0.9,0.1,1.4,0.2C199.2,125.3,198.8,126.2,198.1,126.8z M183.5,124.2c0.1-0.5-0.1-1-0.4-1.4
	c-0.2-0.2-0.3-0.2-0.6-0.2c-0.2,0.1-0.4,0.4-0.5,0.6c0,0.1,0,0.1,0,0.1c-0.2,0.4-0.2,0.7-0.2,1.1c0,0.4,0.2,0.9,0.6,0.9
	C183,125.3,183.4,124.6,183.5,124.2z M188.9,120.4c0.5-0.3,0.6-0.9,0.4-1.4c-0.2-0.5-0.6-0.6-1-0.2c-0.1,0-0.1,0-0.1,0
	c-0.4,0.3-0.6,0.9-0.3,1.4C188,120.6,188.5,120.8,188.9,120.4z M185.7,128.7c-0.2,0.1-0.1,0.2-0.1,0.2c-0.1,0.4-0.1,0.9,0.2,1.1
	c0.4,0.4,1,0.2,1.2-0.2C187.5,128.9,186.4,128,185.7,128.7z"/>
<path d="M177.1,137.3c0.1-0.1,0.1-0.2,0.2-0.3c1.9-3.9,4.6-7.2,8-9.9c0.3-0.2,0.9,0.2,0.5,0.6c-3.3,2.6-6,5.9-7.8,9.7
	c-0.1,0.2-0.2,0.4-0.2,0.6c-0.4,0.8-0.7,1.5-1,2.3c-0.2,0-0.5,0-0.7,0C176.3,139.2,176.6,138.2,177.1,137.3z"/>
<path d="M172.5,137.1c0.3-1.6,0.6-3.2,0.9-4.8c1-4.2,2-8.4,3.1-12.5c1-3.5,2.1-7,4.2-9.9c0.3-0.4,1,0,0.6,0.3
	c-2.3,3.1-3.3,6.8-4.3,10.4c-1,3.7-1.9,7.4-2.8,11.2c-0.4,1.8-0.7,3.5-1,5.3c-0.2,1.1-0.3,2.1-0.5,3.1c-0.3,0-0.5,0-0.7,0
	C172.1,139.2,172.2,138.2,172.5,137.1z"/>
<path d="M163.7,122.8c1.1,2.3,2,4.6,2.7,6.9c0.1,0.4,0.2,0.8,0.3,1.2c0.5,2.1,1,4.2,1.4,6.4c0.2,1,0.3,1.9,0.4,2.9
	c-0.3,0-0.5,0-0.8-0.1c-0.1-0.9-0.2-1.9-0.4-2.8c-0.3-2.4-0.8-4.8-1.5-7.1c-0.1-0.3-0.2-0.6-0.2-0.9c-0.6-2.1-1.5-4.1-2.5-6.1
	C162.9,122.7,163.5,122.4,163.7,122.8z"/>
<path d="M155.8,134c1.3-0.9,2.7-1.8,4-2.7c1-0.7,2.1-1.5,3.2-2c0.8-0.3,1.7-0.3,2.5,0c0.3,0.1,0.6,0.2,0.9,0.4
	c0.3,0.2,0.6,0.5,1,0.8c1.6,1.7,2.3,4.1,2.7,6.7c0.1,1,0.2,2,0.2,3.1c-0.3-0.1-0.5-0.1-0.7-0.1c-0.1-1-0.2-2-0.2-3
	c-0.2-1.9-0.7-3.6-1.6-5.1c-0.2-0.4-0.6-0.9-1-1.2c-0.3-0.3-0.6-0.6-1-0.7c-0.1-0.1-0.2-0.1-0.4-0.2c-1.3-0.5-2.3,0-3.5,0.7
	c-1.9,1.3-3.8,2.6-5.7,3.9C155.8,134.9,155.4,134.2,155.8,134z"/>
<path d="M170.8,176.4h-52.4c-1.4,0-2.6-1.2-2.6-2.7v-37.1c0-1.4,1.2-2.6,2.6-2.6h52.4c1.5,0,2.6,1.2,2.6,2.6v37.1
	C173.3,175.1,172.2,176.4,170.8,176.4z"/>
<path class="st6" d="M116.1,176.5c-1.5,0-2.8-1.2-2.8-2.8v-37.1c0-1.5,1.3-2.7,2.8-2.7h52.4c1.5,0,2.7,1.2,2.7,2.7v37.1
	c0,1.6-1.2,2.8-2.7,2.8H116.1z"/>
<path class="st4" d="M171.5,136.6v37.1c0,1.7-1.4,3.1-3,3.1h-52.4c-1.6,0-3-1.4-3-3.1v-37.1c0-1.6,1.4-3,3-3h52.4
	C170.1,133.7,171.5,135,171.5,136.6z M116.1,134.1c-1.5,0-2.6,1.2-2.6,2.6v37.1c0,1.5,1.1,2.7,2.6,2.7h52.4c1.4,0,2.6-1.2,2.6-2.7
	v-37.1c0-1.4-1.2-2.6-2.6-2.6H116.1z"/>
<path class="st2" d="M123.2,176.4h-0.5v-33.9h0.5V176.4z"/>
<path class="st2" d="M171.1,151.9h-57.6v-0.5h57.6V151.9z"/>
<path class="st2" d="M171.1,160.2h-57.6v-0.5h57.6V160.2z"/>
<path class="st2" d="M171.1,168.4h-57.6V168h57.6V168.4z"/>
<path class="st2" d="M132.7,176.4h-0.4v-33.9h0.4V176.4z"/>
<path class="st2" d="M142.4,176.4h-0.5v-33.9h0.5V176.4z"/>
<path class="st2" d="M152,176.4h-0.4v-33.9h0.4V176.4z"/>
<path class="st2" d="M161.7,176.4h-0.5v-33.9h0.5V176.4z"/>
<path d="M136.2,158.2h-0.8v-3.1c-0.3,0.3-0.7,0.5-1,0.6V155c0.2-0.1,0.4-0.2,0.6-0.4c0.3-0.2,0.5-0.5,0.6-0.7h0.6V158.2z"/>
<path class="st4" d="M140.2,155l-0.8,0.1c0-0.2-0.1-0.3-0.2-0.4c-0.1-0.1-0.1-0.1-0.2-0.1c-0.2,0-0.4,0.1-0.5,0.2
	c-0.1,0.1-0.2,0.4-0.2,1c0.2-0.3,0.5-0.4,0.8-0.4c0.3,0,0.6,0.1,0.9,0.4c0.2,0.3,0.3,0.6,0.3,1c0,0.4-0.1,0.8-0.4,1
	c-0.2,0.3-0.5,0.4-1,0.4c-0.4,0-0.8-0.2-1-0.5c-0.3-0.4-0.4-0.9-0.4-1.7c0-0.8,0.1-1.4,0.4-1.7c0.3-0.4,0.6-0.6,1.1-0.6
	c0.3,0,0.6,0.1,0.8,0.3C140.1,154.4,140.2,154.6,140.2,155z M138.4,156.8c0,0.3,0.1,0.5,0.2,0.6c0.2,0.1,0.3,0.2,0.5,0.2
	c0.1,0,0.2-0.1,0.3-0.2c0.1-0.1,0.2-0.3,0.2-0.6c0-0.3-0.1-0.5-0.2-0.6c-0.1-0.1-0.2-0.2-0.4-0.2c-0.2,0-0.3,0.1-0.4,0.2
	C138.4,156.3,138.4,156.5,138.4,156.8z"/>
<path class="st11" d="M155.3,158.2h-0.8v-3.1c-0.3,0.3-0.7,0.5-1,0.6V155c0.2-0.1,0.4-0.2,0.6-0.4c0.3-0.2,0.5-0.5,0.6-0.7h0.6
	V158.2z"/>
<path class="st3" d="M157.2,155.9c-0.2-0.1-0.3-0.2-0.4-0.4c-0.1-0.1-0.2-0.3-0.2-0.5c0-0.3,0.1-0.6,0.3-0.8c0.2-0.2,0.5-0.3,1-0.3
	c0.4,0,0.7,0.1,1,0.3c0.2,0.2,0.3,0.5,0.3,0.8c0,0.2-0.1,0.4-0.2,0.6c-0.1,0.2-0.2,0.3-0.4,0.3c0.2,0.1,0.4,0.2,0.5,0.4
	c0.2,0.2,0.2,0.4,0.2,0.6c0,0.4-0.1,0.8-0.4,1c-0.3,0.3-0.6,0.4-1,0.4c-0.4,0-0.7-0.1-1-0.3c-0.3-0.2-0.5-0.5-0.5-1
	c0-0.3,0.1-0.5,0.2-0.6C156.9,156.2,157,156,157.2,155.9z M157.4,156.9c0,0.2,0.1,0.4,0.2,0.5c0.1,0.2,0.2,0.2,0.4,0.2
	c0.2,0,0.3-0.1,0.4-0.2c0.1-0.1,0.2-0.3,0.2-0.5s-0.1-0.4-0.2-0.5c-0.1-0.2-0.2-0.2-0.4-0.2c-0.2,0-0.4,0.1-0.5,0.2
	C157.4,156.6,157.4,156.8,157.4,156.9z M157.5,155.1c0,0.2,0,0.3,0.1,0.4c0.1,0.1,0.2,0.1,0.4,0.1c0.2,0,0.3-0.1,0.4-0.2
	c0.1-0.1,0.1-0.2,0.1-0.3c0-0.2,0-0.3-0.1-0.4c-0.1-0.1-0.2-0.2-0.4-0.2c-0.2,0-0.3,0.1-0.4,0.2
	C157.5,154.8,157.5,154.9,157.5,155.1z"/>
<path class="st11" d="M146.7,165.9v0.7h-2.9c0-0.3,0.1-0.5,0.2-0.8c0.2-0.3,0.5-0.6,1-1c0.4-0.3,0.6-0.5,0.6-0.6
	c0.1-0.2,0.2-0.4,0.2-0.6c0-0.2,0-0.3-0.1-0.4c-0.1-0.1-0.2-0.2-0.4-0.2c-0.2,0-0.4,0.1-0.5,0.2c-0.1,0.1-0.1,0.3-0.2,0.6l-0.8-0.2
	c0.1-0.4,0.2-0.8,0.5-1c0.3-0.2,0.6-0.2,1-0.2c0.4,0,0.8,0.1,1,0.3c0.3,0.2,0.4,0.5,0.4,0.9c0,0.2-0.1,0.3-0.2,0.5
	c-0.1,0.2-0.2,0.4-0.3,0.6c-0.1,0.2-0.2,0.3-0.5,0.6c-0.3,0.3-0.4,0.4-0.5,0.5c-0.1,0.1-0.2,0.1-0.2,0.2H146.7z"/>
<path class="st11" d="M147.2,165.5l0.8-0.1c0.1,0.2,0.1,0.4,0.2,0.5c0.1,0.1,0.2,0.2,0.4,0.2c0.2,0,0.3-0.1,0.4-0.2
	c0.1-0.1,0.2-0.3,0.2-0.5c0-0.2-0.1-0.4-0.2-0.5c-0.1-0.2-0.2-0.2-0.4-0.2c-0.1,0-0.2,0-0.3,0.1l0.1-0.6c0.2,0,0.4-0.1,0.5-0.2
	c0.1-0.1,0.2-0.2,0.2-0.4c0-0.2,0-0.3-0.1-0.3c-0.1-0.1-0.2-0.2-0.4-0.2c-0.1,0-0.2,0.1-0.3,0.2c-0.1,0.1-0.2,0.2-0.2,0.4l-0.8-0.1
	c0.1-0.3,0.1-0.5,0.2-0.6c0.1-0.2,0.3-0.3,0.5-0.4c0.2-0.1,0.4-0.1,0.6-0.1c0.4,0,0.7,0.1,1,0.3c0.2,0.2,0.2,0.5,0.2,0.7
	c0,0.4-0.2,0.7-0.6,1c0.2,0.1,0.4,0.2,0.6,0.3c0.2,0.2,0.2,0.4,0.2,0.6c0,0.4-0.1,0.7-0.4,1c-0.3,0.3-0.6,0.4-1,0.4
	c-0.4,0-0.7-0.1-1-0.3C147.4,166.1,147.2,165.9,147.2,165.5z"/>
<path d="M127.4,173.6v0.7h-2.9c0.1-0.3,0.2-0.5,0.3-0.8c0.2-0.3,0.5-0.6,0.9-1c0.4-0.3,0.6-0.6,0.7-0.7c0.1-0.2,0.2-0.3,0.2-0.5
	c0-0.2-0.1-0.3-0.2-0.4c-0.1-0.1-0.2-0.2-0.4-0.2c-0.2,0-0.3,0.1-0.4,0.2c-0.1,0.1-0.2,0.3-0.2,0.5l-0.9-0.1c0.1-0.4,0.2-0.8,0.5-1
	c0.3-0.2,0.6-0.2,1-0.2c0.4,0,0.8,0.1,1,0.3c0.2,0.2,0.3,0.5,0.3,0.9c0,0.2,0,0.3-0.1,0.5c-0.1,0.2-0.2,0.4-0.3,0.6
	c-0.1,0.2-0.3,0.3-0.6,0.6c-0.3,0.2-0.4,0.4-0.5,0.5c-0.1,0.1-0.1,0.1-0.2,0.2H127.4z"/>
<path d="M128,170.9v-0.7h2.8v0.6c-0.2,0.2-0.5,0.5-0.7,1c-0.2,0.4-0.4,0.9-0.5,1.4c-0.2,0.5-0.2,0.9-0.2,1.3h-0.8
	c0.1-0.6,0.2-1.2,0.4-1.8c0.2-0.6,0.5-1.2,0.9-1.7H128z"/>
<path class="st2" d="M117.3,158.2h-0.9v-3.1c-0.3,0.3-0.6,0.5-1,0.6V155c0.2-0.1,0.5-0.2,0.7-0.4c0.2-0.2,0.4-0.5,0.5-0.7h0.7V158.2
	z"/>
<path class="st5" d="M120.1,158.2v-0.9h-1.8v-0.7l1.9-2.7h0.7v2.7h0.6v0.7h-0.6v0.9H120.1z M120.1,156.6v-1.4l-1,1.4H120.1z"/>
<path class="st2" d="M171.1,143.3h-57.6v-6.7c0-1.4,1.1-2.6,2.6-2.6h52.4c1.4,0,2.6,1.2,2.6,2.6V143.3z"/>
<path class="st11" d="M124.9,176.5c0,0.3-0.2,0.5-0.5,0.5l-3.5,0.1h-16c-0.3,0-0.5-0.2-0.5-0.5v-1.7c0-0.3,0.2-0.5,0.4-0.5l1.7-0.1
	h14.3h3.5c0.1,0,0.1,0,0.2,0c0.2,0.1,0.3,0.2,0.3,0.5V176.5z"/>
<path class="st4" d="M105,177.2c-0.3,0-0.6-0.2-0.6-0.6l-0.1-1.7c0-0.3,0.3-0.6,0.6-0.6h19.6c0.1,0,0.1,0,0.2,0
	c0.2,0.1,0.4,0.3,0.4,0.6v1.7c0,0.3-0.2,0.6-0.6,0.6H105z M124.5,174.3l-19.5,0.1c-0.2,0-0.4,0.2-0.4,0.4v1.7c0,0.2,0.2,0.4,0.4,0.4
	h19.5c0.2,0,0.4-0.2,0.4-0.4v-1.8c0-0.2-0.1-0.3-0.2-0.4C124.6,174.3,124.5,174.3,124.5,174.3z"/>
<path class="st11" d="M126.8,173.9c0,0.2-0.2,0.5-0.5,0.5h-1.7H121l-14.3,0.1c-0.1,0-0.1,0-0.2-0.1c-0.2,0-0.3-0.2-0.3-0.4v-1.8
	c0-0.2,0.2-0.5,0.5-0.5h13h6.6c0.2-0.1,0.5,0.2,0.5,0.4V173.9z"/>
<path class="st4" d="M106.7,174.5c-0.1,0-0.1,0-0.2-0.1c-0.2-0.1-0.4-0.2-0.4-0.5v-1.8c0-0.2,0.1-0.3,0.2-0.4
	c0.1-0.1,0.2-0.2,0.4-0.2l19.6-0.1c0.1,0,0.2,0.1,0.4,0.2c0.1,0.2,0.2,0.3,0.2,0.4v1.8c0,0.3-0.2,0.6-0.6,0.6L106.7,174.5z
	 M126.2,171.8l-19.5,0.1c-0.1,0-0.2,0-0.3,0.1c-0.1,0.1-0.1,0.1-0.1,0.2v1.8c0,0.2,0.1,0.3,0.2,0.4c0.1,0,0.1,0,0.2,0l19.5-0.1
	c0.2,0,0.4-0.2,0.4-0.4v-1.7c0-0.1-0.1-0.2-0.2-0.3C126.4,171.8,126.3,171.8,126.2,171.8z"/>
<path class="st11" d="M125.5,171.1c0,0.3-0.2,0.5-0.5,0.6h-5.3h-14.3c-0.2,0-0.5-0.2-0.5-0.5v-1.7c0-0.2,0.2-0.4,0.3-0.5
	c0.1,0,0.1,0,0.2,0l11.6-0.1h6.7h1.3c0.2,0,0.5,0.2,0.5,0.5V171.1z"/>
<path class="st4" d="M105.4,171.8c-0.2,0-0.6-0.2-0.6-0.6v-1.7c0-0.2,0.2-0.5,0.4-0.6c0.1-0.1,0.1-0.1,0.2,0l19.6-0.1
	c0.2,0,0.6,0.2,0.6,0.6v1.7c0,0.2-0.1,0.3-0.2,0.4c-0.1,0.2-0.2,0.2-0.4,0.2H105.4z M124.9,168.9l-19.5,0.1c-0.1,0-0.1,0-0.2,0
	c-0.2,0.1-0.2,0.2-0.2,0.4v1.8c0,0.2,0.2,0.3,0.4,0.3h14.2h0.1h5.2c0.2,0,0.4-0.2,0.4-0.4v-1.8C125.3,169.1,125.2,168.9,124.9,168.9
	z"/>
<path class="st11" d="M124.9,160.4c0,0.2-0.2,0.5-0.5,0.5H121h-16c-0.3,0-0.5-0.2-0.5-0.5v-1.7c0-0.3,0.2-0.5,0.4-0.5h1.7l14.3-0.1
	h3.5c0.1,0,0.1,0,0.2,0c0.2,0.1,0.3,0.2,0.3,0.5V160.4z"/>
<path class="st4" d="M105,161c-0.3,0-0.6-0.2-0.6-0.6l-0.1-1.7c0-0.3,0.3-0.6,0.6-0.6l19.6-0.1c0.1,0,0.1,0,0.2,0
	c0.2,0.1,0.4,0.3,0.4,0.6v1.8c0,0.2-0.2,0.6-0.6,0.6H105z M124.5,158.1l-19.5,0.1c-0.2,0-0.4,0.2-0.4,0.4v1.8c0,0.2,0.2,0.3,0.4,0.3
	h19.5c0.2,0,0.4-0.2,0.4-0.4v-1.8c0-0.2-0.1-0.3-0.2-0.3C124.6,158.2,124.5,158.1,124.5,158.1z"/>
<path class="st11" d="M126.8,157.7c0,0.3-0.2,0.5-0.5,0.5h-1.7H121l-14.3,0.1c-0.1,0-0.1,0-0.2,0c-0.2-0.1-0.3-0.2-0.3-0.5V156
	c0-0.2,0.2-0.5,0.5-0.5h13h6.6c0.2,0,0.5,0.2,0.5,0.5V157.7z"/>
<path class="st4" d="M106.7,158.3c-0.1,0-0.1,0-0.2,0c-0.2-0.2-0.4-0.3-0.4-0.6V156c0-0.2,0.1-0.3,0.2-0.4c0.1-0.1,0.2-0.2,0.4-0.2
	h19.6c0.1,0,0.2,0.1,0.4,0.2c0.1,0.1,0.2,0.2,0.2,0.4v1.7c0,0.3-0.2,0.6-0.6,0.6L106.7,158.3z M126.2,155.6l-19.5,0.1
	c-0.1,0-0.2,0-0.3,0.1c-0.1,0.1-0.1,0.2-0.1,0.3v1.7c0,0.2,0.1,0.3,0.2,0.4c0.1,0,0.1,0,0.2,0l19.5-0.1c0.2,0,0.4-0.2,0.4-0.4V156
	c0-0.1-0.1-0.2-0.2-0.3C126.4,155.6,126.3,155.6,126.2,155.6z"/>
<path class="st11" d="M125.5,155c0,0.2-0.2,0.5-0.5,0.5h-5.3h-14.3c-0.2,0-0.5-0.2-0.5-0.5v-1.7c0-0.2,0.2-0.4,0.3-0.5
	c0.1,0,0.1,0,0.2,0l11.6-0.1h6.7h1.3c0.2,0,0.5,0.2,0.5,0.5V155z"/>
<path class="st4" d="M105.4,155.6c-0.2,0-0.6-0.2-0.6-0.6v-1.7c0-0.2,0.2-0.5,0.4-0.6c0.1,0,0.1,0,0.2,0l19.6-0.1
	c0.2,0,0.6,0.2,0.6,0.6v1.8c0,0.1-0.1,0.2-0.2,0.4c-0.1,0.1-0.2,0.2-0.4,0.2H105.4z M124.9,152.7l-19.5,0.1c-0.1,0-0.1,0-0.2,0
	c-0.2,0.1-0.2,0.2-0.2,0.4v1.8c0,0.2,0.2,0.4,0.4,0.4l14.2-0.1h0.1h5.2c0.2,0,0.4-0.2,0.4-0.4v-1.8
	C125.3,152.9,125.2,152.7,124.9,152.7z"/>
<path class="st11" d="M124,168.5c0,0.2-0.2,0.4-0.3,0.5c-0.1,0-0.1,0-0.2,0H117l-11.8,0.1h-1.2c-0.3,0-0.5-0.2-0.5-0.5v-1.8
	c0-0.2,0.2-0.5,0.5-0.5h2.6h11.8h5.1c0.1,0,0.1,0,0.1,0c0.2,0,0.4,0.2,0.4,0.5V168.5z"/>
<path class="st4" d="M104.1,169.1c-0.3,0-0.6-0.2-0.6-0.6v-1.8c0-0.3,0.2-0.6,0.6-0.6h14.5l5-0.1c0.1,0,0.1,0,0.1,0.1
	c0.3,0,0.5,0.2,0.5,0.6v1.7c0,0.2-0.2,0.5-0.4,0.6c-0.1,0-0.1,0-0.2,0L104.1,169.1z M118.5,166.4l-14.4,0.1c-0.2,0-0.4,0.2-0.4,0.4
	v1.7c0,0.2,0.2,0.4,0.4,0.4l19.5-0.1c0.1,0,0.1,0,0.2,0c0.2-0.1,0.2-0.2,0.2-0.4v-1.7c0-0.2-0.2-0.4-0.3-0.4c0,0,0,0-0.1,0H118.5
	L118.5,166.4z"/>
<path class="st11" d="M126.8,165.8c0,0.2-0.2,0.5-0.5,0.5h-2.7h-5.2h-11.8c0,0,0,0-0.1,0c-0.2,0-0.3-0.2-0.4-0.5v-1.7
	c0-0.2,0.2-0.5,0.4-0.5c0.1,0,0.1,0,0.1,0l11.2-0.1h8.4c0,0,0,0,0.1,0c0.2,0.1,0.4,0.2,0.4,0.5V165.8z"/>
<path class="st4" d="M106.7,166.4C106.7,166.4,106.7,166.4,106.7,166.4c-0.3,0-0.6-0.2-0.6-0.6v-1.7c0-0.3,0.2-0.5,0.5-0.6
	c0,0,0,0,0.1,0l19.6-0.1c0.1,0,0.1,0,0.1,0c0.3,0.1,0.5,0.3,0.5,0.6v1.8c0,0.2-0.2,0.6-0.6,0.6H106.7z M126.2,163.5l-19.5,0.1
	c-0.1,0-0.1,0-0.1,0c-0.2,0.1-0.3,0.2-0.3,0.4v1.8c0,0.2,0.1,0.3,0.3,0.3c0,0.1,0,0.1,0.1,0.1l19.5-0.1c0.2,0,0.4-0.2,0.4-0.4v-1.8
	C126.6,163.8,126.5,163.6,126.2,163.5C126.3,163.5,126.3,163.5,126.2,163.5z"/>
<path class="st11" d="M126.8,163.1c0,0.2-0.2,0.4-0.4,0.5c0,0,0,0-0.1,0l-8.4,0.1h-11.2c0,0,0,0-0.1,0c-0.2-0.1-0.3-0.2-0.4-0.5
	v-1.8c0-0.2,0.2-0.5,0.5-0.5h2.1h6.7h10.8c0,0,0,0,0.1,0c0.2,0,0.4,0.2,0.4,0.5V163.1z"/>
<path class="st4" d="M106.7,163.7C106.7,163.7,106.7,163.7,106.7,163.7c-0.3-0.1-0.6-0.3-0.6-0.6v-1.8c0-0.2,0.1-0.3,0.2-0.4
	c0.1-0.1,0.2-0.2,0.4-0.2h19.6c0,0,0,0,0.1,0c0.2,0,0.5,0.2,0.5,0.6v1.7c0,0.3-0.2,0.5-0.5,0.6c0,0,0,0-0.1,0L106.7,163.7z
	 M126.2,161l-19.5,0.1c-0.1,0-0.2,0-0.3,0.1c-0.1,0.1-0.1,0.2-0.1,0.3v1.7c0,0.2,0.1,0.4,0.3,0.4c0,0,0,0,0.1,0l19.5-0.1
	c0.1,0,0.1,0,0.1,0c0.2,0,0.3-0.2,0.3-0.3v-1.8C126.6,161.1,126.5,161,126.2,161C126.3,161,126.2,161,126.2,161z"/>
<path class="st12" d="M140.2,174.8v1.8c0,0.2-0.2,0.6-0.6,0.6h-19.5c-0.2,0-0.3-0.1-0.4-0.2c-0.1-0.1-0.2-0.2-0.2-0.4v-1.7
	c0-0.2,0.1-0.3,0.2-0.4c0-0.1,0-0.1,0.1-0.1c-0.2-0.1-0.2-0.3-0.2-0.5v-1.8c0-0.2,0.1-0.3,0.2-0.4h-0.8c-0.3,0-0.6-0.2-0.6-0.6v-1.7
	c0-0.2,0.1-0.3,0.2-0.4h-2.3c-0.3,0-0.6-0.2-0.6-0.6v-1.8c0-0.2,0.1-0.3,0.2-0.4c0.1-0.1,0.2-0.2,0.4-0.2l19.5-0.1
	c0.2,0,0.3,0.1,0.4,0.2c0.1,0.1,0.2,0.2,0.2,0.4v1.8c0,0.2-0.1,0.3-0.2,0.4h2.3c0.3,0,0.6,0.2,0.6,0.6v1.8c0,0.2-0.1,0.3-0.2,0.4
	h0.8c0.2,0,0.3,0.1,0.4,0.2c0.1,0.1,0.2,0.2,0.2,0.4v1.7c0,0.2-0.1,0.3-0.2,0.4c0,0.1,0,0.1-0.1,0.1
	C140.1,174.4,140.2,174.6,140.2,174.8z"/>
<path class="st11" d="M142.1,177.1h-19.6c-0.2,0-0.5-0.2-0.5-0.5v-1.7c0-0.3,0.2-0.5,0.5-0.5l19.6-0.1c0.2,0,0.5,0.2,0.5,0.5v1.8
	C142.6,176.8,142.3,177.1,142.1,177.1z"/>
<path class="st4" d="M122.5,177.2c-0.2,0-0.3-0.1-0.4-0.2c-0.1-0.1-0.2-0.2-0.2-0.4v-1.7c0-0.2,0.1-0.3,0.2-0.4
	c0.1-0.1,0.2-0.2,0.4-0.2l19.6-0.1c0.2,0,0.6,0.2,0.6,0.6v1.8c0,0.2-0.2,0.6-0.6,0.6H122.5z M142.1,174.4l-19.6,0.1
	c-0.1,0-0.2,0-0.2,0.1c-0.1,0.1-0.2,0.2-0.2,0.3v1.7c0,0.1,0.1,0.2,0.2,0.3c0.1,0.1,0.1,0.1,0.2,0.1l19.6-0.1c0.2,0,0.4-0.2,0.4-0.3
	l-0.1-1.8C142.4,174.6,142.3,174.4,142.1,174.4z"/>
<path class="st11" d="M138.2,168.9l-19.6,0.1c-0.2,0-0.5-0.2-0.5-0.5v-1.8c0-0.2,0.2-0.5,0.5-0.5l19.6-0.1c0.2,0,0.5,0.2,0.5,0.5
	v1.8C138.6,168.7,138.4,168.9,138.2,168.9z"/>
<path class="st4" d="M118.6,169.1c-0.2,0-0.6-0.2-0.6-0.6v-1.8c0-0.2,0.1-0.3,0.2-0.4c0.1-0.1,0.2-0.2,0.4-0.2l19.6-0.1
	c0.2,0,0.3,0.1,0.4,0.2c0.1,0.1,0.2,0.2,0.2,0.4v1.8c0,0.2-0.1,0.3-0.2,0.4c-0.1,0.1-0.2,0.2-0.4,0.2L118.6,169.1z M138.2,166.3
	l-19.6,0.1c-0.1,0-0.2,0.1-0.2,0.2c-0.1,0.1-0.1,0.1-0.2,0.2l0.1,1.8c0,0.1,0,0.2,0.1,0.2c0.1,0.1,0.1,0.2,0.2,0.2l19.6-0.1
	c0.1,0,0.2,0,0.2-0.1c0.1-0.1,0.2-0.2,0.2-0.3v-1.8c0-0.1-0.1-0.2-0.2-0.2C138.3,166.3,138.3,166.3,138.2,166.3z"/>
<path class="st11" d="M142.1,174.3l-19.6,0.1c-0.2,0-0.5-0.2-0.5-0.5v-1.8c0-0.2,0.2-0.5,0.5-0.5h19.6c0.2,0,0.5,0.2,0.5,0.5v1.7
	C142.6,174.2,142.3,174.3,142.1,174.3z"/>
<path class="st4" d="M122.5,174.5c-0.3,0-0.6-0.2-0.6-0.6v-1.8c0-0.2,0.1-0.3,0.2-0.4c0.1-0.1,0.2-0.2,0.4-0.2h19.6
	c0.1,0,0.2,0.1,0.3,0.2c0.2,0.1,0.2,0.2,0.2,0.4v1.7c0,0.2-0.1,0.3-0.2,0.4c-0.1,0.1-0.2,0.2-0.4,0.2L122.5,174.5z M142.1,171.8
	h-19.6c-0.1,0-0.2,0.1-0.2,0.2c-0.1,0.1-0.2,0.1-0.2,0.2v1.8c0,0.1,0.1,0.2,0.2,0.3c0.1,0.1,0.1,0.1,0.2,0.1l19.6-0.1
	c0.1,0,0.2,0,0.2-0.1c0.1-0.1,0.1-0.2,0.2-0.3l-0.1-1.7c0-0.1,0-0.2-0.1-0.3C142.3,171.8,142.2,171.8,142.1,171.8z"/>
<path class="st11" d="M140.8,171.7h-19.5c-0.2,0-0.5-0.2-0.5-0.5v-1.7c0-0.3,0.2-0.5,0.5-0.5l19.5-0.1c0.3,0,0.5,0.2,0.5,0.5v1.8
	C141.3,171.4,141.1,171.7,140.8,171.7z"/>
<path class="st4" d="M121.3,171.8c-0.3,0-0.6-0.2-0.6-0.6v-1.7c0-0.2,0.1-0.3,0.2-0.4c0.1-0.1,0.2-0.2,0.4-0.2l19.5-0.1
	c0.3,0,0.6,0.2,0.6,0.6v1.8c0.1,0.2-0.2,0.6-0.6,0.6H121.3z M140.8,169l-19.5,0.1c-0.2,0-0.4,0.2-0.4,0.4v1.7c0,0.2,0.2,0.4,0.4,0.4
	h19.5c0.2,0,0.4-0.2,0.4-0.4v-1.8C141.2,169.2,141,169,140.8,169z"/>
<path d="M101.2,175.4c-2.6-2.4-3.2-7-1.3-11.1c1.9-4.1,5.9-6.4,9.4-6l0.2-0.2l1.8,0.8c3.9,1.9,5.2,7.4,2.9,12.2
	c-2.3,4.8-7.4,7.3-11.4,5.4l-1.8-0.8L101.2,175.4z"/>
<path class="st11" d="M109.5,158.1c3.9,1.9,5.2,7.3,2.9,12.2c-2.3,4.8-7.4,7.3-11.4,5.5c-3.9-1.9-5.2-7.4-2.9-12.3
	C100.5,158.5,105.5,156.1,109.5,158.1z"/>
<path class="st11" d="M108.7,159.6c3.2,1.5,4.3,6,2.4,10.1c-1.9,3.9-6,6-9.3,4.4c-3.3-1.5-4.3-6.1-2.5-10.1
	C101.3,160,105.4,158.1,108.7,159.6z"/>
<path class="st4" d="M106.8,170.2c-0.3,0.3-0.5,0.5-0.8,0.6c-0.3,0.1-0.7,0.2-1,0.2c-0.3,0-0.6,0-1-0.1l-0.5,1.4l-1-0.3l0.5-1.5
	c-0.3-0.2-0.6-0.4-0.8-0.6c-0.1-0.2-0.2-0.3-0.3-0.5c0,0,0,0-0.1-0.1c0-0.1,0-0.1,0-0.1c-0.1-0.1-0.1-0.2-0.2-0.2
	c-0.1-0.3-0.2-0.6-0.2-0.9c0-0.1,0-0.1,0-0.1c0-0.1,0-0.1,0-0.1s0,0,0-0.1c-0.1-0.4-0.1-0.7,0-1l1.1,0.3c0,0.3,0,0.5,0,0.7
	c0,0.2,0,0.3,0.1,0.6c0,0,0,0,0.1,0.1c0,0.1,0,0.1,0,0.2c0.1,0.1,0.1,0.2,0.2,0.4c0.1,0.2,0.2,0.3,0.4,0.4l0.2-0.6l0.1-0.1v-0.1
	l0.8-2.5c-0.3-0.2-0.5-0.5-0.7-0.7c-0.1-0.1-0.1-0.1-0.2-0.2c-0.1-0.1-0.1-0.2-0.2-0.2c-0.1-0.1-0.2-0.2-0.2-0.3
	c-0.2-0.3-0.3-0.5-0.3-0.8c0-0.2,0-0.4,0-0.6c0.1-0.1,0.1-0.2,0.1-0.3c0.1-0.2,0.2-0.4,0.3-0.6c0.1-0.1,0.1-0.1,0.2-0.2
	c0.2-0.2,0.5-0.4,0.7-0.5c0.3-0.2,0.6-0.2,0.9-0.2c0.3-0.1,0.6-0.1,1,0l0.3-1l1,0.4l-0.3,0.9c0.3,0.2,0.6,0.3,0.8,0.6
	c0.2,0.2,0.4,0.4,0.6,0.6c0.2,0.3,0.3,0.6,0.3,0.9c0.1,0.3,0.1,0.7,0,1l-1-0.4c0-0.4-0.1-0.7-0.2-1c-0.2-0.3-0.4-0.6-0.7-0.7l-1,3
	c0.2,0.2,0.4,0.3,0.6,0.5c0.2,0.2,0.3,0.3,0.5,0.5c0.2,0.2,0.3,0.3,0.5,0.6c0.1,0.2,0.2,0.3,0.2,0.6c0.1,0.2,0.1,0.4,0.1,0.6
	c0,0.2,0,0.4-0.1,0.6C107.3,169.7,107.1,170,106.8,170.2z M103.9,163.9c0,0.1,0,0.2,0.1,0.4c0.1,0.2,0.2,0.3,0.3,0.4
	c0.1,0.2,0.2,0.3,0.4,0.5l0.8-2.6c-0.4-0.1-0.8,0-1,0.2c-0.3,0.1-0.5,0.3-0.6,0.6C103.9,163.5,103.9,163.7,103.9,163.9z
	 M106.3,168.9c0.1-0.2,0.1-0.3,0-0.5c0-0.2-0.1-0.3-0.2-0.5c-0.1-0.2-0.2-0.3-0.4-0.5c-0.1-0.2-0.2-0.3-0.4-0.5l-1,2.9
	c0.2,0.1,0.4,0.1,0.6,0c0.2,0,0.4-0.1,0.6-0.2c0.2-0.1,0.4-0.2,0.5-0.3C106.1,169.3,106.2,169.1,106.3,168.9z"/>
<path class="st4" d="M102.8,174.6c-0.4-0.1-0.7-0.2-1-0.4c-1.6-0.7-2.7-2.3-3.1-4.2c-0.5-1.9-0.2-4,0.7-6c0.9-1.9,2.4-3.5,4.2-4.3
	c1.8-0.9,3.6-0.9,5.2-0.2c3.2,1.6,4.4,6.1,2.4,10.2c-1,1.9-2.4,3.5-4.2,4.4C105.5,174.7,104.1,174.9,102.8,174.6z M99.4,164
	c-0.9,1.9-1.1,4-0.6,6c0.4,1.9,1.5,3.3,3.1,4c1.5,0.7,3.3,0.7,5.1-0.2c1.7-0.8,3.2-2.3,4.1-4.3c1.9-3.9,0.8-8.4-2.3-9.9
	c-1.5-0.7-3.4-0.7-5.1,0.2C101.8,160.6,100.4,162.2,99.4,164z"/>
<path class="st11" d="M58.1,71.3c6.2,0.3,7.2,15.9,8.3,20.1c0.6,2.2,0.2,2.7,1.6,2.7c2.1,0.2,4.4-1.9,6.6-4.3
	c1.9-2.2,3.3-4.1,3.3-4.1l2.5,1c0.3,4.6-7.5,20.3-13.3,18.8C58.4,103.3,44.8,70.7,58.1,71.3z"/>
<path d="M55.1,89.2l4.5-8.2c0,0,0.3,3.5,1.3,15c0.6,2.3,5.2,7.3,6.5,7.4c2.1,0.1,6.1-1.9,8.3-4.3c-0.1,0.2-5,7.6-9.3,6.2
	C61.4,103.7,55.1,89.2,55.1,89.2z"/>
<path class="st6" d="M58.2,169l-0.7,4.3h-2.1l-1-4.8L58.2,169z"/>
<path class="st4" d="M57.6,173.5h-2.4l-1-5.2l4.3,0.5L57.6,173.5z M55.5,173.1h1.8l0.7-3.9l-3.4-0.4L55.5,173.1z"/>
<path d="M66.4,104.2c0,0,1.6,16.3-1.4,35.3c-2.3,14-6.4,30.6-6.4,30.6l-4.1,0.3c0,0-1.6-20.1-2.4-32c-0.7-11.3-3.9-32.9-3.9-32.9
	L66.4,104.2z"/>
<path d="M60.8,102c0,0-0.3,9.4-1.9,25.4c-1.6,16.6-5.2,36.1-5.2,36.1s-1.3-20.4-2.1-29.2C51,127,48,105.5,48,105.5L60.8,102z"/>
<path d="M57.7,171.9c0,0,9,0,10.8,4.6h-11l-1.2-1l-1,1h-1.6c0,0-1.2-3.2,1.4-4.4C55.1,172.1,56.1,173,57.7,171.9z"/>
<path class="st6" d="M38.8,169.3l-1.6,4.2h-2l-0.1-4.7L38.8,169.3z"/>
<path class="st4" d="M37.3,173.7H35l-0.1-5l4.2,0.5L37.3,173.7z M35.4,173.3H37l1.5-3.8l-3.2-0.4V173.3z"/>
<path d="M55.9,105.3c0,0,1.1,14.9-3.1,36c-2.4,12.3-14,28-14,28h-3.6c0,0,4.9-13.3,4.5-30.5c-0.3-14.4-6.3-25.2-4.1-31.5
	C36.6,104.2,55.9,105.3,55.9,105.3z"/>
<path d="M34.4,170.3c-0.7-0.2,0-0.7,0-0.7s-0.6-0.2-0.2-1c0.3-0.7,6-0.2,6,0c0.1,0.3-0.1,0.9-0.1,0.9c0.3,0.9-0.5,1.2-0.5,1.2
	C37.7,171.1,35.1,170.5,34.4,170.3z"/>
<path d="M53.8,170.6c-0.7-0.2,0-0.7,0-0.7s-0.6-0.2-0.2-1c0.3-0.8,6-0.2,6,0c0.1,0.2-0.1,0.9-0.1,0.9c0.3,0.8-0.5,1.1-0.5,1.1
	C57.1,171.5,54.5,170.9,53.8,170.6z"/>
<path class="st11" d="M68.5,106c0,0-11.4,5.7-34.2,1.6c0,0-0.1-40,21-37.1C70.7,72.6,61.1,91.5,68.5,106z"/>
<path class="st6" d="M57.4,70.9c0,0,0.2,1.8-0.8,3.5c-1.4-1.9-3.2-3.1-4.8-4c0,0,0.8-2.3,0.1-4.7l4.5,1
	C56.4,66.8,55.7,68.7,57.4,70.9z"/>
<path class="st4" d="M56.5,74.8l-0.2-0.2c-1.4-1.9-3.1-3-4.7-3.9l-0.2-0.1l0.1-0.2c0,0,0.7-2.2,0.1-4.5l-0.1-0.4l5,1.3l-0.1,0.2
	c0,0-0.6,1.9,1,3.9l0.1,0.1v0.1c0,0.1,0.2,1.9-0.9,3.6L56.5,74.8z M52,70.3c1.5,1,3.1,2.1,4.4,3.8c0.7-1.4,0.7-2.8,0.7-3.1
	c-1.4-1.8-1.1-3.4-1-3.9l-3.9-1C52.7,68,52.2,69.8,52,70.3z"/>
<path class="st6" d="M57.6,61c1.4,3,0.6,6.2-1.4,7.2c-2.2,0.9-5-0.7-6.3-3.8c-1.4-3-0.6-6.2,1.4-7.1C53.5,56.3,56.3,58,57.6,61z"/>
<path class="st4" d="M54.9,68.7c-0.7,0-1.5-0.2-2.3-0.7c-1.3-0.7-2.3-1.9-3-3.5c-1.3-3.1-0.6-6.4,1.6-7.4c2.3-1,5.2,0.7,6.6,3.9
	c1.3,3.1,0.6,6.4-1.6,7.4C55.8,68.5,55.3,68.7,54.9,68.7z M51.4,57.5c-2,0.9-2.7,3.9-1.4,6.8c0.6,1.4,1.6,2.6,2.7,3.3
	c1.1,0.6,2.3,0.8,3.3,0.4c2-1,2.7-4,1.4-6.9C56.1,58.2,53.5,56.6,51.4,57.5z"/>
<path class="st13" d="M55.9,58.6c0,0,0.9,0.9,1.1,1.4c0,0-1.4,0.7-3.1,0c-2.6-1-4.5,1-4.5,1l-0.2-1.9l5.7-2.5L55.9,58.6z"/>
<path d="M36.6,61.2c0.6-0.2,1.4-0.2,1.9-0.5c1.6-0.8,1-1.3,1.5-2.4c0.3-0.7,1-1.3,1.7-1.6c1.9-0.9,3.9,0,5.2,1.4
	c0.9-1.2,2.7-2.7,6.2-2.9c1.3-0.1,5.2,3.2,4.4,3.9c-1.1,0.9-2.3,0.8-3.5,0.4c-1.2-0.3-2.7-0.2-2.8,1.1C51.1,61.8,50,62,50,62
	c-0.4,1.4,2.6,4.7,0.1,5.2c-1.6,0.4-2.1-0.9-2.7-1.5c-0.4-0.4-0.8-1.5-1-2.8c-0.6,0.8-1.4,1.5-2.2,2.3c-0.8,0.7-1.6,1.4-1.3,2.5
	c0.2,0.6,0.7,1.1,1,1.8c0.3,1,0.6,2.1,0.5,3.1c-0.2,2.1-2.1,2.7-3.9,2c-0.8-0.3-1.5-0.8-2-1.5c-0.8-1-0.8-1.9-2.3-2.7
	c-0.4-0.2-0.9-0.2-1.3-0.3C30.4,67.8,33.1,62.4,36.6,61.2z"/>
<path class="st6" d="M51.1,65.2c-1,1-2.4-1.1-1.9-2c0.5-0.9,1.5-0.2,1.5-0.2S52.1,64.1,51.1,65.2z"/>
<path class="st4" d="M50.6,65.7c-0.3,0-0.5-0.1-0.7-0.3c-0.7-0.5-1.2-1.6-0.8-2.3c0.2-0.3,0.4-0.4,0.6-0.5c0.6-0.1,1.1,0.3,1.2,0.3
	c0,0.1,0.7,0.6,0.8,1.4c0,0.4-0.1,0.7-0.4,1C51.1,65.6,50.9,65.7,50.6,65.7z M49.9,62.9c-0.1,0-0.1,0-0.2,0
	c-0.2,0.1-0.3,0.2-0.4,0.3c-0.2,0.4,0.2,1.4,0.7,1.8c0.3,0.3,0.6,0.3,0.9,0c0.2-0.2,0.3-0.5,0.3-0.7c-0.1-0.6-0.6-1-0.6-1.1
	C50.6,63.2,50.3,62.9,49.9,62.9z"/>
<path class="st6" d="M50.7,62.5c0.1-0.1,0.9,0.2,0.9,0.2s0.6,0.2,0.8,0.6c0.1,0.3-0.1,1.9-0.1,1.9s-1.3,0.5-1.3,0.3
	s-0.9-2.3-0.9-2.3L50,62.5C50,62.5,50.6,62.5,50.7,62.5z"/>
<path d="M54.8,108.9c-8.7,1-20.5-1.2-20.5-1.2s0-15.5,4.4-24.9l9.9-8.3c0,0,3.8,8.2-6.8,18.8C38.9,96.3,54.8,108.9,54.8,108.9z"/>
<path d="M52.4,55.2c0,0,4.8-1,6.2,4.2c0,0-7.2,3.2-9.3,2.7L48,58.9L52.4,55.2z"/>
<path class="st11" d="M45.9,62.9c0-1.7,0.2-3.3,0.7-4.9c0.2-0.6,1-0.3,0.9,0.2c-0.4,1.6-0.6,3.1-0.6,4.7
	C46.8,63.4,45.8,63.5,45.9,62.9z"/>
<path class="st6" d="M51.8,70.4c0,0,3.6,1.9,4.8,4l-1.8,2.1c0,0-1.9-4.8-3.7-6C51.1,70.5,51.5,70.2,51.8,70.4z"/>
<path class="st4" d="M54.7,76.9l-0.1-0.3c0-0.1-1.9-4.7-3.6-6l-0.2-0.2l0.2-0.2c0,0,0.5-0.3,1-0.1c0.2,0.1,3.6,1.9,4.8,4.1l0.1,0.1
	L54.7,76.9z M51.4,70.6c1.5,1.4,3,4.6,3.4,5.6l1.5-1.8c-1.1-2-4.5-3.8-4.5-3.9C51.6,70.6,51.5,70.6,51.4,70.6z"/>
<path class="st6" d="M57.7,71.1c0.9,1.9,0.6,5.5,0.6,5.5l-1.8-2.1c0.7-0.9,0.8-3.5,0.8-3.5L57.7,71.1z"/>
<path class="st4" d="M58.5,77l-2.3-2.6l0.2-0.2c0.6-0.8,0.8-3.4,0.8-3.4v-0.3l0.6,0.3h0.1c1,1.9,0.6,5.5,0.6,5.6V77z M56.8,74.5
	l1.4,1.6c0.1-1,0.2-3.5-0.6-4.8C57.6,71.9,57.3,73.6,56.8,74.5z"/>
<path d="M56.3,79.7c0-0.4,0.3-0.7,0.7-0.7c0.4,0,0.7,0.3,0.7,0.7c0,0.3-0.3,0.7-0.7,0.7C56.6,80.4,56.3,80.1,56.3,79.7z"/>
<path d="M56.7,84.6c0-0.4,0.3-0.7,0.7-0.7s0.7,0.3,0.7,0.7c0,0.4-0.3,0.7-0.7,0.7S56.7,85,56.7,84.6z"/>
<path d="M56.7,93.4c0-0.4,0.3-0.7,0.7-0.7s0.7,0.3,0.7,0.7c0,0.3-0.3,0.7-0.7,0.7S56.7,93.7,56.7,93.4z"/>
<path d="M56.7,88.7c0-0.4,0.3-0.7,0.7-0.7s0.7,0.3,0.7,0.7s-0.3,0.7-0.7,0.7S56.7,89.1,56.7,88.7z"/>
<path d="M56.7,98.2c0-0.4,0.3-0.7,0.7-0.7s0.7,0.3,0.7,0.7c0,0.3-0.3,0.6-0.7,0.6C57,98.9,56.7,98.5,56.7,98.2z"/>
<path d="M37.8,171.9c0,0,9,0,10.8,4.6H37.7l-1.3-1l-1,1h-1.6c0,0-1.1-3.2,1.4-4.4C35.2,172.1,36.2,173,37.8,171.9z"/>
<path class="st6" d="M53.2,111.4c-1,0.2-2-1.3-2.3-2.1c-0.6-1-0.5-2.2,0.4-3c0.7-0.6,2.2-1.1,3.1-0.8c0.1,0.1,0.1,0.1,0.2,0.2
	c0.2-0.1,0.4-0.1,0.6,0.2c0.5,0.6,2.6,2.3,1.5,3.1c-0.1,0.1-0.2,0.1-0.3,0.2c0.1,0.3,0,0.6-0.2,0.9c-0.3,0.3-0.6,0.3-1,0.2
	c-0.1,0.1-0.1,0.1-0.1,0.2c-0.3,0.4-0.7,0.5-1.2,0.4C53.8,111.1,53.6,111.3,53.2,111.4z"/>
<path class="st4" d="M53,111.7c-1,0-1.8-1.2-2.3-2.3c-0.6-1.2-0.4-2.4,0.6-3.2c0.8-0.7,2.3-1.2,3.2-0.8c0.1,0.1,0.1,0.1,0.2,0.1
	c0.2-0.1,0.5,0,0.7,0.2c0.1,0.1,0.2,0.2,0.3,0.4c0.6,0.6,1.5,1.5,1.5,2.3c0,0.3-0.1,0.5-0.4,0.7c-0.1,0.1-0.1,0.1-0.2,0.1
	c0,0.4-0.1,0.8-0.4,1c-0.2,0.2-0.5,0.4-1,0.2c-0.3,0.4-0.7,0.6-1.2,0.6c-0.1,0.3-0.3,0.5-0.7,0.6C53.2,111.7,53.1,111.7,53,111.7z
	 M53.6,105.6c-0.7,0-1.6,0.4-2.2,0.9c-0.8,0.6-1,1.7-0.4,2.7c0.3,0.6,1.2,2.2,2.1,2c0.3-0.1,0.5-0.2,0.5-0.5v-0.2h0.2
	c0.4,0.1,0.8,0,1-0.3c0-0.1,0-0.1,0.1-0.1L55,110l0.2,0.1c0.3,0.1,0.5,0.1,0.7-0.1c0.2-0.2,0.2-0.5,0.2-0.8l-0.1-0.2l0.2-0.1
	c0.1,0,0.2,0,0.2-0.1c0.2-0.1,0.2-0.3,0.2-0.5c0.1-0.6-0.8-1.4-1.4-2c-0.1-0.2-0.2-0.3-0.3-0.4c-0.1-0.1-0.2-0.1-0.4-0.1l-0.1,0.1
	l-0.1-0.1c-0.1-0.1-0.1-0.1-0.2-0.1C54.1,105.7,53.9,105.6,53.6,105.6z"/>
<path class="st6" d="M57.2,107.7c-0.2-0.4-0.5-0.9-0.9-1.1c-0.4-0.2-0.7,0.1-1,0.1c-0.9,0.1-2.7-0.5-2.7-1.2
	c-0.1-0.6-0.6-1.5-0.2-1.1c0.8,0,4.1,0.4,4.8,0.9c0.7,0.5,1,1.3,1.1,2.2C58.3,108,57.4,108.3,57.2,107.7z"/>
<path class="st4" d="M57.7,108.2c-0.3,0-0.6-0.2-0.7-0.4c-0.2-0.4-0.4-0.9-0.7-1c-0.2-0.1-0.4,0-0.6,0.1c-0.1,0-0.2,0-0.3,0.1
	c-0.9,0.1-2.8-0.6-3-1.4c0-0.2-0.1-0.5-0.2-0.7c-0.2-0.3-0.2-0.5,0-0.6c0.1-0.1,0.2,0,0.3,0.1c0.8,0,4.1,0.3,4.9,0.9
	c0.7,0.5,1.1,1.3,1.1,2.3c0.1,0.4-0.2,0.6-0.6,0.8C57.8,108.2,57.7,108.2,57.7,108.2z M56,106.3c0.1,0,0.2,0,0.4,0.1
	c0.5,0.2,0.7,0.7,1,1.2c0.1,0.2,0.3,0.2,0.5,0.2c0.1-0.1,0.2-0.2,0.2-0.4c-0.1-0.9-0.4-1.6-1-2c-0.6-0.4-3.6-0.8-4.7-0.8
	c0.1,0,0.1,0,0.1,0.1c0.1,0.2,0.2,0.5,0.2,0.7c0.2,0.6,1.7,1.2,2.5,1.1c0.1-0.1,0.2-0.1,0.3-0.1C55.7,106.4,55.8,106.3,56,106.3z"/>
<path class="st6" d="M53.4,104.8c0,0,0.3-0.2,1-0.2c0.6,0,1.4,1.1,1.3,1.7c-0.1,0.3,0.3,0.5,0.6,1c0.3,0.4-1.6,0.6-1.6,0.6l-3.9-0.2
	c0,0,0.1-0.4-0.2-1.1c-0.2-0.7,2-2.6,2-2.6L53.4,104.8z"/>
<path class="st11" d="M49.2,74.5c1.9,3.9-5.5,11.3-8.6,14.5c-1.7,1.8-2.7,3.2-2.4,4.5c0.3,2.5,4,4.4,6.9,6.3c0.1,0,0.1,0,0,0
	c2.7,1.7,6.3,4.7,6.3,4.7l-0.6,3.3c-5.6-1.5-20.1-4.8-22.4-10.2C24.9,89.7,43.5,62.7,49.2,74.5z"/>
<path class="st7" d="M52.8,104l-1.7,5l-1.4-1.3l1.7-4.3L52.8,104z"/>
<path class="st6" d="M86.3,86.9l1,0.9l-0.2,0.7l-1.2,0.2L86.3,86.9z"/>
<path class="st4" d="M87.6,87.7l-0.3,1l-1.7,0.2l0.7-2.3L87.6,87.7z M86.1,88.4l0.8-0.1l0.2-0.6l-0.6-0.5L86.1,88.4z"/>
<path class="st7" d="M71.4,82l-0.6,2.4l-0.9-0.3c-0.2-0.1-0.4-0.3-0.3-0.5l0.5-1.6c0.1-0.2,0.3-0.3,0.5-0.2L71.4,82z"/>
<path class="st2" d="M86,88.6c-0.1,0.2-0.3,0.3-0.5,0.2l-14.8-4.5l0.2-0.7l14.7,4.4C85.9,88.1,86.1,88.4,86,88.6z"/>
<path d="M86.3,87.8c-0.1,0.2-0.3,0.3-0.6,0.2L71,83.6l0.2-0.8l14.7,4.4C86.2,87.3,86.3,87.6,86.3,87.8z"/>
<path class="st2" d="M86.5,87c-0.1,0.2-0.3,0.3-0.6,0.2l-14.7-4.4l0.2-0.8l14.7,4.5C86.4,86.5,86.6,86.8,86.5,87z"/>
<path class="st6" d="M71.6,82.1L71,84.4l-0.5-0.2l0.6-2.3L71.6,82.1z"/>
<path class="st4" d="M71,84.7l-0.9-0.2l0.9-2.7l0.9,0.2L71,84.7z M70.6,84.2L70.6,84.2l0.7-2h-0.2L70.6,84.2z"/>
<path class="st7" d="M88,88.5l-0.7,0.1l0.3-1l0.6,0.5C88.2,88.3,88.1,88.5,88,88.5z"/>
<path class="st6" d="M82.5,84.1c0.2,0.5,0,1.1-0.2,1.6c-0.2,0.3-0.7,0.5-1,0.1c-0.2,0.2-0.4,0.4-0.8,0.2c-0.2-0.1-0.4-0.2-0.5-0.4
	c-0.2,0.2-0.4,0.2-0.7,0.2c-0.2-0.2-0.3-0.3-0.4-0.6c-0.1,0.2-0.1,0.3-0.2,0.3c-0.1,0.2-0.3,0.2-0.5,0.2c-0.2,0-0.5-0.1-0.6-0.4
	c-0.2-0.6-0.6-2.7,0.7-2.6c0.3,0,0.6,0.1,0.6,0.3c0.1,0,0.2-0.2,0.3-0.2c0.5-0.3,0.7-0.2,0.9,0.2c0.1,0,0.1,0,0.1,0
	c0.2-0.1,0.4-0.1,0.6,0c0.2,0,0.3,0.2,0.5,0.3c0.2,0,0.4,0.1,0.6,0.2c0.1,0.1,0.1,0.1,0.1,0.1C82.3,83.8,82.4,84,82.5,84.1z"/>
<path class="st4" d="M80.9,86.3c-0.1,0-0.2,0-0.3,0c-0.2-0.1-0.4-0.2-0.6-0.3c-0.2,0.1-0.5,0.1-0.7,0c-0.1-0.1-0.2-0.1-0.3-0.2
	c-0.2,0.2-0.4,0.3-0.6,0.3c-0.3,0-0.6-0.2-0.7-0.6c-0.2-0.6-0.5-1.9,0.1-2.6c0.2-0.2,0.4-0.3,0.8-0.3c0.3,0,0.5,0.1,0.7,0.2
	c0.1-0.1,0.1-0.1,0.2-0.1c0.3-0.2,0.5-0.2,0.7-0.2c0.2,0.1,0.3,0.2,0.4,0.3c0.2-0.1,0.3-0.1,0.6,0c0.3,0.1,0.5,0.2,0.6,0.4
	c0.2-0.1,0.4,0,0.6,0.2c0,0.1,0,0.1,0.1,0.1c0.2,0.2,0.3,0.3,0.4,0.5c0.2,0.6-0.1,1.3-0.2,1.8c-0.1,0.2-0.4,0.4-0.6,0.5
	c-0.2,0-0.4-0.1-0.5-0.2C81.2,86.2,81,86.3,80.9,86.3z M80.1,85.3l0.1,0.2c0.1,0.2,0.2,0.3,0.4,0.3c0.3,0.1,0.5,0,0.6-0.2l0.2-0.3
	l0.2,0.3c0.1,0.1,0.2,0.2,0.2,0.2c0.2,0,0.3-0.2,0.3-0.2c0.2-0.2,0.4-1,0.2-1.5c-0.1-0.2-0.2-0.2-0.2-0.3L82,83.8
	c-0.2-0.1-0.3-0.1-0.5-0.1h-0.1l-0.1-0.1c-0.1-0.2-0.2-0.3-0.4-0.3c-0.2-0.1-0.3-0.1-0.5,0l-0.1,0.1l-0.1-0.1c0,0,0,0-0.1,0h-0.1
	v-0.1c-0.1-0.1-0.1-0.2-0.2-0.2c-0.1-0.1-0.2,0-0.4,0.1c0,0,0,0-0.1,0.1c-0.2,0.2-0.2,0.2-0.3,0.2H79l-0.1-0.1
	c-0.1-0.2-0.3-0.2-0.5-0.2c-0.2,0-0.4,0.1-0.5,0.2c-0.4,0.5-0.2,1.7,0,2.2c0,0.3,0.2,0.3,0.3,0.3c0.1,0,0.2,0,0.3-0.2
	c0.1-0.1,0.1-0.2,0.2-0.3l0.2-0.5l0.1,0.6c0.1,0.2,0.2,0.2,0.3,0.3c0.2,0.1,0.3,0.2,0.5-0.1L80.1,85.3z"/>
<text transform="matrix(1 0 0 1 457.1132 447.5253)" class="st15" style="font-family:'MyriadPro-Regular';">illustration</text>
<text transform="matrix(0.915 0 0 1 85.0663 73.8056)" class="st14 st15">Personal Tax</text>
</svg>
