<?xml version="1.0" encoding="utf-8"?>
<!-- Generator: Adobe Illustrator 28.0.0, SVG Export Plug-In . SVG Version: 6.00 Build 0)  -->
<svg version="1.1" id="Layer_1" xmlns="http://www.w3.org/2000/svg" xmlns:xlink="http://www.w3.org/1999/xlink" x="0px" y="0px"
	 viewBox="0 0 218 224" style="enable-background:new 0 0 218 224;" xml:space="preserve">
<style type="text/css">
	.st0{fill:#E6EBF0;}
	.st1{fill-rule:evenodd;clip-rule:evenodd;fill:#AAB6C2;}
	.st2{fill-rule:evenodd;clip-rule:evenodd;fill:#7977C6;}
	.st3{fill:#FFFFFF;}
	.st4{fill-rule:evenodd;clip-rule:evenodd;}
	.st5{fill:#AAB6C2;}
	.st6{fill:#7977C6;}
	.st7{font-family:'Arial-Black';}
	.st8{font-size:7.4287px;}
</style>
<path d="M177.5,182.7H43.1v-1h134.4V182.7z"/>
<path class="st0" d="M39.1,108.9c5.3-34.6,35.3-98.4,79.4-72.7c37.7,22,11.8,48.7,42.8,59.7c53,18.8,6.9,97.9-57.4,84.2
	C39.5,166.4,34.2,141,39.1,108.9z"/>
<path class="st0" d="M172.3,64.7c16.1,15.7,24.6,35.1,0,27c-24.6-8-29-31.5-26.5-44.1C149.6,28.6,156.2,48.9,172.3,64.7z"/>
<path class="st1" d="M158.3,143.4h-12.7v-6.9h12.7V143.4z M146.4,142.7h11.1v-5.5h-11.1V142.7z"/>
<path class="st1" d="M166.9,149.6h-12.7v-6.9h12.7V149.6z M155,148.9h11.1v-5.5H155V148.9z"/>
<path class="st1" d="M127.1,83.9h-12.6v-6.9h12.6V83.9z M115.2,83.2h11.2v-5.5h-11.2V83.2z"/>
<path class="st1" d="M105,160.3H92.3v-6.9H105V160.3z M93.1,159.6h11.2v-5.5H93.1V159.6z"/>
<path class="st1" d="M116.9,160.3h-12.6v-6.9h12.6V160.3z M105,159.6h11.2v-5.5H105V159.6z"/>
<path class="st1" d="M110.9,166.5H98.2v-6.9h12.7V166.5z M99,165.8h11.2v-5.5H99V165.8z"/>
<path class="st1" d="M84.6,117.4H72v-6.9h12.6V117.4z M72.7,116.7h11.2v-5.5H72.7V116.7z"/>
<path class="st1" d="M76,123.7H63.3v-6.9H76V123.7z M64.1,123h11.1v-5.5H64.1V123z"/>
<path class="st1" d="M82.2,59.3H69.6v-6.9h12.6V59.3z M70.3,58.6h11.2v-5.5H70.3V58.6z"/>
<path class="st1" d="M76.2,65.5H63.6v-6.9h12.6V65.5z M64.3,64.8h11.2v-5.5H64.3V64.8z"/>
<path class="st1" d="M137.2,45.5c-0.6,1.3-1.5,2.5-2.5,3.5l1.3,2.8l-4.2,2.5l-1.9-2.5c-1.3,0.4-2.8,0.6-4.2,0.6l-1.1,3l-4.7-1.2
	l0.4-3.1c-1.3-0.6-2.5-1.5-3.5-2.5L114,50l-2.5-4.2l2.5-1.9c-0.4-1.3-0.7-2.8-0.6-4.2l-3-1l1.2-4.8l3,0.4c0.7-1.3,1.6-2.5,2.6-3.5
	l-1.4-2.8l4.2-2.5l1.8,2.5c1.3-0.4,2.8-0.7,4.3-0.6l1-3l4.8,1.2l-0.5,3c1.3,0.7,2.5,1.6,3.5,2.6l2.8-1.4l2.5,4.2l-2.5,1.8
	c0.4,1.3,0.6,2.8,0.6,4.3l3,1l-1.2,4.8L137.2,45.5z M134.6,42c1.2-4.8-1.7-9.6-6.5-10.8c-4.8-1.2-9.6,1.8-10.8,6.5
	c-1.2,4.8,1.8,9.7,6.5,10.8C128.6,49.7,133.4,46.8,134.6,42z"/>
<path class="st2" d="M65.6,94.6c-0.8,1.5-1.7,2.8-2.9,3.9l1.6,3.2l-4.7,2.8l-2.1-2.8c-1.5,0.5-3.1,0.8-4.7,0.7l-1.1,3.3l-5.4-1.3
	l0.6-3.4c-1.5-0.8-2.8-1.8-3.9-2.9l-3.2,1.6l-2.8-4.7l2.8-2.1c-0.5-1.5-0.8-3.1-0.7-4.8l-3.3-1.1l1.3-5.3l3.4,0.5
	c0.8-1.4,1.8-2.8,2.9-3.9l-1.6-3.1l4.7-2.8l2.1,2.8c1.5-0.5,3.1-0.8,4.8-0.7l1.1-3.3l5.3,1.3l-0.5,3.4c1.4,0.8,2.8,1.7,3.9,2.9
	l3.1-1.6l2.8,4.7l-2.8,2.1c0.5,1.5,0.8,3.1,0.7,4.7l3.3,1.1L69,95.2L65.6,94.6z M62.7,90.7c1.3-5.3-1.9-10.7-7.2-12
	c-5.4-1.3-10.8,1.9-12.1,7.3c-1.3,5.3,2,10.7,7.3,12C56,99.4,61.4,96.1,62.7,90.7z"/>
<path d="M92.9,53.9h-2.2V36.1h2.2V53.9z"/>
<path d="M72.7,181.2h-1.1L87.9,136H89L72.7,181.2z"/>
<path d="M92.4,181.2h-1.1V136h1.1V181.2z"/>
<path d="M112.1,181.2H111L94.8,136h1.1L112.1,181.2z"/>
<path d="M79.9,156.7l7.4-20.7h2.2L82,156.7H79.9z"/>
<path d="M90.7,155v-19h2.2v19H90.7z"/>
<path d="M101.6,156.7L94.2,136h2.1l7.4,20.7H101.6z"/>
<path d="M96.3,136h-9.1v-2.3h9.1V136z"/>
<path d="M95.9,40.2h-8.1v-2.3h8.1V40.2z"/>
<path d="M101.3,137.5h-19v-2.3h19V137.5z"/>
<path d="M91.6,161.7l-14.4,5.7v-0.9l14.4-5.7V161.7z"/>
<path d="M106.5,167.4L92,161.7v-0.9l14.5,5.7V167.4z"/>
<path d="M49.3,134.9v-2.1c0-0.2,0.1-0.4,0.4-0.4h80.9c0.2,0,0.4,0.1,0.4,0.4v2.1c0,0.1-0.1,0.4-0.4,0.4H49.7
	C49.4,135.3,49.3,135.1,49.3,134.9z"/>
<path d="M49.3,42.2v-1.4c0-0.4,0.3-0.6,0.6-0.6h80.3c0.4,0,0.7,0.3,0.7,0.6v1.4c0,0.4-0.3,0.6-0.7,0.6H49.9
	C49.6,42.9,49.3,42.6,49.3,42.2z"/>
<path class="st3" d="M53.2,135.1V41.7h76v93.3H53.2z"/>
<path class="st4" d="M129.5,135.3H53V41.5h76.5V135.3z M53.3,42v93h75.8V42H53.3z"/>
<path d="M50.4,134.9v-2.1c0-0.2,0.1-0.4,0.4-0.4h80.9c0.2,0,0.4,0.1,0.4,0.4v2.1c0,0.1-0.1,0.4-0.4,0.4H50.7
	C50.5,135.3,50.4,135.1,50.4,134.9z"/>
<path d="M50.4,42.2v-1.4c0-0.4,0.3-0.6,0.7-0.6h80.3c0.4,0,0.6,0.3,0.6,0.6v1.4c0,0.4-0.3,0.6-0.6,0.6H51.1
	C50.6,42.9,50.4,42.6,50.4,42.2z"/>
<path class="st5" d="M75.1,61.2v1.3H59.2v-1.3H75.1z"/>
<path class="st5" d="M88,65.2v1.3H59.2v-1.3H88z"/>
<path class="st5" d="M85.9,69.1v1.3H59.2v-1.3H85.9z"/>
<path class="st5" d="M76.8,61.2h5v1.3h-5V61.2z"/>
<path class="st5" d="M75.1,76.6v1.3H59.2v-1.3H75.1z"/>
<path class="st5" d="M88,80.5v1.3H59.2v-1.3H88z"/>
<path class="st5" d="M85.9,84.4v1.3H59.2v-1.3H85.9z"/>
<path class="st5" d="M76.8,76.6h5v1.3h-5V76.6z"/>
<path class="st5" d="M110.2,61.2l-0.1,1.3H94.2v-1.3H110.2z"/>
<path class="st5" d="M123,65.2v1.3H94.2v-1.3H123z"/>
<path class="st5" d="M121,69.1v1.3H94.2v-1.3H121z"/>
<path class="st5" d="M111.8,61.2h5l-0.1,1.3h-4.9V61.2z"/>
<path class="st5" d="M110.2,76.6l-0.1,1.3H94.2v-1.3H110.2z"/>
<path class="st5" d="M123,80.5v1.3H94.2v-1.3H123z"/>
<path class="st5" d="M121,84.4v1.3H94.2v-1.3H121z"/>
<path class="st5" d="M111.8,76.6h5l-0.1,1.3h-4.9V76.6z"/>
<path class="st5" d="M108.9,127.6V92c0-0.1,0.1-0.2,0.2-0.2c0.1,0,0.2,0.1,0.2,0.2v35.6c0,0.1-0.1,0.2-0.2,0.2
	C108.9,127.8,108.9,127.8,108.9,127.6z"/>
<path class="st5" d="M57.5,99c0-0.1,0.1-0.2,0.2-0.2h68c0.1,0,0.2,0.1,0.2,0.2c0,0.1-0.1,0.2-0.2,0.2h-68
	C57.6,99.2,57.5,99.1,57.5,99z"/>
<path class="st5" d="M57.5,106.7c0-0.1,0.1-0.2,0.2-0.2h68c0.1,0,0.2,0.1,0.2,0.2s-0.1,0.2-0.2,0.2h-68
	C57.6,107,57.5,106.9,57.5,106.7z"/>
<path class="st5" d="M57.5,114.5c0-0.1,0.1-0.2,0.2-0.2h68c0.1,0,0.2,0.1,0.2,0.2c0,0.1-0.1,0.2-0.2,0.2h-68
	C57.6,114.7,57.5,114.6,57.5,114.5z"/>
<path class="st5" d="M57.5,122.2c0-0.1,0.1-0.2,0.2-0.2h68c0.1,0,0.2,0.1,0.2,0.2c0,0.1-0.1,0.2-0.2,0.2h-68
	C57.6,122.4,57.5,122.3,57.5,122.2z"/>
<path class="st5" d="M101.9,127.6V92c0-0.1,0.1-0.2,0.2-0.2c0.1,0,0.2,0.1,0.2,0.2v35.6c0,0.1-0.1,0.2-0.2,0.2
	C102,127.8,101.9,127.8,101.9,127.6z"/>
<path class="st5" d="M122.9,127.6V92c0-0.1,0.1-0.2,0.1-0.2c0.1,0,0.2,0.1,0.2,0.2v35.6c0,0.1-0.1,0.2-0.2,0.2
	C123,127.8,122.9,127.8,122.9,127.6z"/>
<path class="st5" d="M115.9,127.6V92c0-0.1,0.1-0.2,0.2-0.2c0.1,0,0.2,0.1,0.2,0.2v35.6c0,0.1-0.1,0.2-0.2,0.2
	C116.1,127.8,115.9,127.8,115.9,127.6z"/>
<path class="st5" d="M95,127.6V92c0-0.1,0.1-0.2,0.1-0.2c0.1,0,0.2,0.1,0.2,0.2v35.6c0,0.1-0.1,0.2-0.2,0.2
	C95,127.8,95,127.8,95,127.6z"/>
<path class="st5" d="M88,127.6V92c0-0.1,0.1-0.2,0.2-0.2c0.1,0,0.2,0.1,0.2,0.2v35.6c0,0.1-0.1,0.2-0.2,0.2
	C88.1,127.8,88,127.8,88,127.6z"/>
<path class="st5" d="M81,127.6V92c0-0.1,0.1-0.2,0.2-0.2s0.2,0.1,0.2,0.2v35.6c0,0.1-0.1,0.2-0.2,0.2S81,127.8,81,127.6z"/>
<path class="st5" d="M74.1,127.6V92c0-0.1,0.1-0.2,0.2-0.2c0.1,0,0.2,0.1,0.2,0.2v35.6c0,0.1-0.1,0.2-0.2,0.2
	C74.2,127.8,74.1,127.8,74.1,127.6z"/>
<path class="st5" d="M67.1,127.6V92c0-0.1,0.1-0.2,0.2-0.2c0.1,0,0.1,0.1,0.1,0.2v35.6c0,0.1-0.1,0.2-0.1,0.2
	C67.2,127.8,67.1,127.8,67.1,127.6z"/>
<path class="st5" d="M60.1,127.6V92c0-0.1,0.1-0.2,0.2-0.2c0.1,0,0.2,0.1,0.2,0.2v35.6c0,0.1-0.1,0.2-0.2,0.2
	C60.3,127.8,60.1,127.8,60.1,127.6z"/>
<path class="st6" d="M57.5,124.2c-0.2,0-0.4,0-0.5-0.1c-0.4-0.3-0.4-0.8-0.1-1.1l8.6-9.3c0.2-0.2,0.6-0.3,1-0.1l8.9,4.4l8.3-11.1
	c0.1-0.1,0.3-0.3,0.6-0.3c0.2-0.1,0.4,0,0.6,0.1l8.6,7.4l6.4-11.5c0.1-0.1,0.3-0.3,0.5-0.4s0.4,0,0.6,0.1l8.1,4.6l8.8-11.1
	c0.3-0.4,0.8-0.4,1.1-0.1c0.4,0.2,0.4,0.7,0.1,1l-9.1,11.8c-0.3,0.3-0.7,0.4-1.1,0.1l-8.1-4.5l-6.4,11.6c-0.1,0.2-0.4,0.4-0.6,0.4
	c-0.3,0.1-0.5,0-0.7-0.2l-8.6-7.4l-8.1,10.9c-0.2,0.4-0.6,0.4-1,0.2l-9-4.3l-8.2,8.9C58,124.1,57.7,124.2,57.5,124.2z"/>
<path class="st6" d="M120.3,100.3c-0.4,0-0.8-0.3-0.8-0.6l-0.7-4l-4.9,1.1c-0.4,0.1-0.8-0.1-0.9-0.6c-0.1-0.4,0.1-0.8,0.6-0.8
	l5.7-1.3c0.2-0.1,0.4-0.1,0.6,0.1c0.1,0.1,0.3,0.3,0.4,0.5l0.8,4.8C121.1,99.8,120.8,100.2,120.3,100.3
	C120.3,100.3,120.3,100.3,120.3,100.3z"/>
<path class="st6" d="M102.7,181.8H91.4c-1.9,0-3.5-1.6-3.5-3.5c0-1.9,1.6-3.5,3.5-3.5h11.3V181.8z"/>
<path class="st6" d="M87.9,177.9c0.2-1.8,1.7-3.1,3.5-3.1h11.3v2.8c-1.3,0.5-2.9,1.1-3.4,0.4c-0.6-0.9-2.4-2.3-2.4-2.3
	s-3.7-0.1-6.1-0.1C88.3,175.6,87.9,177.8,87.9,177.9z"/>
<path class="st3" d="M98.9,180.9c-1.5,0-2.7-1.1-2.7-2.6c0-1.5,1.2-2.7,2.7-2.7h20v5.3H98.9z"/>
<path class="st4" d="M119.2,181.1H98.9c-1.6,0-2.8-1.3-2.8-2.8c0-1.6,1.3-2.8,2.8-2.8h20.3V181.1z M98.9,175.7
	c-1.4,0-2.5,1.1-2.5,2.5c0,1.4,1.1,2.5,2.5,2.5h19.9v-5H98.9z"/>
<path d="M120.4,181.8H99.1c-1.9,0-3.5-1.6-3.5-3.5c0-1.9,1.6-3.5,3.5-3.5h21.3v1.2H99.1c-1.3,0-2.3,1.1-2.3,2.3c0,1.3,1,2.3,2.3,2.3
	h21.3V181.8z"/>
<path class="st6" d="M104.7,164.9H96c-1.5,0-2.7-1.2-2.7-2.7c0-1.6,1.2-2.8,2.7-2.8h8.8V164.9z"/>
<path class="st3" d="M101.8,164.2c-1.1,0-2.1-0.9-2.1-2.1c0-1.1,0.9-2.1,2.1-2.1h15.5v4.1H101.8z"/>
<path class="st4" d="M117.6,164.3h-15.7c-1.2,0-2.2-1-2.2-2.2c0-1.2,1-2.2,2.2-2.2h15.7V164.3z M101.8,160.3c-1,0-1.8,0.8-1.8,1.8
	c0,1,0.8,1.8,1.8,1.8h15.4v-3.7H101.8z"/>
<path d="M118.5,164.9H102c-1.5,0-2.7-1.2-2.7-2.7c0-1.6,1.2-2.8,2.7-2.8h16.5v0.9H102c-1,0-1.8,0.8-1.8,1.8c0,0.9,0.8,1.8,1.8,1.8
	h16.5V164.9z"/>
<path class="st5" d="M105.8,169h-9.5c-1.1,0-2.1-0.9-2.1-2.1s1-2.1,2.1-2.1h9.5V169z"/>
<path d="M94.3,167.4c0-0.1-0.1-0.3-0.1-0.5c0-1.1,1-2.1,2.1-2.1h9.5v0.9l-2.3-0.2h-7.1C96.4,165.6,94.6,165.6,94.3,167.4z"/>
<path class="st3" d="M105,168.4c-0.8,0-1.5-0.7-1.5-1.5c0-0.8,0.7-1.6,1.5-1.6h15.2v3H105z"/>
<path class="st4" d="M120.3,168.6H105c-0.9,0-1.7-0.7-1.7-1.6c0-1,0.8-1.7,1.7-1.7h15.4V168.6z M105,165.5c-0.7,0-1.3,0.6-1.3,1.3
	c0,0.7,0.6,1.3,1.3,1.3h15v-2.7H105z"/>
<path d="M121,169h-15.9c-1.1,0-2.1-0.9-2.1-2.1s1-2.1,2.1-2.1H121v0.7h-15.9c-0.8,0-1.4,0.6-1.4,1.3s0.6,1.3,1.4,1.3H121V169z"/>
<path class="st5" d="M97.8,169h17.4c1.6,0,2.9,1.3,2.9,2.9c0,1.6-1.3,2.9-2.9,2.9H97.8V169z"/>
<path d="M115.2,169c1.6,0,2.9,1.3,2.9,2.9c0,0.1,0,0.2,0,0.4c-0.1,0-0.8-2-3.2-2.1c-2.3,0-12.5,0-12.5,0l-2.8-1.2H115.2z"/>
<path class="st3" d="M90.9,174v-4.3h10c1.2,0,2.2,1,2.2,2.2c0,1.2-1,2.1-2.2,2.1H90.9z"/>
<path class="st4" d="M103.3,171.9c0,1.3-1.1,2.3-2.3,2.3H90.8v-4.7h10.1C102.2,169.5,103.3,170.5,103.3,171.9z M91.2,169.8v4h9.8
	c1.1,0,2-0.9,2-2c0-1.1-0.8-2.1-2-2.1H91.2z"/>
<path d="M89.7,173.8h11c1.1,0,1.9-0.8,1.9-1.9s-0.8-1.9-1.9-1.9h-11v-1h11c1.6,0,2.9,1.3,2.9,2.9c0,1.6-1.3,2.9-2.9,2.9h-11V173.8z"
	/>
<path class="st3" d="M121.7,96.2c-2.9,0-5.8-0.8-8.6-2.3c-3.1-1.7-1.4-16.1,0.7-20.3l0.1-0.1l-0.1-0.1c-0.1-0.1-0.4-0.4-0.6-0.8
	c-0.5-0.8-0.4-1.3-0.3-1.4c0-0.1,0.1-0.1,0.1-0.2l0.8,1l-0.5-1.1c-0.2-0.4-0.1-0.7,0-0.9c0-0.1,0.1-0.1,0.1-0.1l0.4,0.2l-0.1-0.4
	c-0.1-0.2,0-0.5,0.1-0.7c0.1-0.1,0.3-0.2,0.4-0.2c0.2,0,0.3,0.1,0.4,0.3l0.6,0.9l-0.3-1.1c-0.2-0.7-1.1-1.8-1.6-2.3
	c-0.2-0.2-0.2-0.4-0.2-0.5c0,0,0.1-0.1,0.2-0.1c0,0,0.1,0,0.1,0.1c0.2,0,0.8,0.3,1.9,1.7c0.5,0.7,1.4,2.1,1.5,3.7v0.3l0.2-0.1
	c0.1,0,0.2-0.1,0.3-0.1h0.1v-0.1c0-0.2-0.1-0.5-0.1-0.6c-0.1-0.1,0-0.2,0-0.3c0.1-0.1,0.2-0.1,0.3-0.1c0.1,0,0.2,0,0.2,0.1
	c0.2,0.5,0.4,0.9,0.2,1.3c-0.1,0.1-1.3,2.1-1.7,2.3l-0.1,0.1l0.1,0.1c0.1,0.7,0.4,2.2,0.6,3.8c1.1,7,1.5,8.9,2,9h0.1
	c0.6,0,2.3-0.7,5.1-1.9c0.1-0.1,0.7-0.3,0.7-0.3c0.2-0.1,0.4-0.2,0.6-0.3h0.1c4.8-2.1,9.4-3.3,12.5-3.3c0.7,0,1.3,0.1,1.8,0.2
	c0.3,0,0.4,0.2,0.5,0.4c0.4,1.6-5.3,7-7.6,8.9c-0.1,0.1-0.6,1.1-1.8,2.3c-1.2,1.2-2.3,1.8-4.7,2.5h-0.1c0,0-0.1,0-0.2,0.1
	c-0.5,0.1-1,0.3-1.6,0.4c-0.4,0-0.8,0.1-1.3,0.1c-0.3,0-0.6,0.1-0.8,0.1C122.2,96.2,122,96.2,121.7,96.2z"/>
<path class="st4" d="M113.7,65.8c0.6,0.1,1.6,1.3,2,1.8c0.8,1.1,1.5,2.4,1.5,3.8c0.1,0,0.3,0,0.4-0.1c0-0.2-0.1-0.4-0.1-0.6
	c-0.1-0.3,0.2-0.6,0.5-0.6c0.1,0,0.3,0.1,0.4,0.2c0.3,0.5,0.4,0.9,0.2,1.5c0,0.1-1.3,2.1-1.7,2.4c0.5,2.5,1.7,12.6,2.5,12.7
	c0.6,0,2.5-0.8,5-1.8c0.1-0.1,0.3-0.2,0.5-0.2c0.2-0.1,0.5-0.3,0.8-0.4c0,0,0.1,0,0.1,0c4.4-1.9,9.2-3.3,12.7-3.3
	c0.7,0,1.3,0,1.8,0.1c3.3,0.7-6.9,9.6-6.9,9.6s-0.6,1.1-1.9,2.3c-1.2,1.2-2.4,1.8-4.7,2.5c-0.1,0-0.2,0-0.3,0.1
	c-0.5,0.1-1.1,0.3-1.6,0.4c-0.4,0.1-0.9,0.2-1.3,0.2c-0.3,0-0.6,0-0.8,0.1c-0.2,0-0.5,0-0.7,0c-2.5,0-5.5-0.6-8.7-2.3
	c-3.4-1.8-1.4-16.4,0.6-20.5c-0.2-0.2-0.4-0.5-0.6-0.8c-0.8-1.1-0.3-1.8,0-1.8c0,0,0.1,0,0.1,0.1c-0.3-0.6,0-1.3,0.4-1.3
	c0,0,0,0,0.1,0c-0.1-0.5,0.4-1.1,0.8-1.1c0.2,0,0.4,0.1,0.6,0.4c-0.1-0.6-1-1.7-1.5-2.1c-0.4-0.4-0.3-0.9,0.1-0.9
	C113.6,65.8,113.7,65.8,113.7,65.8z M113.5,66.2c0,0.1,0.1,0.1,0.1,0.3c0.6,0.5,1.4,1.6,1.6,2.3l0.6,2.1l-1.3-1.8
	c-0.1-0.1-0.1-0.2-0.3-0.2c-0.1,0-0.1,0.1-0.3,0.2c-0.1,0.1-0.1,0.4-0.1,0.5l0.2,0.8l-0.6-0.4c-0.1,0.1-0.1,0.4,0,0.8l1,2.2
	l-1.4-1.7c-0.1,0.2-0.1,0.6,0.3,1.2c0.2,0.4,0.4,0.6,0.6,0.8l0.1,0.1l-0.1,0.2c-2.1,4.2-3.9,18.4-0.8,20c2.8,1.6,5.7,2.3,8.6,2.3
	c0.2,0,0.5,0,0.7,0c0.3,0,0.6-0.1,0.8-0.1c0.4,0,0.8-0.1,1.3-0.1c0.6-0.1,1.2-0.3,1.6-0.4c0,0,0.1,0,0.1,0l0.1-0.1
	c2.3-0.6,3.5-1.3,4.6-2.3c1.2-1.2,1.8-2.2,1.8-2.2l0.1-0.1v-0.1c3.1-2.6,7.9-7.4,7.5-8.7c0-0.1,0-0.2-0.4-0.3
	c-0.5-0.1-1-0.1-1.7-0.1c-3,0-7.6,1.2-12.5,3.3l-0.1,0.1c-0.2,0-0.4,0.1-0.6,0.2l-0.2,0.1c-0.1,0-0.2,0.1-0.3,0.1
	c0,0-0.1,0.1-0.2,0.1c-2.8,1.2-4.5,1.9-5.2,1.9c0,0,0,0-0.1,0c-0.6-0.1-1-1.3-2.1-9.1c-0.3-1.7-0.5-3.1-0.6-3.9l-0.1-0.2l0.2-0.1
	c0.4-0.2,1.5-2.1,1.6-2.3c0.1-0.4,0-0.7-0.2-1.2c0,0-0.1,0-0.1,0c0,0-0.1,0-0.1,0.1c0,0,0,0.1,0,0.1c0.1,0.2,0.1,0.4,0.1,0.7v0.3
	l-0.3,0.1c-0.1,0-0.2,0-0.3,0.1l-0.5,0.1v-0.5c0-1.5-0.9-2.9-1.4-3.5c-1.2-1.5-1.6-1.7-1.8-1.7C113.7,66.2,113.6,66.2,113.5,66.2
	C113.6,66.2,113.6,66.2,113.5,66.2z"/>
<path class="st3" d="M137.5,178.3c-1.3,0-3.2-0.4-3.6-0.8c0,0,0-0.1,0-0.1c0-1.1,0.1-3.3,0.5-3.7c0,0,0.1,0,0.4,0
	c1.1,0,3.3,0.5,3.8,0.7c0,1.1-0.2,3.5-0.5,3.8C138.1,178.3,138,178.3,137.5,178.3z"/>
<path class="st4" d="M138.7,174.4c0.1,0.8-0.1,3.6-0.6,4c-0.1,0.1-0.4,0.1-0.6,0.1c-1.3,0-3.8-0.4-3.8-1c0-0.6,0.1-3.4,0.6-3.8
	c0.1-0.1,0.3-0.1,0.6-0.1C136,173.6,138.7,174.2,138.7,174.4z M134.5,174c-0.2,0.3-0.4,2.3-0.4,3.4c0.3,0.3,2.1,0.7,3.5,0.7
	c0.3,0,0.4,0,0.4,0c0.3-0.4,0.4-2.5,0.4-3.5c-0.5-0.1-2.5-0.6-3.5-0.6C134.6,173.9,134.6,173.9,134.5,174z"/>
<path class="st3" d="M169,175c-0.1,0-0.1,0-0.1,0c-0.6-0.9-1.8-2.9-1.8-3.3c0.1-0.4,3.2-1.8,3.8-1.9c0.6,0.8,1.9,3,1.8,3.3
	S170,175,169,175z"/>
<path class="st4" d="M171,169.6c0.5,0.6,2.1,3,1.8,3.6c-0.1,0.4-2.8,2-3.8,2c-0.1,0-0.2,0-0.3-0.1c-0.4-0.5-1.8-2.8-1.8-3.4
	C167,171.1,170.4,169.6,171,169.6C170.9,169.6,171,169.6,171,169.6z M167.3,171.7c0,0.4,1,2.1,1.6,3.1c0,0,0.1,0,0.1,0
	c0.8,0,3.2-1.3,3.5-1.8c-0.1-0.4-1.1-2.3-1.8-3.1C170.1,170.2,167.6,171.3,167.3,171.7z"/>
<path d="M148.3,122.9c-0.3,0.7-0.6,1.4-0.8,2.2c-2,5.2-4.5,11.2-4.7,14.3c-0.4,5.7-3.1,19.9-3.1,26.8c0,5.6-1.6,9.3-1.4,10.7l-5.1-1
	c-2-8.1-4-27.5-4-36.3c0-8.9,0.8-23.5,4-30.5c3.1-6.6,15.4,5.5,16.9,7.1C150.4,116.7,149.6,119.4,148.3,122.9z"/>
<path d="M148.3,122.9c-0.3,0.7-0.6,1.4-0.8,2.2c-2,5.2-4.5,11.2-4.7,14.3c-0.4,5.7-2.8,35.5-3.3,37.4c-0.9,0.6-2.7,0.1-3.9-0.4
	c-0.4-5,1.9-9.6,2.5-14.4c1.1-9.2-2.1-19,1.8-27.8c1.1-2.5,2.9-5,2.8-7.9c-0.1-1.3-1-3-0.2-4.3c1.4-2.4,4.1-0.8,5.3,0.8
	c0.1,0,0.4-0.1,0.5,0.1C148.2,122.9,148.2,122.9,148.3,122.9z"/>
<path d="M147.2,112.5c3.1-3.4,6.8-5.3,9.1-5.6c0.5,0,1,0,1.3,0.1c0.3,0.1,0.5,0.3,0.6,0.6c1.1,1.7,1.8,3.3,2.5,4.7
	c0.2,0.4,0.4,0.8,0.5,1.3c3.3,8.9,0.1,14.7,0.2,26.7c0,5.8-1.2,10.9,4.5,19.8c2.2,3.4,6.7,11.6,6.7,11.6l-0.9,0.5l-4,2.1
	c-7.4-5.6-18.5-20-19.5-28.7c-1.6-13.6-2-27.5-2.1-31.1c0-0.6,0-0.9,0-0.9C146.6,113.2,146.9,112.8,147.2,112.5z"/>
<path d="M158.4,131.7c1.1-5.7,1.8-11.2,0.1-16.9c-0.1-0.2,0-0.4,0.1-0.4c0-0.1,0.1-0.1,0.2-0.1c0.6-0.2,1.5-0.6,2.4-0.7
	c3.3,8.9,0.1,14.7,0.2,26.7c0,5.8-1.2,10.9,4.5,19.8c2.2,3.4,6.7,11.6,6.7,11.6l-0.9,0.5c-3.3-3-6.7-6.1-8.6-10.1
	c-2.2-4.6-3.6-9.8-4.7-14.8C157.3,141.9,157.4,137,158.4,131.7z"/>
<path d="M138.3,177.4c0,0,1.2,3-0.4,4.8c0,0-9.3-1.3-12-2.3c0,0,0.6-3.6,3-3.5c2.4,0.2,4.8,0.8,4.8,0.8S136.2,179,138.3,177.4z"/>
<path d="M172.5,172.1c0,0,2.8,1.6,2.7,4c0,0-8,4.9-10.8,5.8c0,0-1.8-3.2,0.2-4.6c2-1.4,4.2-2.5,4.2-2.5S171.9,174.7,172.5,172.1z"/>
<path class="st3" d="M130.6,95.6c-4.4-3.4-5.2-9.2-3.8-13c4.5-3.8,9.6-7.8,12.7-8.4c0,0,0.1-0.1,0.1-0.1c0.2,0,0.3,0.1,0.4,0.2
	c0.3,0.4,0.4,2.1-2,8c-1.1,2.5-2.1,4.5-2.1,4.5L136,87l0.1,0.1c0.1,0,1.9,2.4,1.3,3.9c-0.2,0.6-0.9,1.3-2.1,2
	c-0.6,0.4-1.3,0.7-2,1.1C132.4,94.5,131.4,95,130.6,95.6z"/>
<path class="st4" d="M138.2,82.4c-1,2.5-2.1,4.5-2.1,4.5s2,2.5,1.3,4.1c-0.4,0.8-1.1,1.4-2.2,2.1c-1.4,0.8-3.3,1.7-4.7,2.7
	c-4.6-3.5-5.4-9.5-4-13.4c4.1-3.5,9.6-7.8,12.9-8.4c0,0,0.1,0,0.1,0C141.4,74,139.8,78.6,138.2,82.4z M139.5,74.3
	c-3,0.6-8.1,4.5-12.6,8.3c-1.3,3.8-0.5,9.4,3.7,12.7c0.8-0.6,1.7-1,2.5-1.5c0.7-0.4,1.4-0.7,2-1.1c1.1-0.7,1.8-1.3,2.1-1.9
	c0.5-1.1-0.7-3-1.3-3.7l-0.1-0.2l0.1-0.2c0,0,1-2.1,2-4.5c2.5-6,2.3-7.5,2.1-7.9c-0.1,0-0.1-0.1-0.3-0.1
	C139.6,74.3,139.6,74.3,139.5,74.3z"/>
<path class="st3" d="M159.9,115.2c-4.2,0-26.6-5.2-27.3-6.3c0.3-1.3,0.8-3.3,1.5-5.5c0.8-2.5,1.6-5.4,2-7.6c0.1-0.5,0.1-0.9,0.2-1.5
	c0.1-1.3-0.1-3.3-0.3-5.6l-0.1-0.8c-0.6-6.1-0.8-12.1,2-13.2l0.2-0.1c0.1,0,0.3-0.1,0.4-0.1c0.8-0.3,1.7-0.6,2.7-0.8l0.1-0.1
	c1.5-0.3,2.9-0.5,4.4-0.5c1.7,0,3.4,0.2,5.1,0.7c1.6,0.4,3.3,1,4.8,1.8c0.8,0.4,1.6,0.9,2.3,1.4c0.6,0.4,0.9,0.6,1.2,0.8
	c1.3,1,2,6.2,2,14.4c0,1.1-0.1,2.4-0.1,4c-0.1,3.8,0.4,8.5,0.7,12.2c0.3,3,0.5,5.5,0.3,5.9c-0.1,0.1-0.3,0.5-1.7,0.7
	C160.2,115.2,160.1,115.2,159.9,115.2z"/>
<path class="st4" d="M150.8,73.7c1.8,0.5,3.5,1.1,4.8,1.9c0.9,0.5,1.7,0.9,2.4,1.4c0.4,0.3,0.8,0.6,1.2,0.8c1.6,1.2,2.1,7.6,2,14.5
	c0,1.3,0,2.7-0.1,4c-0.2,6.9,1.5,17.2,1,18.2c-0.1,0.4-0.8,0.6-1.8,0.8c-0.1,0-0.2,0-0.4,0c-4.1,0-27.5-5.3-27.5-6.4
	c0.5-3,2.8-9.1,3.5-13.2c0.1-0.5,0.1-0.9,0.1-1.4c0.1-1.5-0.1-3.8-0.4-6.4c-0.5-5.5-0.9-12.2,2.1-13.4c0.2-0.1,0.4-0.2,0.6-0.2
	c0.9-0.4,1.8-0.7,2.7-0.8c1.6-0.4,3.1-0.5,4.5-0.5C147.5,73,149.3,73.3,150.8,73.7z M141.5,73.8L141.5,73.8l-0.3,0.1
	c-0.9,0.2-1.8,0.4-2.6,0.8c-0.1,0-0.3,0.1-0.4,0.2L138,75c-3,1.1-2.3,8.6-1.9,13l0.1,0.8c0.2,2.3,0.4,4.2,0.3,5.6
	c0,0.6-0.1,1.1-0.1,1.5c-0.4,2.3-1.3,5.1-2,7.6c-0.6,2.1-1.2,4-1.5,5.3c1.7,1.3,23.2,6.2,27.1,6.2c0.2,0,0.3,0,0.4,0
	c1.4-0.3,1.6-0.6,1.6-0.6c0.1-0.4-0.1-3.1-0.4-5.7c-0.4-3.8-0.8-8.6-0.7-12.3c0.1-1.6,0.1-2.8,0.1-4c0.1-8.1-0.6-13.3-1.8-14.2
	c-0.4-0.3-0.7-0.5-1.2-0.8c-0.8-0.5-1.5-1-2.3-1.4c-1.6-0.8-3.1-1.4-4.7-1.8c-1.7-0.4-3.4-0.6-5.1-0.6
	C144.3,73.4,142.9,73.5,141.5,73.8z"/>
<path class="st3" d="M144.2,74.4c-0.1,0-0.2,0-0.4,0c-0.1,0-0.1-0.1-0.1-0.1c-0.1-0.2,0.1-0.8,0.3-1.1v-2.9l3.5-1.4V73
	C147.1,73.3,145.5,74.4,144.2,74.4z"/>
<path class="st4" d="M147.6,73.1c0,0-1.8,1.5-3.4,1.5c-0.1,0-0.2,0-0.4-0.1c-0.7-0.1,0-1.4,0-1.4v-3l3.8-1.6V73.1z M144.2,70.3v2.8
	l-0.1,0.1c-0.2,0.4-0.3,0.8-0.2,0.9c0.1,0,0.2,0.1,0.3,0.1c1.2,0,2.6-1,3-1.3v-3.8L144.2,70.3z"/>
<path class="st3" d="M144.3,71.1c-1.4,0-2.8-0.8-2.8-1.9c-0.3-2.3,0.2-5,0.4-5.5l5.9-0.9c0.3,0.6,1.4,3.8-0.4,6.6
	C146.6,70.6,145.5,71.1,144.3,71.1z"/>
<path class="st4" d="M147.5,69.5c-0.9,1.3-2.1,1.8-3.2,1.8c-1.6,0-2.9-1-3-2.1c-0.3-2.7,0.4-5.7,0.4-5.7l6.2-1
	C147.9,62.6,149.6,66.2,147.5,69.5z M142,63.8c-0.1,0.8-0.6,3.3-0.4,5.4c0.1,0.8,1.3,1.8,2.7,1.8c1.1,0,2.1-0.6,2.8-1.7
	c1.7-2.5,0.8-5.5,0.5-6.4L142,63.8z"/>
<path class="st6" d="M163.4,116.4c-0.6,0.4-18.1-2.3-18.1-2.3c-1.2-4-5-20.3-4.9-21.9c0.6-10.2,10.1-18.4,10.1-18.4
	c3.8-0.1,8.4,4.1,8.4,4.1c-1.1-2.2-5.9-2.1-6.7-0.8c-1.6,2.4-1.1,9.8,0.4,13c4.2,9,8.3,9.5,8.3,9.5L163.4,116.4z"/>
<path class="st6" d="M142.3,96.2c0.5,1.3-6.9,15.4-6.9,15.4s-5.2-1-5.3-1.1c0,0,2.2-5.9,3.8-10.1c0.3-0.8,0.6-1.6,0.9-2.3v-0.1
	c0.3-0.8,0.5-1.6,0.6-2.1c0.1-0.6,0.2-1.2,0.2-1.5c0.1-1.5-1.2-4.2-1.3-6.9c-0.1-4.6,1.6-12.4,3-13c0.1,0,0.3-0.1,0.4-0.1
	c0,0,0.1-0.1,0.2-0.1c0.9-0.3,1.8-0.6,2.6-0.8c0,0,0.1,0,0.1,0S138.9,87.4,142.3,96.2z"/>
<path d="M140.6,62.3c-0.4-2.2,3.3-1.8,4.6-1.6c0.8,0.1,3.9,0.6,4,2c0.8,1.3,0.8,3.3,0.3,4.7c0,0.4-0.1,0.6-0.5,0.9
	c-0.6,0.3-1.3,0.1-1.6-0.5c-0.5-0.8-0.2-2-0.3-2.9c0-0.1-0.1-0.8-0.1-1.3c-0.5-0.2-0.9-0.4-1.6-0.2c-0.8,0.1-1.5,0.4-2.3,0.5
	C142,64,139.7,63.7,140.6,62.3z"/>
<path class="st4" d="M146.6,92.9c1.2,0.4,1.9,1.7,1.6,3c-0.4,1.2-1.7,1.9-3,1.6c-1.3-0.4-2-1.7-1.6-3
	C144,93.1,145.3,92.4,146.6,92.9z M145.4,96.5c0.8,0.3,1.7-0.1,2-1c0.2-0.8-0.2-1.7-1.1-1.9c-0.8-0.3-1.6,0.2-1.9,1
	C144.2,95.5,144.6,96.3,145.4,96.5z"/>
<path class="st5" d="M133.8,110.1l4.7-15.3c0.3-1,1.4-1.6,2.4-1.3l9.9,3c1,0.4,1.6,1.4,1.3,2.4l-4.7,15.4c-0.3,1-1.4,1.6-2.4,1.2
	l-9.9-3C134.1,112.3,133.5,111.2,133.8,110.1z"/>
<path class="st3" d="M159.8,111.8c-0.1,0-0.3,0-0.4,0l-0.7-0.1c-6.9-0.8-18.7-5.9-19.8-6.5v-0.4l-0.3,0.3c-0.3,0.4-0.7,0.5-1.2,0.5
	c-0.1,0-0.3,0-0.5-0.1c-0.5-0.1-1.8-0.4-1.8-1.1c0-0.2,0.1-0.4,0.3-0.4l0.2-0.1l-0.1-0.2c-0.1-0.3-0.1-0.5,0.1-0.7l0.1-0.1l0.1-0.1
	l-0.1-0.1c-0.2-0.2-0.1-0.4-0.1-0.5c0.1-0.2,0.3-0.3,0.5-0.4h0.1v-0.1c0,0,0-0.1,0.1-0.1c0-0.2,0.2-0.4,0.4-0.4
	c0.4,0,0.9,0.3,1.3,0.5l0.3,0.1v-0.4c-0.1-0.1-0.1-0.2-0.2-0.4c-0.3-0.4-0.7-0.4-1.1-0.5c-0.1-0.1-0.2-0.2-0.2-0.3
	c0-0.1,0.1-0.3,0.2-0.3c0.2,0,0.4-0.1,0.5-0.1c0.5,0,0.9,0.1,1.2,0.4c0.4,0.3,0.8,1.3,1.1,2v0.1h3c3.9,0.1,9.8,0.2,12.9,0.4
	c0.4,0,0.7,0,1.1,0c0.3,0,0.5,0.1,0.7,0.1c0.1,0,0.3,0,0.4,0h0.1h0.1l0.1-0.1c0.1,0,0.1-0.1,0.2-0.2c0.4-1.1-0.4-6.4-1.5-8.5
	c-0.6-1.1-1.3-2.3-1.8-3c-1.3-2.2-1.8-4.7-1.6-7.1c0.3-2,1.1-3.8,2.3-5.4c0.6-0.8,1.6-1.2,2.5-1.2c1.1,0,2.2,0.6,2.8,1.5
	c2.5,3.8,3.7,5.7,6.2,11.9V91c2.1,4.9,1.2,12.7-1.9,17.3C164.2,109.9,162.3,111.8,159.8,111.8z"/>
<path class="st4" d="M161,78.9c2.5,3.8,3.7,5.7,6.2,12c0,0,0.1,0,0.1,0.1c3.2,7.6-0.8,21-7.5,21c-0.1,0-0.3,0-0.4,0
	c-0.2,0-0.5,0-0.7-0.1c-7.3-0.8-20-6.5-20-6.5c0,0,0-0.1,0-0.1c-0.4,0.4-0.8,0.6-1.3,0.6c-0.2,0-0.4,0-0.5-0.1c-0.6-0.1-2-0.5-2-1.3
	c-0.1-0.3,0.1-0.5,0.4-0.6c-0.1-0.3-0.2-0.6,0.1-0.9c0,0,0-0.1,0.1-0.1c-0.1-0.2-0.2-0.5-0.1-0.8c0.1-0.2,0.4-0.3,0.6-0.4
	c0-0.1,0-0.2,0.1-0.2c0.1-0.4,0.3-0.4,0.6-0.4c0.4,0,0.9,0.2,1.3,0.5c0-0.1,0-0.3-0.1-0.4c-0.2-0.3-0.6-0.4-1-0.4
	c-0.4-0.1-0.4-0.8,0-0.8c0.2,0,0.4-0.1,0.6-0.1c0.5,0,0.9,0.1,1.3,0.4c0.4,0.4,0.9,1.4,1.1,2.1c3.3,0.1,11.8,0.2,15.8,0.4
	c0.4,0,0.8,0.1,1.1,0.1c0.2,0,0.5,0.1,0.7,0.1c0.1,0,0.3,0,0.4-0.1c0,0,0.1,0,0.1,0s0,0,0.1,0c0.7-0.1-0.1-6.2-1.3-8.5
	c-0.6-1.1-1.2-2.1-1.8-3c-1.3-2.1-1.9-4.7-1.6-7.2c0.4-2.4,1.3-4.2,2.3-5.5c0.7-0.8,1.7-1.3,2.6-1.3C159.3,77.4,160.4,77.9,161,78.9
	z M155.8,78.8c-1.2,1.6-1.9,3.3-2.2,5.4c-0.4,2.3,0.2,4.7,1.6,6.9c0.6,1,1.2,2.1,1.7,3c1.2,2.1,2,7.5,1.5,8.6
	c-0.1,0.2-0.2,0.3-0.3,0.4H158h-0.1c0,0,0,0-0.1,0c-0.1,0-0.3,0.1-0.4,0.1c-0.2,0-0.5,0-0.7-0.1h-0.1c-0.3,0-0.6,0-1-0.1
	c-3.1-0.1-9-0.2-12.9-0.3c-1.1,0-2.2-0.1-2.9-0.1h-0.3l-0.1-0.2c-0.2-0.7-0.6-1.6-1-1.9c-0.3-0.2-0.6-0.4-1.1-0.4
	c-0.1,0-0.3,0-0.5,0c0,0.1,0,0.1,0,0.1v0.1c0.4,0.1,0.9,0.2,1.2,0.6c0.1,0.2,0.2,0.4,0.2,0.5l0.1,0.7l-0.6-0.4
	c-0.2-0.1-0.8-0.4-1.2-0.4c-0.1,0-0.2,0-0.3,0.1c0,0,0,0.1,0,0.1v0.3l-0.3,0.1c-0.3,0-0.4,0.1-0.4,0.2c0,0.1-0.1,0.1,0.1,0.4
	l0.2,0.2l-0.2,0.2c0,0-0.1,0.1-0.1,0.1c-0.1,0.1-0.2,0.3,0,0.6l0.1,0.4l-0.4,0.1c-0.1,0-0.1,0.1-0.1,0.2c0,0.4,0.6,0.8,1.7,1
	c0.1,0,0.3,0.1,0.4,0.1c0.3,0,0.7-0.1,1.1-0.4l0.6-0.6l0.1,0.8c1.6,0.7,12.9,5.6,19.7,6.4c0.2,0,0.4,0.1,0.6,0.1c0.1,0,0.3,0,0.4,0
	c2.4,0,4.2-1.8,5.2-3.4c3-4.6,4-12.3,1.9-17.1V91c0,0,0,0-0.1-0.1c-2.5-6.1-3.7-8.1-6.2-11.8c-0.6-0.8-1.6-1.4-2.6-1.4
	C157.2,77.7,156.4,78.1,155.8,78.8z"/>
<path class="st3" d="M155.9,93.9c-0.3,0-0.7,0-1.1-0.1c-4.3-8-5-13.7-1.8-17.1c0.5-0.5,1.3-0.8,2.3-0.8c2.3,0,5,1.3,6,2.1
	c3.7,2.9,5.5,9.1,5.9,10.6C163.8,92,159.8,93.9,155.9,93.9z"/>
<path class="st4" d="M161.5,77.9c3.8,3,5.7,9.8,5.9,10.8c-3.3,3.3-7.3,5.3-11.5,5.3c-0.4,0-0.8,0-1.1,0c-3-5.4-6-13-1.8-17.4
	c0.6-0.6,1.4-0.9,2.4-0.9C157.5,75.7,160.3,76.9,161.5,77.9z M153.1,76.8c-3,3.3-2.5,9,1.8,16.9c0.3,0,0.6,0,0.9,0
	c3.9,0,7.8-1.8,11.1-5.1c-0.4-1.6-2.3-7.6-5.7-10.4c-1.1-0.8-3.8-2.1-5.9-2.1C154.3,76,153.6,76.3,153.1,76.8z"/>
<path class="st3" d="M151.1,60.4c-0.3,0-0.5-0.1-0.5-0.1h-0.3l0.1-0.2c0.8-1.3,0.3-3.8-0.4-5.7c-4.1-2.8-6.5-7.4-6.5-12.3
	c0-8.2,6.7-14.9,14.9-14.9c8.3,0,14.9,6.7,14.9,14.9s-6.7,14.9-14.9,14.9c-0.2,0-0.5,0-0.7-0.1h-0.1
	C155.2,60.1,152.3,60.4,151.1,60.4z"/>
<path class="st4" d="M173.6,42.2c0,8.4-6.8,15.1-15.2,15.1c-0.2,0-0.5,0-0.8,0c-2.5,3-5.4,3.3-6.6,3.3c-0.3,0-0.5,0-0.6,0l-0.5-0.1
	l0.3-0.5c0.6-0.9,0.5-2.8-0.4-5.4c-4.1-2.8-6.6-7.5-6.6-12.5c0-8.4,6.8-15.1,15.1-15.1C166.8,27.1,173.6,33.8,173.6,42.2z
	 M143.8,42.2c0,5.1,2.6,9.6,6.5,12.2c0.6,1.9,1.2,4.5,0.4,5.8c0,0,0.2,0,0.5,0c1.1,0,4-0.3,6.4-3.3c0.3,0,0.6,0,0.9,0
	c8.1,0,14.8-6.6,14.8-14.7s-6.7-14.7-14.8-14.7C150.3,27.4,143.8,34,143.8,42.2z"/>
<path class="st4" d="M158,52.4v-2.1c-1-0.1-1.9-0.4-2.5-0.7c-0.7-0.3-1.2-0.8-1.7-1.6c-0.4-0.8-0.7-1.7-0.8-2.7l2.1-0.4
	c0.1,1.1,0.4,1.9,0.8,2.4c0.6,0.7,1.3,1.1,2.1,1.2v-6.5c-0.8-0.1-1.7-0.4-2.6-0.9c-0.6-0.4-1.1-0.9-1.5-1.6
	c-0.3-0.6-0.5-1.3-0.5-2.1c0-1.5,0.5-2.6,1.5-3.5c0.7-0.6,1.7-1,3-1.1V32h1.2v0.9c1.2,0.1,2.1,0.5,2.8,1.1c0.9,0.8,1.4,1.8,1.6,3
	l-2.1,0.3c-0.1-0.8-0.3-1.4-0.7-1.8c-0.4-0.4-1-0.7-1.6-0.8l0.1,5.8c1,0.3,1.7,0.5,2,0.6c0.7,0.3,1.2,0.6,1.6,1
	c0.4,0.4,0.7,0.8,0.9,1.4c0.2,0.6,0.4,1.2,0.4,1.8c0,1.4-0.4,2.6-1.3,3.5c-0.9,0.9-2.1,1.4-3.5,1.5v2.1H158z M157.9,34.6
	c-0.8,0.1-1.4,0.5-1.8,1c-0.5,0.5-0.7,1.1-0.7,1.8c0,0.7,0.2,1.3,0.6,1.8c0.4,0.5,1,0.8,2,1.1L157.9,34.6z M159.1,48.6
	c0.8-0.1,1.4-0.4,1.9-1.1c0.5-0.6,0.8-1.3,0.8-2.1c0-0.8-0.2-1.3-0.6-1.8c-0.3-0.5-1-0.9-2.1-1.2V48.6z"/>
<path d="M60.9,132.7c1.1,0,2.2-0.4,3.1-1.1c0.1,2-0.1,3.9-0.4,5.8c-1.3,2.1-4.7,5.7-4.5,5.7c0.9-0.1,1.8-0.4,2.8-0.6
	c-0.6,1.2-1.3,2.4-2.1,3.5c-1.7,2.2-4,4-5,6.7c0,0,0,0.1-0.1,0.1c-0.1,0.1-0.2,0.3-0.4,0.1c-4.5-4.2-5.3-10.7-5.9-16.6
	c0-0.3-0.1-0.6-0.1-0.8c1.2,1.3,2.5,2.4,4.1,3.3c0.2,0.1-2.8-4.7-4.2-6.9c0-1.4,0.2-2.8,0.7-4.2c1.1-2.8,2.9-5.5,4.6-7.9
	c0.1-0.1,0.2-0.2,0.3-0.3c0.4,1.2,1.1,2.4,1.9,3.5c0.1,0.2-0.4-3.5-0.6-5.2c0.5-0.6,0.9-1.1,1.3-1.6c0.6-0.7,1.3-1.9,2.4-1.7
	c1.1,0.1,3.5,4.4,3.8,5.6c0.1,0.5,0.3,1.1,0.4,1.6c0,0.2,0.1,0.4,0.1,0.6c0.4,2.2,0.6,4.4,0.8,6.5c0,0.1-0.1,0.3-0.2,0.4
	C62.8,130.3,60.7,132.7,60.9,132.7z"/>
<path class="st3" d="M57.1,174.1c-1.7-7.9-2.5-14.8-2.7-21.2c0-0.1-0.1-0.2-0.1-0.3c0-0.8,0-1.5,0.1-2.3c0-1.2,0-2.3,0.1-3.5
	c0,0,0-0.1,0.1-0.1c0.1-3.1,0.4-6.2,0.7-9.3c0,0,0,0-0.1-0.1c-1.1-1.3-1.9-2.7-2.5-4.2c0-0.1,0-0.3,0.1-0.4c0.1-0.1,0.2-0.2,0.4-0.2
	s0.3,0.1,0.4,0.3c0.5,1.2,1.1,2.4,1.9,3.5c0.1-0.8,0.2-1.6,0.3-2.3c0,0-0.1-0.1-0.1-0.1c-1.4-1.9-2.5-4-3.2-6.2c0-0.1,0-0.3,0.1-0.4
	c0.1-0.1,0.2-0.1,0.4-0.1c0.2,0,0.4,0.1,0.4,0.3c0.6,1.9,1.6,3.8,2.7,5.5c0.5-4.3,1.2-8.6,2.1-12.7c0-0.2,0.2-0.4,0.4-0.4
	c0.1,0,0.2,0.1,0.3,0.2c0.1,0.1,0.1,0.2,0.1,0.3c-0.6,3-1.2,6.3-1.6,9.6c2-0.4,3.5-1.8,4.8-3c0.1,0,0.2-0.1,0.3-0.1
	c0.1,0,0.3,0.1,0.4,0.3c0.1,0.1,0.1,0.4-0.1,0.5c-1.7,1.5-3.4,2.8-5.5,3.2c-0.8,5.2-1.3,10.6-1.6,15.8c0.7-0.6,1.3-1.2,1.8-1.9
	c0.1-0.1,0.2-0.2,0.4-0.2c0.1,0,0.3,0.1,0.4,0.3c0.1,0.1,0.1,0.3,0,0.4c-0.6,0.9-1.4,1.7-2.3,2.4c0,0-0.1,0.1-0.2,0.1
	c0,0.8,0,1.6-0.1,2.4c-0.1,7.2,0.7,14.9,2.7,23.9v0.2l-0.8,0.2L57.1,174.1z"/>
<path class="st4" d="M58.7,119.7c0.1,0.1,0.2,0.3,0.1,0.5c-0.6,3-1.1,6.1-1.6,9.3c1.8-0.5,3.3-1.8,4.5-2.9c0.1-0.1,0.3-0.1,0.4-0.1
	c0.2,0,0.4,0.1,0.6,0.4c0.1,0.2,0,0.5-0.2,0.6c-1.6,1.5-3.3,2.8-5.5,3.3c-0.7,5.1-1.2,10.2-1.5,15.3c0.6-0.5,1-1.1,1.4-1.7
	c0.1-0.1,0.3-0.2,0.5-0.2s0.4,0.1,0.6,0.3c0.1,0.2,0.1,0.5-0.1,0.6c-0.6,1-1.4,1.8-2.4,2.5c0,0-0.1,0.1-0.1,0.1
	c0,0.8-0.1,1.5-0.1,2.3c-0.1,7.2,0.7,14.8,2.6,23.9l0.1,0.4l-0.3,0.1h-0.2c-0.1,0-0.2,0.1-0.3,0.1l-0.4,0.1l-0.1-0.4
	c-1.7-7.9-2.6-14.8-2.8-21.2c0-0.1-0.1-0.2-0.1-0.4c0-0.8,0.1-1.5,0.1-2.3c0-1.2,0.1-2.3,0.1-3.5c0,0,0-0.1,0-0.1
	c0.2-3.1,0.4-6.2,0.8-9.3c0,0,0,0-0.1,0c-1.1-1.3-1.9-2.8-2.5-4.3c-0.1-0.2-0.1-0.4,0.1-0.6c0.1-0.2,0.3-0.3,0.5-0.3
	c0.2,0,0.4,0.1,0.6,0.4c0.4,1.1,0.9,2.1,1.6,3c0-0.6,0.1-1.2,0.2-1.8c0,0-0.1,0-0.1-0.1c-1.4-2-2.5-4.1-3.2-6.3
	c-0.1-0.2-0.1-0.4,0.1-0.6c0.1-0.2,0.3-0.3,0.5-0.3c0.3,0,0.5,0.1,0.6,0.4c0.6,1.7,1.3,3.4,2.3,5c0.6-4.2,1.2-8.2,2-12.2
	c0.1-0.3,0.3-0.5,0.6-0.5C58.4,119.5,58.7,119.6,58.7,119.7z M58,120.1c-0.8,4.3-1.6,8.7-2.1,13.1c-1.3-1.8-2.2-3.8-2.9-5.9
	c-0.1-0.1-0.1-0.1-0.2-0.1c-0.1,0-0.4,0.1-0.3,0.4c0.8,2.2,1.8,4.3,3.2,6.2c0,0,0.1,0.1,0.1,0.1c-0.1,1-0.2,2-0.3,2.9
	c-0.9-1.1-1.7-2.4-2.2-3.8c-0.1-0.1-0.1-0.1-0.2-0.1c-0.1,0-0.4,0.1-0.3,0.4c0.6,1.6,1.4,3,2.5,4.2c0,0,0.1,0,0.1,0.1
	c-0.3,3.1-0.6,6.3-0.8,9.5c0,0,0,0,0,0.1c0,1.2-0.1,2.3-0.1,3.5c0,0.8,0,1.5-0.1,2.3c0,0.1,0,0.2,0.1,0.2c0.1,7.2,1.2,14.2,2.7,21.2
	c0.2,0,0.4-0.1,0.5-0.1c-1.7-7.9-2.8-15.9-2.6-24c0-0.8,0-1.7,0.1-2.5c0,0,0.1,0,0.1,0c0,0,0.1,0,0.1-0.1c0.9-0.6,1.7-1.4,2.3-2.3
	c0.1-0.2-0.1-0.4-0.2-0.4c0,0-0.1,0-0.2,0.1c-0.6,0.9-1.3,1.6-2.1,2.2c0.3-5.5,0.8-10.9,1.6-16.3c2.2-0.4,3.9-1.8,5.5-3.2
	c0.2-0.2,0.1-0.5-0.1-0.5c0,0-0.1,0-0.1,0.1c-1.6,1.3-3.1,2.7-5.2,3c0.5-3.3,1-6.6,1.6-9.8c0.1-0.2-0.1-0.3-0.2-0.3
	C58.2,119.8,58,119.9,58,120.1z"/>
<path class="st3" d="M50.4,158.2L50.4,158.2l-0.1-0.1c-1.1-1.2-2.6-1.8-4.1-2.5c-0.7-0.4-1.4-0.6-2.1-1c-0.8-0.5-1.7-1-2.5-1.6
	c0.6,0,1.4-0.1,2.2-0.4l0.1-0.1v-0.1c0.1-0.2,0.1-0.2-1.5-0.9c-1.3-0.6-3-1.4-4-2.1c-0.8-1.1-1.4-2.4-1.9-3.8c0.2,0,0.5,0.1,0.8,0.1
	c0.7,0,1.4-0.1,2-0.4h0.1l0.1-0.1c0-0.1-0.1-0.2-1.8-1.1c-0.6-0.3-1.3-0.6-1.7-0.8c-0.1,0-0.2-0.1-0.2-0.1c-0.6-2-0.9-3.6-1.2-5.1
	c0-0.2-0.1-0.4-0.1-0.6c0-0.4-0.1-0.8-0.1-1.3c-0.1-1,0.7-4.9,1.4-5.3c0.2-0.1,0.4-0.1,0.6-0.1c0.5,0,1,0.3,1.5,0.5
	c0.1,0,0.2,0.1,0.4,0.1c0.5,0.2,1,0.5,1.5,0.8c0.1,0.6,0.8,4.2,1.2,4.2h0.1l0.1-0.1c0.4-0.9,0.6-1.9,0.6-3c2.1,1.1,4.5,2.5,6.2,4.4
	c0.8,0.7,1.3,1.6,1.8,2.7c-0.2,0.7-1.8,6.5-1.6,6.8l0.1,0.1h0.1l0.1-0.1c0.9-0.9,1.6-2,2.4-3.5c0,0.1,0,0.2,0.1,0.2
	C51.7,148.2,53,153.5,50.4,158.2C50.4,158.2,50.4,158.2,50.4,158.2z"/>
<path class="st4" d="M38.1,131.2c0.5,0.2,1,0.5,1.6,0.8c0.3,1.3,0.9,4.2,1.1,4.2c0.4-1.1,0.6-2.2,0.6-3.3c0.1,0.1,0.2,0.2,0.3,0.2
	c2.1,1.2,4.5,2.6,6.2,4.4c0.8,0.8,1.4,1.8,1.8,2.8c-0.6,2.1-1.7,6.7-1.6,6.7c1.1-1.1,1.9-2.4,2.6-3.8c0,0.2,0.1,0.4,0.1,0.6
	c1.1,4.6,2.3,9.7-0.2,14.4c0,0.1-0.1,0.1-0.1,0.1c-0.1,0-0.2,0-0.2-0.1c0,0-0.1,0-0.1,0c-1.6-1.8-4.1-2.3-6.2-3.5
	c-1-0.5-1.9-1.1-2.8-1.8c0.8-0.1,1.7-0.2,2.5-0.4c0.2-0.1-3.8-1.7-5.5-2.8c-0.8-1.3-1.6-2.7-2.1-4.2c0.3,0,0.7,0.1,1.1,0.1
	c0.7,0,1.3-0.1,1.9-0.4c0.2-0.1-2.3-1.2-3.4-1.8c-0.1,0-0.2-0.1-0.3-0.2c-0.5-1.6-0.9-3.4-1.2-5.1c0-0.2-0.1-0.4-0.1-0.6
	c0-0.5-0.1-0.9-0.1-1.3c-0.1-1,0.7-5,1.6-5.5c0.2-0.1,0.4-0.2,0.6-0.2C36.9,130.5,37.6,131,38.1,131.2z M35.7,131
	c-0.6,0.4-1.4,4-1.3,5.2c0,0.4,0.1,0.8,0.1,1.3c0,0.2,0.1,0.4,0.1,0.5c0.2,1.5,0.6,3.1,1.1,5c0,0,0.1,0.1,0.1,0.1
	c0.4,0.3,1.1,0.6,1.8,0.9c1.8,0.8,1.8,0.9,1.8,1.2v0.2l-0.2,0.1c-0.7,0.2-1.3,0.4-2.1,0.4c-0.2,0-0.4,0-0.6,0
	c0.6,1.3,1.1,2.5,1.8,3.5c0.9,0.6,2.8,1.4,3.9,2c1.6,0.8,1.6,0.8,1.6,1.1v0.2l-0.3,0.1c-0.6,0.2-1.2,0.3-1.7,0.4
	c0.7,0.5,1.3,1,2.1,1.3c0.6,0.4,1.3,0.6,2.1,0.9c1.5,0.6,3,1.3,4.1,2.5h0.1c2.3-4.5,1.2-9.6,0.1-13.7c-0.7,1.3-1.4,2.2-2.2,3.1
	l-0.1,0.1H48h-0.1l-0.1-0.1c-0.1-0.1-0.1-0.2,0.5-2.8c0.4-1.4,0.8-3,1.1-4c-0.5-1.1-1.1-2-1.7-2.7c-1.7-1.7-3.9-3-5.9-4.2
	c-0.1,0.9-0.3,1.9-0.6,2.8l-0.1,0.3h-0.2c-0.4,0-0.4-0.1-0.8-1.8c-0.1-0.8-0.4-1.8-0.5-2.5c-0.5-0.2-0.9-0.4-1.4-0.6
	c-0.1,0-0.3-0.1-0.4-0.2c-0.4-0.2-1-0.5-1.4-0.5C36,130.9,35.9,130.9,35.7,131z"/>
<path d="M53.8,175.2c-0.8-6.5-2.2-12.9-4.7-19c-0.3-0.6-0.6-1.2-0.8-1.8c0,0-0.1,0-0.2,0c-1-0.1-1.9-0.5-2.7-1
	c-0.2-0.1,0.1-0.5,0.3-0.4c0.7,0.5,1.5,0.8,2.4,0.9c-1.8-4-3.8-7.9-6-11.8c0,0-0.1,0-0.1,0c-2,0.5-3.8,0-5.6-0.6
	c-0.3-0.1-0.1-0.5,0.1-0.4c1.7,0.5,3.4,1,5.3,0.6c-1.4-2.3-2.8-4.6-4.3-6.9c-0.1-0.2,0.3-0.4,0.4-0.2c2,3,3.8,6,5.6,9.1
	c0.5-1.8,0.8-3.6,0.8-5.4c0-0.3,0.4-0.3,0.4,0c0,1.9-0.2,3.8-0.8,5.7c0,0.1-0.1,0.1-0.1,0.1c0.4,0.7,0.8,1.4,1.1,2.1
	c0.4-1.2,0.7-2.4,0.7-3.5c0-0.3,0.5-0.3,0.5,0c0,1.3-0.4,2.6-0.9,4c0,0,0,0.1-0.1,0.1c1.2,2.3,2.4,4.6,3.4,6.9c0,0,0.1,0.1,0.1,0.1
	c0.4,0.8,0.8,1.7,1.1,2.6c0.2,0.6,0.5,1.1,0.7,1.7c0,0,0,0.1,0,0.1c1.9,5.4,3.1,11,3.8,16.8C54.1,175.1,54,175.2,53.8,175.2z"/>
<path d="M38,139.5c-1.3-0.3-2.5-0.7-3.7-1.3c0-0.2-0.1-0.4-0.1-0.6c1.2,0.7,2.5,1.2,4,1.5C38.4,139.1,38.3,139.5,38,139.5z"/>
<path class="st5" d="M81,142.9c0,1.8-4.2,2.7-5.6,3.2c-3,1.1-5.9,2.3-8.1,4.6c-2.5,2.8-4.8,6.1-7,9.2c-0.1,0.2-0.4,0.3-0.6,0.2
	c0,0-0.3-0.5-0.6-1.3c-0.8-1.9-2-5.4-1.7-7.4c0.2-1.3,0.7-2.7,1.3-3.9c0.1,0.6,0.4,1.2,0.8,1.6c0.1,0.1,0.4-2.5,0.5-3.7
	c0.2-0.2,0.4-0.4,0.6-0.6c0.5-0.5,1-1,1.6-1.5c0.1-0.1,0.2-0.2,0.4-0.3c0.4-0.3,0.9-0.6,1.4-0.9c0.1-0.1,0.3-0.2,0.4-0.2
	c0.5-0.3,0.9-0.5,1.4-0.7c0.2,0.8,0.4,1.8,0.8,2.6c0.1,0.1,0.3-2.1,0.3-3c0.5-0.2,0.9-0.4,1.4-0.5c0.1,0.6,0.3,1.1,0.6,1.7
	c0.1,0.1,0.7-1.4,0.9-2.1c1.5-0.3,3-0.4,4.5-0.4c0.1,0,0.3,0,0.4,0c0.4,0,0.8,0.1,1.2,0.1C77.5,139.9,80.9,140.8,81,142.9
	C81,142.8,81,142.9,81,142.9z"/>
<path d="M81,142.9c0,1.8-4.2,2.7-5.6,3.2c-3,1.1-5.9,2.3-8.1,4.6c-2.5,2.8-4.8,6.1-7,9.2c0,0-0.1,0.1-0.2,0.1
	c-0.5,1.3-0.6,2.6-0.7,4c-0.1,2.6-0.1,5.3,0,7.9c0,0.6,0,1.2,0.1,1.8c-0.2,0-0.4,0.1-0.5,0.1c0-0.9-0.1-1.9-0.1-2.9
	c-0.1-2.9-0.2-6,0.3-8.9c0.1-0.8,0.4-1.7,0.7-2.4c0.2-1.8,1.3-8.4,5-11.9C68.8,143.6,75.4,143.5,81,142.9z"/>
<path d="M64.2,146c-0.2-1.3-0.3-2.6-0.1-3.9c0.1-0.1,0.3-0.2,0.4-0.2c-0.2,1.4-0.2,2.7,0.1,4C64.6,146.2,64.2,146.3,64.2,146z"/>
<path d="M62.8,146.8c-0.3-1.1-0.4-2.3-0.5-3.5c0.1-0.1,0.2-0.2,0.4-0.3c0,1.2,0.2,2.5,0.5,3.7C63.3,146.9,62.9,147,62.8,146.8z"/>
<path class="st6" d="M69.2,171c0,1-0.1,1.9-0.3,2.8c-0.7,3.2-2.5,6-5.2,7.9H48.2c-2.5-1.8-4.5-4.7-5.1-7.9c-0.2-0.9-0.3-1.8-0.3-2.8
	c0-1,0.1-1.9,0.3-2.8c0.2-0.8,0.4-1.6,0.7-2.3h24.3c0.3,0.7,0.6,1.5,0.7,2.3C69.1,169.1,69.2,170,69.2,171z"/>
<path d="M69.2,171c0,1-0.1,1.9-0.3,2.8c-0.7,3.2-2.5,6-5.2,7.9H48.2c20.3,1,19.9-15.8,19.9-15.8c0.3,0.7,0.6,1.5,0.7,2.3
	C69.1,169.1,69.2,170,69.2,171z"/>
<text transform="matrix(0.915 0 0 1 57.1714 53.9216)" class="st7 st8">Making Tax Digital</text>
</svg>
